<svg width="604" height="426" viewBox="0 0 604 426" fill="none" xmlns="http://www.w3.org/2000/svg">
<path d="M170.496 292.241H423.718C425.164 292.241 426.551 292.816 427.574 293.839C428.597 294.861 429.171 296.248 429.171 297.694V318.661H165.03V297.707C165.029 296.989 165.169 296.277 165.443 295.613C165.717 294.95 166.12 294.346 166.627 293.839C167.135 293.331 167.738 292.928 168.402 292.654C169.066 292.38 169.778 292.24 170.496 292.241Z" fill="#005D2D"/>
<path d="M210.56 305.451C210.557 306.328 210.815 307.186 211.301 307.916C211.787 308.647 212.478 309.216 213.288 309.553C214.098 309.89 214.989 309.979 215.849 309.808C216.71 309.638 217.5 309.216 218.12 308.596C218.74 307.975 219.162 307.185 219.333 306.325C219.503 305.465 219.415 304.573 219.078 303.763C218.741 302.953 218.171 302.262 217.441 301.776C216.711 301.291 215.853 301.033 214.976 301.035C213.806 301.039 212.684 301.505 211.857 302.332C211.03 303.16 210.563 304.281 210.56 305.451Z" fill="#08D57F"/>
<path d="M196.48 305.451C196.477 306.328 196.735 307.186 197.221 307.916C197.707 308.647 198.398 309.216 199.208 309.553C200.018 309.89 200.909 309.979 201.77 309.808C202.63 309.638 203.42 309.216 204.04 308.596C204.66 307.975 205.083 307.185 205.253 306.325C205.423 305.465 205.335 304.573 204.998 303.763C204.661 302.953 204.091 302.262 203.361 301.776C202.631 301.291 201.773 301.033 200.896 301.035C199.725 301.035 198.601 301.5 197.773 302.329C196.945 303.157 196.48 304.28 196.48 305.451Z" fill="#FED512"/>
<path d="M182.4 305.451C182.397 306.328 182.655 307.185 183.14 307.915C183.625 308.645 184.316 309.215 185.125 309.552C185.934 309.889 186.825 309.979 187.685 309.809C188.545 309.64 189.335 309.219 189.956 308.6C190.576 307.981 191 307.192 191.171 306.333C191.343 305.473 191.256 304.582 190.922 303.772C190.587 302.962 190.019 302.27 189.291 301.782C188.562 301.295 187.705 301.035 186.829 301.035C185.656 301.035 184.532 301.5 183.702 302.328C182.871 303.156 182.403 304.279 182.4 305.451Z" fill="#F2787C"/>
<g filter="url(#filter0_bd_5_5)">
<path d="M165.03 318.661H429.171V383.672C429.171 385.118 428.597 386.505 427.574 387.528C426.551 388.55 425.164 389.125 423.718 389.125H170.496C169.05 389.125 167.663 388.55 166.64 387.528C165.618 386.505 165.043 385.118 165.043 383.672V318.661H165.03Z" fill="white"/>
</g>
<path opacity="0.16" d="M398.809 300.434H241.843V310.482H398.809V300.434Z" fill="white"/>
<path d="M220.237 360.517H211.725L210.214 364.433H202.534L212.339 342.008H219.776L229.581 364.433H221.76L220.237 360.517ZM218.163 355.077L215.974 349.432L213.798 355.077H218.163Z" fill="#F2787C"/>
<path d="M230.771 342.008H241.817C249.318 342.008 254.477 346.27 254.477 353.221C254.477 360.171 249.357 364.433 241.817 364.433H230.771V342.008ZM241.497 358.533C242.218 358.568 242.938 358.457 243.614 358.205C244.29 357.954 244.908 357.568 245.43 357.071C245.953 356.573 246.368 355.975 246.653 355.312C246.937 354.649 247.083 353.935 247.083 353.214C247.083 352.493 246.937 351.779 246.653 351.116C246.368 350.453 245.953 349.855 245.43 349.358C244.908 348.86 244.29 348.474 243.614 348.223C242.938 347.972 242.218 347.86 241.497 347.896H238.336V358.533H241.497Z" fill="#F2787C"/>
<path d="M288.934 358.2C288.934 362.04 285.632 364.382 279.449 364.382H266.88V342.008H278.861C285.043 342.008 287.923 344.478 287.923 347.87C287.934 348.892 287.645 349.895 287.092 350.755C286.539 351.615 285.747 352.294 284.813 352.709C286.001 353.055 287.046 353.777 287.789 354.767C288.532 355.757 288.934 356.962 288.934 358.2ZM274.253 347.243V350.571H277.785C279.475 350.571 280.243 349.995 280.243 348.907C280.243 347.819 279.475 347.243 277.785 347.243H274.253ZM281.305 357.329C281.305 356.177 280.473 355.563 278.745 355.563H274.189V359.096H278.745C280.473 359.147 281.305 358.533 281.305 357.381V357.329Z" fill="#F2787C"/>
<path d="M291.584 342.008H299.136V358.571H309.261V364.433H291.584V342.008Z" fill="#F2787C"/>
<path d="M310.118 353.221C310.118 346.424 315.469 341.496 322.777 341.496C330.086 341.496 335.424 346.424 335.424 353.221C335.424 360.018 330.073 364.946 322.777 364.946C315.482 364.946 310.118 360.005 310.118 353.221ZM327.808 353.221C327.808 349.726 325.555 347.614 322.777 347.614C320 347.614 317.747 349.726 317.747 353.221C317.747 356.715 319.987 358.827 322.777 358.827C325.568 358.827 327.808 356.702 327.808 353.221Z" fill="#F2787C"/>
<path d="M337.28 353.221C337.28 346.334 342.566 341.496 349.773 341.496C351.682 341.395 353.589 341.749 355.335 342.527C357.082 343.306 358.619 344.488 359.821 345.976L355.046 350.238C354.493 349.454 353.761 348.812 352.911 348.367C352.061 347.922 351.116 347.686 350.157 347.678C347.008 347.678 344.896 349.854 344.896 353.285C344.896 356.715 347.008 358.891 350.157 358.891C351.124 358.877 352.073 358.63 352.924 358.171C353.775 357.712 354.503 357.054 355.046 356.254L359.821 360.517C358.622 362.008 357.086 363.194 355.339 363.975C353.592 364.756 351.684 365.111 349.773 365.009C342.566 364.945 337.28 360.107 337.28 353.221Z" fill="#F2787C"/>
<path d="M371.123 356.997L369.434 358.891V364.433H361.997V342.008H369.434V350.149L376.794 342.008H385.024L376.064 351.877L385.485 364.433H376.742L371.123 356.997Z" fill="#F2787C"/>
<path d="M141.069 71.7231H433.805C435.251 71.7231 436.638 72.2976 437.66 73.3202C438.683 74.3428 439.258 75.7298 439.258 77.1759V98.1423H135.616V77.1888C135.614 76.4716 135.754 75.7611 136.027 75.0981C136.301 74.4351 136.702 73.8324 137.209 73.3247C137.715 72.8171 138.317 72.4143 138.979 72.1394C139.642 71.8646 140.352 71.7231 141.069 71.7231Z" fill="#005D2D"/>
<path d="M181.184 84.9454C181.184 85.8219 181.444 86.6787 181.931 87.4073C182.419 88.1359 183.111 88.7035 183.921 89.0383C184.731 89.3731 185.622 89.4601 186.482 89.2882C187.341 89.1162 188.13 88.6932 188.749 88.0725C189.368 87.4518 189.789 86.6615 189.958 85.8016C190.128 84.9416 190.038 84.0507 189.701 83.2417C189.364 82.4327 188.794 81.7419 188.064 81.2568C187.334 80.7717 186.476 80.5141 185.6 80.5166C185.019 80.5149 184.442 80.6284 183.905 80.8505C183.368 81.0727 182.88 81.399 182.469 81.8108C182.059 82.2225 181.734 82.7116 181.513 83.2496C181.292 83.7876 181.181 84.364 181.184 84.9454Z" fill="#08D57F"/>
<path d="M167.04 84.9454C167.04 85.8214 167.3 86.6776 167.786 87.4059C168.273 88.1342 168.965 88.7019 169.774 89.0371C170.583 89.3723 171.474 89.46 172.333 89.2891C173.192 89.1182 173.981 88.6964 174.6 88.077C175.22 87.4577 175.642 86.6685 175.813 85.8094C175.983 84.9503 175.896 84.0599 175.561 83.2506C175.225 82.4413 174.658 81.7496 173.929 81.263C173.201 80.7764 172.345 80.5166 171.469 80.5166C170.887 80.5149 170.31 80.6283 169.772 80.8503C169.234 81.0723 168.745 81.3984 168.333 81.81C167.922 82.2216 167.596 82.7105 167.374 83.2486C167.152 83.7867 167.038 84.3634 167.04 84.9454Z" fill="#FED512"/>
<path d="M152.96 84.9454C152.96 85.8214 153.22 86.6776 153.706 87.4059C154.193 88.1342 154.885 88.7019 155.694 89.0371C156.503 89.3723 157.394 89.46 158.253 89.2891C159.112 89.1182 159.901 88.6964 160.52 88.077C161.14 87.4577 161.562 86.6685 161.732 85.8094C161.903 84.9503 161.816 84.0599 161.48 83.2506C161.145 82.4413 160.578 81.7496 159.849 81.263C159.121 80.7764 158.265 80.5166 157.389 80.5166C156.807 80.5149 156.23 80.6283 155.692 80.8503C155.154 81.0723 154.665 81.3984 154.253 81.81C153.842 82.2216 153.516 82.7105 153.294 83.2486C153.072 83.7867 152.958 84.3634 152.96 84.9454Z" fill="#F2787C"/>
<g filter="url(#filter1_d_5_5)">
<path d="M135.616 98.155H439.27V261.189C439.27 262.635 438.696 264.022 437.673 265.044C436.651 266.067 435.264 266.641 433.818 266.641H141.069C139.623 266.641 138.236 266.067 137.213 265.044C136.19 264.022 135.616 262.635 135.616 261.189V98.155Z" fill="white"/>
</g>
<path opacity="0.16" d="M408.909 79.915H212.429V89.963H408.909V79.915Z" fill="white"/>
<path d="M294.682 245.074C282.22 245.076 270.038 241.383 259.675 234.461C249.313 227.539 241.235 217.7 236.465 206.188C231.695 194.675 230.447 182.006 232.877 169.784C235.308 157.562 241.308 146.335 250.12 137.523C258.932 128.711 270.159 122.711 282.381 120.28C294.603 117.85 307.272 119.098 318.784 123.868C330.297 128.639 340.136 136.716 347.058 147.078C353.98 157.441 357.673 169.623 357.67 182.085C357.65 198.784 351.007 214.794 339.199 226.602C327.391 238.41 311.381 245.053 294.682 245.074ZM294.682 131.576C284.692 131.576 274.927 134.538 266.62 140.088C258.314 145.638 251.841 153.527 248.018 162.756C244.195 171.985 243.194 182.141 245.143 191.939C247.092 201.736 251.903 210.736 258.967 217.8C266.03 224.864 275.03 229.674 284.828 231.623C294.626 233.572 304.781 232.572 314.011 228.749C323.24 224.926 331.128 218.452 336.678 210.146C342.228 201.84 345.19 192.074 345.19 182.085C345.16 168.704 339.827 155.881 330.359 146.426C320.892 136.97 308.062 131.653 294.682 131.64V131.576Z" fill="#F2787C"/>
<path d="M330.398 137.479L249.519 217.069L258.282 225.973L339.16 146.383L330.398 137.479Z" fill="#F2787C"/>
<path d="M254.08 41.8608H150.95C145.498 41.8608 140.27 39.695 136.415 35.8398C132.559 31.9847 130.394 26.756 130.394 21.304C130.41 15.8643 132.584 10.6533 136.438 6.81401C140.292 2.97473 145.511 0.820563 150.95 0.823979H254.08C259.52 0.820563 264.739 2.97473 268.592 6.81401C272.446 10.6533 274.62 15.8643 274.637 21.304C274.637 26.756 272.471 31.9847 268.616 35.8398C264.761 39.695 259.532 41.8608 254.08 41.8608Z" fill="#F2787C"/>
<path d="M157.734 26.8207L159.014 24.0559C160.56 25.1177 162.387 25.6927 164.262 25.7071C166.438 25.7071 167.322 24.9903 167.322 24.0047C167.322 21.0351 158.08 23.0831 158.08 17.1823C158.08 14.4815 160.269 12.2287 164.774 12.2287C166.707 12.1854 168.615 12.6724 170.291 13.6367L169.126 16.4399C167.795 15.6386 166.277 15.1974 164.723 15.1599C162.534 15.1599 161.702 15.9663 161.702 16.9647C161.702 19.8959 170.944 17.8735 170.944 23.7103C170.944 26.3599 168.742 28.6383 164.198 28.6383C161.909 28.7005 159.655 28.0667 157.734 26.8207Z" fill="#FFFFDD"/>
<path d="M178.445 23.5951L176.742 25.2847V28.3823H173.197V11.5503H176.742V21.0863L181.862 16.1839H186.086L180.966 21.3039L186.496 28.3311H182.208L178.445 23.5951Z" fill="#FFFFDD"/>
<path d="M187.648 12.4974C187.654 12.2204 187.717 11.9476 187.832 11.6958C187.948 11.444 188.114 11.2188 188.321 11.0339C188.527 10.8491 188.769 10.7087 189.032 10.6213C189.295 10.534 189.574 10.5016 189.85 10.5262C190.121 10.4961 190.397 10.5225 190.658 10.6038C190.919 10.6851 191.16 10.8195 191.367 10.9986C191.574 11.1777 191.741 11.3976 191.859 11.6445C191.977 11.8915 192.042 12.1601 192.051 12.4335C191.992 12.9764 191.735 13.4786 191.329 13.8434C190.923 14.2083 190.396 14.4101 189.85 14.4101C189.303 14.4101 188.777 14.2083 188.37 13.8434C187.964 13.4786 187.707 12.9764 187.648 12.4335V12.4974ZM188.083 16.1838H191.629V28.3822H188.083V16.1838Z" fill="#FFFFDD"/>
<path d="M208.218 22.2894C208.266 23.1111 208.143 23.9337 207.856 24.7053C207.569 25.4768 207.126 26.1804 206.553 26.7713C205.98 27.3622 205.29 27.8276 204.528 28.138C203.766 28.4484 202.947 28.5969 202.125 28.5742C201.442 28.605 200.76 28.4883 200.126 28.2321C199.492 27.9759 198.921 27.5862 198.451 27.0894V32.7854H194.918V16.1454H198.298V17.5534C198.773 17.0113 199.366 16.5852 200.032 16.3079C200.698 16.0306 201.418 15.9093 202.138 15.9534C202.964 15.932 203.785 16.0832 204.55 16.3975C205.314 16.7117 206.005 17.1821 206.577 17.7784C207.149 18.3748 207.591 19.0841 207.873 19.8608C208.156 20.6376 208.273 21.4648 208.218 22.2894ZM204.621 22.2894C204.569 21.6879 204.342 21.1146 203.97 20.6394C203.597 20.1642 203.095 19.8077 202.523 19.6134C201.951 19.419 201.336 19.3953 200.751 19.545C200.166 19.6947 199.637 20.0114 199.229 20.4565C198.821 20.9015 198.552 21.4557 198.453 22.0514C198.355 22.6471 198.432 23.2586 198.675 23.8112C198.918 24.3638 199.317 24.8337 199.823 25.1635C200.329 25.4934 200.919 25.6689 201.523 25.6686C201.955 25.6724 202.383 25.5853 202.78 25.413C203.176 25.2407 203.532 24.987 203.824 24.6684C204.116 24.3498 204.338 23.9734 204.475 23.5636C204.612 23.1537 204.662 22.7197 204.621 22.2894Z" fill="#FFFFDD"/>
<path d="M227.699 24.9904H220.326L218.918 28.3824H215.142L222.234 12.4976H225.92L233.024 28.3824H229.184L227.699 24.9904ZM226.547 22.1872L223.987 16.1072L221.427 22.1872H226.547Z" fill="#FFFFDD"/>
<path d="M246.694 11.5503V28.3823H243.302V26.9871C242.827 27.5284 242.233 27.9531 241.567 28.2283C240.902 28.5036 240.181 28.6219 239.462 28.5743C237.843 28.5012 236.314 27.8065 235.194 26.6347C234.074 25.4628 233.449 23.9042 233.449 22.2831C233.449 20.662 234.074 19.1034 235.194 17.9315C236.314 16.7597 237.843 16.065 239.462 15.9919C240.144 15.9596 240.824 16.0756 241.456 16.332C242.088 16.5883 242.657 16.9789 243.123 17.4767V11.5503H246.694ZM243.213 22.2895C243.163 21.6846 242.938 21.1074 242.566 20.6283C242.193 20.1492 241.689 19.789 241.115 19.5918C240.541 19.3946 239.922 19.3689 239.334 19.5178C238.745 19.6667 238.213 19.9838 237.802 20.4303C237.391 20.8769 237.119 21.4335 237.019 22.0321C236.92 22.6308 236.996 23.2455 237.24 23.8012C237.484 24.3569 237.885 24.8294 238.393 25.1611C238.902 25.4928 239.495 25.6691 240.102 25.6687C240.535 25.6723 240.964 25.5852 241.361 25.413C241.758 25.2408 242.114 24.9874 242.407 24.669C242.7 24.3507 242.923 23.9744 243.062 23.5646C243.201 23.1548 243.252 22.7204 243.213 22.2895Z" fill="#FFFFDD"/>
<path d="M289.843 14.6992L292.877 51.512L301.568 41.272L309.542 53.9568L314.33 50.9616L306.65 38.7376L319.45 37.688L289.843 14.6992Z" fill="#FFFFDD"/>
<path d="M405.568 179H566.272C567.718 179 569.105 179.575 570.128 180.597C571.15 181.62 571.725 183.007 571.725 184.453V205.419H400.102V184.466C400.101 183.747 400.241 183.036 400.515 182.372C400.789 181.708 401.192 181.105 401.699 180.597C402.207 180.089 402.811 179.687 403.474 179.413C404.138 179.139 404.85 178.998 405.568 179Z" fill="#005D2D"/>
<path d="M445.67 192.209C445.668 193.086 445.925 193.943 446.411 194.673C446.896 195.403 447.586 195.973 448.395 196.31C449.204 196.647 450.095 196.737 450.955 196.568C451.815 196.398 452.606 195.977 453.226 195.358C453.847 194.74 454.27 193.95 454.442 193.091C454.614 192.232 454.527 191.34 454.192 190.53C453.857 189.72 453.29 189.028 452.561 188.541C451.832 188.054 450.976 187.793 450.099 187.793C448.927 187.793 447.802 188.258 446.972 189.086C446.142 189.914 445.674 191.037 445.67 192.209Z" fill="#08D57F"/>
<path d="M431.565 192.209C431.562 193.086 431.82 193.943 432.305 194.673C432.79 195.403 433.481 195.973 434.29 196.31C435.099 196.647 435.99 196.737 436.85 196.568C437.71 196.398 438.5 195.977 439.121 195.358C439.741 194.74 440.164 193.95 440.336 193.091C440.508 192.232 440.421 191.34 440.086 190.53C439.752 189.72 439.184 189.028 438.455 188.541C437.727 188.054 436.87 187.793 435.994 187.793C434.821 187.793 433.697 188.258 432.866 189.086C432.036 189.914 431.568 191.037 431.565 192.209Z" fill="#FED512"/>
<path d="M417.459 192.209C417.457 193.087 417.715 193.945 418.2 194.675C418.686 195.405 419.377 195.975 420.187 196.311C420.997 196.648 421.889 196.737 422.749 196.567C423.609 196.396 424.399 195.974 425.02 195.354C425.64 194.734 426.062 193.943 426.232 193.083C426.403 192.223 426.314 191.331 425.977 190.522C425.64 189.712 425.071 189.02 424.34 188.535C423.61 188.049 422.752 187.791 421.875 187.793C420.704 187.793 419.581 188.259 418.753 189.087C417.924 189.915 417.459 191.038 417.459 192.209Z" fill="#F2787C"/>
<g filter="url(#filter2_bd_5_5)">
<path d="M400.102 205.419H571.738V346.462C571.738 347.909 571.163 349.296 570.14 350.318C569.118 351.341 567.731 351.915 566.285 351.915H405.568C404.122 351.915 402.735 351.341 401.712 350.318C400.69 349.296 400.115 347.909 400.115 346.462V205.419H400.102Z" fill="white"/>
</g>
<path opacity="0.16" d="M546.496 187.192H476.915V197.24H546.496V187.192Z" fill="white"/>
<path d="M485.926 229.573C485.926 229.573 473.024 246.955 446.643 251.461L451.072 282.68C452.278 291.153 456.445 298.925 462.835 304.619L485.875 325.176" fill="#F2787C"/>
<path d="M485.926 229.573C485.926 229.573 498.816 246.955 525.197 251.461L520.768 282.68C519.562 291.153 515.394 298.925 509.005 304.619L485.965 325.176" fill="#F2787C"/>
<path d="M473.234 258.357L466.288 265.313L498.623 297.602L505.569 290.646L473.234 258.357Z" fill="white"/>
<path d="M498.621 258.3L466.286 290.589L473.233 297.545L505.567 265.256L498.621 258.3Z" fill="white"/>
<path d="M37.9648 125.995H188.915C190.361 125.995 191.748 126.57 192.771 127.592C193.793 128.615 194.368 130.002 194.368 131.448V152.414H32.4992V131.461C32.4975 130.743 32.6377 130.031 32.9118 129.367C33.1858 128.703 33.5884 128.1 34.0962 127.592C34.6041 127.084 35.2073 126.682 35.8712 126.408C36.5351 126.134 37.2465 125.993 37.9648 125.995Z" fill="#005D2D"/>
<path d="M78.0672 139.205C78.0647 140.079 78.3208 140.933 78.8031 141.662C79.2855 142.391 79.9725 142.96 80.7778 143.299C81.5831 143.638 82.4707 143.731 83.3288 143.567C84.187 143.403 84.9773 142.988 85.6005 142.376C86.2236 141.763 86.6516 140.98 86.8307 140.125C87.0098 139.27 86.9319 138.381 86.6069 137.57C86.2819 136.759 85.7242 136.062 85.0041 135.567C84.284 135.072 83.4336 134.801 82.56 134.789C81.9741 134.78 81.3923 134.888 80.8484 135.106C80.3045 135.324 79.8093 135.648 79.3914 136.059C78.9735 136.469 78.6413 136.959 78.414 137.499C78.1867 138.039 78.0688 138.619 78.0672 139.205Z" fill="#08D57F"/>
<path d="M63.9616 139.205C63.959 140.082 64.2169 140.94 64.7026 141.67C65.1883 142.4 65.8798 142.97 66.6896 143.307C67.4994 143.643 68.3909 143.732 69.2512 143.562C70.1115 143.391 70.9018 142.969 71.522 142.349C72.1421 141.729 72.5642 140.939 72.7347 140.078C72.9052 139.218 72.8164 138.326 72.4796 137.517C72.1428 136.707 71.5731 136.015 70.8429 135.53C70.1126 135.044 69.2546 134.786 68.3776 134.789C67.2064 134.789 66.0831 135.254 65.255 136.082C64.4268 136.91 63.9616 138.033 63.9616 139.205Z" fill="#FED512"/>
<path d="M49.8432 139.205C49.8406 140.081 50.0982 140.939 50.5833 141.669C51.0684 142.399 51.7592 142.968 52.5682 143.306C53.3773 143.643 54.2682 143.732 55.1281 143.563C55.988 143.393 56.7784 142.973 57.399 142.354C58.0197 141.735 58.4428 140.946 58.6147 140.086C58.7866 139.227 58.6997 138.336 58.3648 137.526C58.03 136.716 57.4624 136.023 56.7338 135.536C56.0052 135.049 55.1484 134.789 54.272 134.789C53.0996 134.789 51.975 135.254 51.1448 136.081C50.3146 136.909 49.8465 138.032 49.8432 139.205Z" fill="#F2787C"/>
<g filter="url(#filter3_bd_5_5)">
<path d="M32.4991 152.427H194.381V280.504C194.381 281.95 193.806 283.337 192.784 284.36C191.761 285.382 190.374 285.957 188.928 285.957H37.9647C36.5186 285.957 35.1316 285.382 34.109 284.36C33.0864 283.337 32.5119 281.95 32.5119 280.504V152.427H32.4991Z" fill="white"/>
</g>
<path opacity="0.16" d="M176.832 134.187H109.312V144.235H176.832V134.187Z" fill="white"/>
<path d="M145.993 234.812C154.619 214.559 145.194 191.148 124.941 182.522C104.687 173.896 81.2762 183.321 72.6501 203.574C64.0239 223.827 73.4494 247.239 93.7025 255.865C113.956 264.491 137.367 255.066 145.993 234.812Z" fill="#F2787C"/>
<path d="M123.315 239.954C122.704 239.956 122.099 239.824 121.544 239.568C120.989 239.311 120.497 238.936 120.102 238.469L92.1088 205.342C91.7287 204.926 91.4365 204.437 91.2496 203.904C91.0627 203.372 90.985 202.808 91.0211 202.245C91.0571 201.682 91.2063 201.132 91.4596 200.628C91.713 200.124 92.0653 199.676 92.4955 199.311C92.9257 198.946 93.4251 198.672 93.9637 198.504C94.5023 198.337 95.0692 198.28 95.6304 198.336C96.1917 198.392 96.7359 198.561 97.2304 198.833C97.7249 199.104 98.1597 199.472 98.5088 199.915L126.515 233.042C127.033 233.653 127.366 234.401 127.472 235.195C127.579 235.989 127.457 236.798 127.119 237.525C126.781 238.252 126.242 238.867 125.566 239.297C124.889 239.728 124.104 239.955 123.302 239.954H123.315Z" fill="white"/>
<path d="M95.36 239.954C94.5571 239.958 93.7699 239.732 93.0922 239.301C92.4144 238.871 91.8747 238.255 91.5375 237.526C91.2002 236.798 91.0795 235.988 91.1899 235.193C91.3003 234.397 91.637 233.651 92.16 233.042L120.154 199.915C120.902 199.172 121.902 198.738 122.955 198.696C124.009 198.655 125.039 199.011 125.844 199.692C126.648 200.374 127.167 201.333 127.298 202.379C127.43 203.425 127.164 204.483 126.554 205.342L98.5216 238.469C98.1332 238.93 97.6494 239.302 97.1036 239.558C96.5578 239.814 95.9629 239.949 95.36 239.954Z" fill="white"/>
<path d="M425.254 35.7935H526.08C527.526 35.7935 528.913 36.368 529.936 37.3906C530.958 38.4132 531.533 39.8001 531.533 41.2463V62.2127H419.789V41.2591C419.787 40.5408 419.927 39.8294 420.201 39.1655C420.475 38.5016 420.878 37.8984 421.386 37.3905C421.894 36.8827 422.497 36.4801 423.161 36.2061C423.825 35.932 424.536 35.7918 425.254 35.7935Z" fill="#005D2D"/>
<path d="M465.357 49.016C465.357 49.8919 465.617 50.7482 466.103 51.4765C466.59 52.2048 467.281 52.7724 468.091 53.1076C468.9 53.4428 469.79 53.5305 470.65 53.3596C471.509 53.1888 472.298 52.767 472.917 52.1476C473.537 51.5282 473.958 50.7391 474.129 49.88C474.3 49.0209 474.212 48.1304 473.877 47.3211C473.542 46.5119 472.974 45.8202 472.246 45.3335C471.518 44.8469 470.661 44.5872 469.786 44.5872C468.611 44.5872 467.485 45.0538 466.654 45.8843C465.823 46.7149 465.357 47.8414 465.357 49.016Z" fill="#08D57F"/>
<path d="M451.2 49.016C451.2 49.8925 451.46 50.7492 451.947 51.4778C452.435 52.2064 453.127 52.774 453.937 53.1089C454.747 53.4437 455.638 53.5306 456.498 53.3587C457.357 53.1868 458.146 52.7637 458.765 52.1431C459.384 51.5224 459.805 50.7321 459.974 49.8721C460.144 49.0122 460.054 48.1213 459.717 47.3123C459.38 46.5032 458.81 45.8124 458.08 45.3273C457.35 44.8422 456.493 44.5846 455.616 44.5872C454.444 44.5906 453.32 45.0587 452.493 45.8889C451.665 46.7191 451.2 47.8436 451.2 49.016Z" fill="#FED512"/>
<path d="M437.12 49.016C437.12 49.8925 437.38 50.7492 437.867 51.4778C438.354 52.2064 439.047 52.774 439.857 53.1089C440.667 53.4437 441.558 53.5306 442.417 53.3587C443.277 53.1868 444.066 52.7637 444.685 52.1431C445.304 51.5224 445.725 50.7321 445.894 49.8721C446.063 49.0122 445.974 48.1213 445.637 47.3123C445.3 46.5032 444.73 45.8124 444 45.3273C443.27 44.8422 442.412 44.5846 441.536 44.5872C440.955 44.5872 440.38 44.7018 439.843 44.9245C439.306 45.1473 438.819 45.4737 438.409 45.8851C437.999 46.2965 437.674 46.7849 437.452 47.3221C437.231 47.8594 437.118 48.435 437.12 49.016Z" fill="#F2787C"/>
<g filter="url(#filter4_bd_5_5)">
<path d="M419.789 62.2256H531.533V158.226C531.533 159.672 530.958 161.059 529.936 162.081C528.913 163.104 527.526 163.678 526.08 163.678H425.254C423.808 163.678 422.421 163.104 421.399 162.081C420.376 161.059 419.802 159.672 419.802 158.226V62.2256H419.789Z" fill="white"/>
</g>
<path opacity="0.16" d="M511.782 43.9856H496.602V54.0336H511.782V43.9856Z" fill="white"/>
<path d="M467.149 135.915C467.149 131.141 470.886 127.582 476.109 127.582C481.331 127.582 485.069 131.141 485.069 135.915C485.069 138.291 484.125 140.57 482.444 142.251C480.764 143.931 478.485 144.875 476.109 144.875C473.732 144.875 471.453 143.931 469.773 142.251C468.093 140.57 467.149 138.291 467.149 135.915ZM467.43 78.1743H484.838L481.92 120.939H470.31L467.43 78.1743Z" fill="#F2787C"/>
<defs>
<filter id="filter0_bd_5_5" x="133.03" y="290.661" width="328.141" height="134.464" filterUnits="userSpaceOnUse" color-interpolation-filters="sRGB">
<feFlood flood-opacity="0" result="BackgroundImageFix"/>
<feGaussianBlur in="BackgroundImage" stdDeviation="4"/>
<feComposite in2="SourceAlpha" operator="in" result="effect1_backgroundBlur_5_5"/>
<feColorMatrix in="SourceAlpha" type="matrix" values="0 0 0 0 0 0 0 0 0 0 0 0 0 0 0 0 0 0 127 0" result="hardAlpha"/>
<feOffset dy="4"/>
<feGaussianBlur stdDeviation="16"/>
<feComposite in2="hardAlpha" operator="out"/>
<feColorMatrix type="matrix" values="0 0 0 0 0 0 0 0 0 0.462745 0 0 0 0 0.270588 0 0 0 0.48 0"/>
<feBlend mode="normal" in2="effect1_backgroundBlur_5_5" result="effect2_dropShadow_5_5"/>
<feBlend mode="normal" in="SourceGraphic" in2="effect2_dropShadow_5_5" result="shape"/>
</filter>
<filter id="filter1_d_5_5" x="103.616" y="70.155" width="367.654" height="232.486" filterUnits="userSpaceOnUse" color-interpolation-filters="sRGB">
<feFlood flood-opacity="0" result="BackgroundImageFix"/>
<feColorMatrix in="SourceAlpha" type="matrix" values="0 0 0 0 0 0 0 0 0 0 0 0 0 0 0 0 0 0 127 0" result="hardAlpha"/>
<feOffset dy="4"/>
<feGaussianBlur stdDeviation="16"/>
<feComposite in2="hardAlpha" operator="out"/>
<feColorMatrix type="matrix" values="0 0 0 0 0 0 0 0 0 0.462745 0 0 0 0 0.270588 0 0 0 0.48 0"/>
<feBlend mode="normal" in2="BackgroundImageFix" result="effect1_dropShadow_5_5"/>
<feBlend mode="normal" in="SourceGraphic" in2="effect1_dropShadow_5_5" result="shape"/>
</filter>
<filter id="filter2_bd_5_5" x="368.102" y="177.419" width="235.635" height="210.496" filterUnits="userSpaceOnUse" color-interpolation-filters="sRGB">
<feFlood flood-opacity="0" result="BackgroundImageFix"/>
<feGaussianBlur in="BackgroundImage" stdDeviation="4"/>
<feComposite in2="SourceAlpha" operator="in" result="effect1_backgroundBlur_5_5"/>
<feColorMatrix in="SourceAlpha" type="matrix" values="0 0 0 0 0 0 0 0 0 0 0 0 0 0 0 0 0 0 127 0" result="hardAlpha"/>
<feOffset dy="4"/>
<feGaussianBlur stdDeviation="16"/>
<feComposite in2="hardAlpha" operator="out"/>
<feColorMatrix type="matrix" values="0 0 0 0 0 0 0 0 0 0.462745 0 0 0 0 0.270588 0 0 0 0.48 0"/>
<feBlend mode="normal" in2="effect1_backgroundBlur_5_5" result="effect2_dropShadow_5_5"/>
<feBlend mode="normal" in="SourceGraphic" in2="effect2_dropShadow_5_5" result="shape"/>
</filter>
<filter id="filter3_bd_5_5" x="0.499146" y="124.427" width="225.882" height="197.53" filterUnits="userSpaceOnUse" color-interpolation-filters="sRGB">
<feFlood flood-opacity="0" result="BackgroundImageFix"/>
<feGaussianBlur in="BackgroundImage" stdDeviation="4"/>
<feComposite in2="SourceAlpha" operator="in" result="effect1_backgroundBlur_5_5"/>
<feColorMatrix in="SourceAlpha" type="matrix" values="0 0 0 0 0 0 0 0 0 0 0 0 0 0 0 0 0 0 127 0" result="hardAlpha"/>
<feOffset dy="4"/>
<feGaussianBlur stdDeviation="16"/>
<feComposite in2="hardAlpha" operator="out"/>
<feColorMatrix type="matrix" values="0 0 0 0 0 0 0 0 0 0.462745 0 0 0 0 0.270588 0 0 0 0.48 0"/>
<feBlend mode="normal" in2="effect1_backgroundBlur_5_5" result="effect2_dropShadow_5_5"/>
<feBlend mode="normal" in="SourceGraphic" in2="effect2_dropShadow_5_5" result="shape"/>
</filter>
<filter id="filter4_bd_5_5" x="387.789" y="34.2256" width="175.744" height="165.453" filterUnits="userSpaceOnUse" color-interpolation-filters="sRGB">
<feFlood flood-opacity="0" result="BackgroundImageFix"/>
<feGaussianBlur in="BackgroundImage" stdDeviation="4"/>
<feComposite in2="SourceAlpha" operator="in" result="effect1_backgroundBlur_5_5"/>
<feColorMatrix in="SourceAlpha" type="matrix" values="0 0 0 0 0 0 0 0 0 0 0 0 0 0 0 0 0 0 127 0" result="hardAlpha"/>
<feOffset dy="4"/>
<feGaussianBlur stdDeviation="16"/>
<feComposite in2="hardAlpha" operator="out"/>
<feColorMatrix type="matrix" values="0 0 0 0 0 0 0 0 0 0.462745 0 0 0 0 0.270588 0 0 0 0.48 0"/>
<feBlend mode="normal" in2="effect1_backgroundBlur_5_5" result="effect2_dropShadow_5_5"/>
<feBlend mode="normal" in="SourceGraphic" in2="effect2_dropShadow_5_5" result="shape"/>
</filter>
</defs>
</svg>
