<svg width="560" height="518" viewBox="0 0 560 518" fill="none" xmlns="http://www.w3.org/2000/svg">
<g clip-path="url(#clip0_33_1724)">
<path d="M560 398.635C560 408.693 554.848 416.634 548.666 416.634H11.3339C5.15179 416.634 0 408.693 0 398.635C0 388.576 5.15179 380.635 11.3339 380.635H549.181C555.363 380.635 560 388.576 560 398.635Z" fill="#08D57F"/>
<path d="M240.589 498.69C240.589 505.043 236.468 509.808 231.831 509.808H139.099C134.462 509.808 130.341 504.514 130.341 498.69C130.341 492.338 134.462 487.573 139.099 487.573H231.316C236.468 487.044 240.589 492.338 240.589 498.69Z" fill="#05BE70"/>
<path d="M115.916 505.043C115.916 511.396 112.31 517.219 107.158 517.219H80.3684C75.7318 517.219 71.6104 511.925 71.6104 505.043C71.6104 498.69 75.2166 492.867 80.3684 492.867H107.158C111.794 492.867 115.916 498.161 115.916 505.043Z" fill="#05BE70"/>
<path d="M411.113 481.75C411.113 488.632 406.476 494.455 401.325 494.455H260.165C254.498 494.455 250.377 488.632 250.377 481.75C250.377 474.868 255.014 469.044 260.165 469.044H400.809C406.476 469.044 411.113 474.868 411.113 481.75Z" fill="#049A5B"/>
<path d="M463.661 447.868C463.661 457.927 457.479 466.397 449.236 466.397H51.5178C43.7901 466.397 37.0928 458.456 37.0928 447.868C37.0928 437.81 43.2749 429.34 51.5178 429.34H449.236C457.479 429.869 463.661 437.81 463.661 447.868Z" fill="#32FCA7"/>
<path d="M151.463 105.879C151.463 105.879 173.1 159.348 196.283 165.701L200.92 183.171C200.405 183.171 157.645 168.348 151.463 105.879Z" fill="#A16324"/>
<path opacity="0.1" d="M151.463 105.879C151.463 105.879 161.251 157.23 196.283 174.7L193.708 163.583C193.192 163.583 175.676 162.524 151.463 105.879Z" fill="black"/>
<path d="M147.342 263.109C147.342 263.109 168.979 316.578 192.162 322.931L196.799 340.401C196.284 340.931 153.524 325.578 147.342 263.109Z" fill="#A16324"/>
<path opacity="0.1" d="M147.342 263.109C147.342 263.109 157.13 314.461 192.162 331.931L189.587 320.813C189.071 320.813 171.555 319.755 147.342 263.109Z" fill="black"/>
<path d="M251.922 202.229C251.922 202.229 230.285 255.698 207.101 262.051L202.465 279.521C202.98 279.521 245.74 264.168 251.922 202.229Z" fill="#A16324"/>
<path opacity="0.1" d="M251.923 202.229C251.923 202.229 242.135 253.58 207.103 271.05L209.678 259.933C210.194 259.933 227.71 258.345 251.923 202.229Z" fill="black"/>
<path d="M197.398 115.209C195.314 115.321 193.668 117.016 193.615 119.102L186.088 417.152C186.03 419.455 187.924 421.331 190.226 421.251L212.349 420.48C214.568 420.403 216.3 418.533 216.206 416.314L203.667 118.923C203.573 116.697 201.679 114.977 199.455 115.097L197.398 115.209Z" fill="#A16324"/>
<path opacity="0.1" d="M200.734 114.879C199.134 114.879 197.84 116.183 197.854 117.784L200.372 416.374C200.39 418.569 202.175 420.34 204.371 420.34H212.203C214.479 420.34 216.296 418.445 216.2 416.171L203.612 117.638C203.547 116.096 202.278 114.879 200.734 114.879V114.879Z" fill="black"/>
<path d="M276.651 39.1752C272.53 39.1752 268.408 39.7046 264.287 40.7634C252.953 16.9406 226.164 0 194.738 0C168.979 0 146.311 11.1173 132.916 28.5873C128.795 27.5286 124.158 27.5286 120.037 27.5286C87.5803 27.5286 60.791 50.2925 60.791 78.8799C60.791 102.703 79.8526 122.82 105.096 128.643V130.231H276.136C304.986 130.231 328.169 110.114 328.169 85.2326C328.684 59.2923 305.501 39.1752 276.651 39.1752Z" fill="#08D57F"/>
<path d="M284.379 41C276.136 82.2928 221.012 114.057 154.554 114.057C118.491 114.057 86.0352 104.527 62.3369 89.7044C66.9735 108.763 83.9744 124.115 105.612 128.88V130.468H276.652C305.502 130.468 328.685 110.351 328.685 85.4692C328.685 63.2346 309.623 44.1764 284.379 41Z" fill="black" fill-opacity="0.08"/>
<path opacity="0.1" d="M277.682 39.1753C273.561 39.1753 269.439 39.7046 265.318 40.7634C253.984 16.9406 227.71 0.529395 196.799 0V129.702H277.682C306.532 129.702 329.715 109.585 329.715 84.7032C329.715 59.2923 306.532 39.1753 277.682 39.1753Z" fill="black"/>
<path d="M176.552 219.235C173.976 219.235 171.915 219.764 169.339 219.764C163.157 206.529 148.217 197 130.701 197C116.276 197 103.912 203.353 96.184 212.882C93.6081 212.352 91.5474 212.352 88.9715 212.352C70.425 212.352 56 225.058 56 240.94C56 254.175 66.8188 265.821 80.7286 268.998V270.057H176.552C192.523 270.057 205.917 258.939 205.917 244.646C205.917 230.352 192.523 219.235 176.552 219.235Z" fill="#08D57F"/>
<path d="M181.158 220C176.522 243.293 145.611 260.763 108.518 260.763C88.4259 260.763 69.8795 255.469 57 246.999C59.5759 257.587 68.8491 266.587 81.2134 269.234V270.293H177.037C193.007 270.293 206.402 259.175 206.402 244.882C205.887 232.705 195.068 222.118 181.158 220Z" fill="black" fill-opacity="0.08"/>
<path opacity="0.1" d="M177.222 219.17C174.646 219.17 172.585 219.699 170.009 219.699C163.827 206.464 148.887 196.935 131.886 196.935V269.462H177.222C193.192 269.462 206.587 258.345 206.587 244.051C206.587 230.287 193.707 219.17 177.222 219.17Z" fill="black"/>
<path d="M301.896 161.995C299.32 161.995 297.259 162.524 294.683 162.524C288.501 149.289 273.561 139.76 256.045 139.76C241.62 139.76 229.255 146.113 221.528 155.642C218.952 155.113 216.891 155.113 214.315 155.113C195.769 155.113 181.344 167.818 181.344 183.7C181.344 196.935 192.163 208.582 206.072 211.758V212.817H301.896C317.866 212.817 331.261 201.7 331.261 187.406C331.261 173.112 317.866 161.995 301.896 161.995Z" fill="#08D57F"/>
<path d="M306.017 162.524C301.38 185.818 270.469 203.288 233.376 203.288C213.284 203.288 194.738 197.994 181.858 189.524C184.434 200.111 193.707 209.111 206.072 211.758V212.817H301.895C317.866 212.817 331.26 201.7 331.26 187.406C331.26 174.701 320.442 164.113 306.017 162.524Z" fill="black" fill-opacity="0.08"/>
<path opacity="0.1" d="M302.41 161.995C299.834 161.995 297.773 162.524 295.197 162.524C289.015 149.289 274.075 139.76 257.074 139.76V212.288H302.41C318.381 212.288 331.775 201.17 331.775 186.877C331.775 173.112 318.381 161.995 302.41 161.995Z" fill="black"/>
<path d="M411.113 337.225C408.022 337.225 404.931 337.754 401.84 338.284C393.597 317.637 373.505 302.814 349.807 302.814C330.745 302.814 313.744 312.343 303.441 327.166C300.349 326.637 297.258 326.107 293.652 326.107C268.923 326.107 249.347 346.225 249.347 370.577C249.347 391.223 263.772 408.693 282.833 413.987V415.575H411.628C433.266 415.575 450.782 398.105 450.782 376.4C450.267 354.695 432.751 337.225 411.113 337.225Z" fill="#08D57F"/>
<path d="M416.78 337.225C410.597 373.224 369.383 400.752 318.895 400.752C292.106 400.752 267.377 392.811 249.861 379.576C253.468 396.517 265.832 409.752 282.318 413.987V415.575H411.113C432.75 415.575 450.266 398.105 450.266 376.4C450.266 356.812 435.841 340.401 416.78 337.225Z" fill="black" fill-opacity="0.08"/>
<path opacity="0.1" d="M411.628 337.225C408.537 337.225 405.446 337.754 402.355 338.284C394.112 317.637 374.02 303.344 350.837 303.344V416.105H411.628C433.266 416.105 450.782 398.635 450.782 376.929C450.782 354.695 433.266 337.225 411.628 337.225Z" fill="black"/>
<path d="M165.888 50.2926C174.13 47.6456 183.919 33.8813 180.828 25.411C177.737 16.9407 162.281 17.4701 154.038 20.117C145.796 22.764 142.189 32.2931 145.28 40.2341C148.371 48.7044 157.645 52.9396 165.888 50.2926Z" fill="white" fill-opacity="0.32"/>
<path d="M153.523 69.3508C151.462 71.9978 147.856 72.5272 144.765 70.4096C141.674 68.292 141.159 64.0568 142.704 61.4099C144.765 58.7629 148.371 58.2335 151.462 60.3511C154.553 62.4687 155.584 66.7038 153.523 69.3508Z" fill="white" fill-opacity="0.32"/>
<path d="M116.946 70.939C121.582 73.586 131.371 74.1154 133.431 69.8802C135.492 65.6451 129.31 58.2335 125.189 55.5865C120.552 52.9396 115.4 53.9984 112.824 58.2335C110.764 62.4687 112.309 68.292 116.946 70.939Z" fill="white" fill-opacity="0.32"/>
<path d="M329.715 356.283C337.958 353.636 347.746 339.872 344.655 331.401C341.564 322.931 326.108 323.461 317.866 326.108C309.623 328.755 306.016 338.284 309.108 346.225C312.714 354.695 321.987 359.459 329.715 356.283Z" fill="white" fill-opacity="0.32"/>
<path d="M317.35 375.341C315.289 377.988 311.683 378.518 308.592 376.4C305.501 374.282 304.986 370.047 306.531 367.4C308.592 364.753 312.198 364.224 315.29 366.342C318.381 368.459 319.411 372.694 317.35 375.341Z" fill="white" fill-opacity="0.32"/>
<path d="M280.773 377.459C285.409 380.106 295.198 380.635 297.258 376.4C299.319 372.165 293.137 364.753 289.016 362.106C284.379 359.459 279.227 360.518 276.651 364.753C274.591 368.988 276.136 374.282 280.773 377.459Z" fill="white" fill-opacity="0.32"/>
<path d="M136.008 363.165C136.008 363.165 178.768 380.635 181.859 421.928H190.102C190.102 421.928 185.98 373.753 136.008 363.165Z" fill="#049A5B"/>
<path d="M195.769 421.928C195.769 421.928 192.678 385.4 154.555 376.93C154.555 376.93 187.011 390.164 189.587 421.928H195.769Z" fill="#05BE70"/>
<path d="M242.134 362.636C242.134 362.636 199.374 380.106 196.283 421.399H188.041C187.525 421.399 191.647 373.753 242.134 362.636Z" fill="#049A5B"/>
<path d="M191.647 424.575C191.647 424.575 175.676 391.753 204.011 364.224C204.011 364.224 183.404 393.341 197.314 421.399L191.647 424.575Z" fill="#05BE70"/>
<path d="M196.283 343.578C196.283 343.578 173.615 384.87 195.768 419.281L189.586 424.575C189.586 424.575 163.312 384.341 196.283 343.578Z" fill="#32FCA7"/>
<path d="M188.556 384.87C188.556 384.87 213.799 395.458 215.86 419.81H220.497C220.497 419.281 217.921 391.223 188.556 384.87Z" fill="#049A5B"/>
<path d="M223.587 419.281C223.587 419.281 221.527 397.576 199.374 392.811C199.374 392.811 218.436 400.752 219.981 419.281H223.587Z" fill="#05BE70"/>
<path d="M250.892 384.87C250.892 384.87 225.649 395.458 223.588 419.81H218.951C218.951 419.281 221.527 391.223 250.892 384.87Z" fill="#049A5B"/>
<path d="M221.527 420.869C221.527 420.869 212.254 401.811 228.739 385.4C228.739 385.4 216.375 402.34 224.618 419.281L221.527 420.869Z" fill="#05BE70"/>
<path d="M224.103 373.224C224.103 373.224 210.709 397.576 223.588 417.693L219.982 420.869C219.982 420.869 204.526 397.576 224.103 373.224Z" fill="#32FCA7"/>
<path d="M500.239 424.045C500.239 431.986 495.602 437.81 489.42 437.81H89.641C83.4589 437.81 78.8223 431.457 78.8223 424.045C78.8223 416.105 83.4589 410.281 89.641 410.281H489.42C495.602 409.752 500.239 416.105 500.239 424.045Z" fill="#05BE70"/>
</g>
<defs>
<clipPath id="clip0_33_1724">
<rect width="560" height="517.907" fill="white"/>
</clipPath>
</defs>
</svg>
