<svg width="1440" height="762" viewBox="0 0 1440 762" fill="none" xmlns="http://www.w3.org/2000/svg">
<path d="M1283.53 473.963C1178.48 492.291 1065.68 504.509 953.987 513.877C935.188 515.506 916.388 516.728 897.589 518.357C905.329 509.397 907.541 499.622 914.176 491.069C929.658 472.741 957.305 456.857 979.422 439.751C981.633 438.121 981.634 435.678 978.316 434.049C952.881 422.644 921.917 445.453 913.07 450.747C896.483 460.929 882.106 470.297 867.73 480.886C861.095 485.774 854.46 493.105 846.719 499.214C835.661 506.953 829.025 515.506 819.073 523.244C819.073 523.652 817.967 523.652 817.967 524.059C676.417 533.834 534.868 542.387 401.059 563.566C397.742 563.973 394.424 563.566 393.318 562.344C372.307 535.87 378.942 506.138 387.789 479.257C394.424 456.449 430.918 435.27 429.812 412.462C414.33 410.426 398.848 410.019 383.366 412.462C380.048 416.128 376.731 419.793 373.413 423.459C363.46 437.714 355.719 451.969 346.873 466.224C330.285 460.929 317.014 454.006 302.638 447.896C283.839 439.751 260.616 431.605 247.346 421.83C239.605 416.128 226.334 415.721 217.488 420.608C207.535 426.31 236.287 440.972 244.028 445.045C249.557 448.304 255.087 451.562 261.722 455.227C282.733 467.853 310.379 479.665 333.602 490.254C324.755 513.469 323.65 537.092 305.956 559.9C289.368 580.264 263.933 597.778 224.123 613.255C174.359 632.397 99.161 641.765 36.1272 653.576C-18.0597 663.351 -70.0349 673.94 -119.798 686.566C-144.127 692.676 -167.35 699.599 -191.679 706.116C-201.632 710.189 -204.949 714.262 -204.949 718.742C-199.42 728.109 -191.679 737.07 -190.573 738.699C-187.256 742.365 -182.832 746.03 -177.303 749.288C-175.091 750.51 -172.879 751.325 -170.668 752.139C-152.974 759.063 -134.174 761.507 -114.269 761.1C10.6926 744.401 117.961 714.669 216.382 681.679C273.886 662.129 329.179 641.357 386.683 622.215C432.023 607.145 483.999 595.334 540.397 586.781C608.96 572.119 683.052 563.973 761.568 555.013C858.884 544.016 956.199 533.426 1054.62 522.837C1105.49 517.542 1155.25 511.433 1203.91 504.102C1231.56 500.029 1265.84 492.291 1297.91 490.254C1301.23 485.367 1294.59 478.85 1283.53 473.963Z" fill="#A16324"/>
<path d="M349.084 478.85C349.084 474.37 347.979 470.297 345.767 466.224C330.285 460.929 317.015 454.412 303.744 448.71C284.945 440.565 261.722 432.419 248.452 422.644C241.816 417.757 230.758 416.535 221.911 419.793C265.039 439.343 298.215 461.744 349.084 478.85Z" fill="black" fill-opacity="0.16"/>
<path d="M388.895 437.307C376.731 452.784 368.99 468.261 365.672 484.552C362.355 499.622 364.566 515.099 365.672 530.168C366.778 543.609 368.99 557.457 381.154 570.083C385.578 568.046 390.001 565.602 395.53 563.566C394.424 563.159 393.319 563.159 393.319 562.344C372.307 535.87 378.942 506.139 387.789 479.258C394.424 456.45 430.918 435.271 429.812 412.463C424.282 411.648 417.647 411.241 411.012 410.833C406.589 419.794 395.53 428.347 388.895 437.307Z" fill="black" fill-opacity="0.16"/>
<path d="M863.307 516.728C863.307 524.873 881 522.43 897.588 517.949H896.482C904.223 508.989 906.435 499.214 913.07 490.661C928.552 472.333 956.198 456.449 978.316 439.343C980.527 437.714 980.527 435.27 977.21 433.641C972.786 432.012 969.469 430.79 965.045 430.79C929.658 449.933 900.906 470.704 879.894 492.698C874.365 500.029 864.412 508.989 863.307 516.728Z" fill="black" fill-opacity="0.16"/>
<path d="M1272.47 482.923C1200.59 494.327 1128.71 506.953 1053.51 515.506C976.105 524.466 897.589 530.983 819.073 537.499C782.58 540.758 743.875 543.201 708.488 547.682C688.582 550.125 669.783 553.384 649.877 555.013C462.988 573.748 314.803 620.179 176.571 668.238C78.1501 702.043 -37.9648 743.994 -180.62 746.03C-178.408 747.659 -176.197 748.881 -173.985 750.103C-171.773 750.918 -169.562 752.139 -167.35 752.954C-149.656 759.878 -130.857 762.322 -110.951 761.914C14.0105 745.216 121.278 715.484 219.7 682.493C277.204 662.944 332.497 642.172 390.001 623.03C435.341 607.96 487.317 596.149 543.715 587.596C612.278 572.933 686.371 564.788 764.886 555.827C862.202 544.831 959.517 534.241 1057.94 523.652C1108.81 518.357 1158.57 512.248 1207.23 504.916C1234.87 500.844 1269.16 493.105 1301.23 491.069C1302.33 486.996 1300.12 482.923 1294.59 478.85C1286.85 480.479 1279.11 481.701 1272.47 482.923Z" fill="black" fill-opacity="0.16"/>
<path opacity="0.6" d="M273.887 457.264C256.193 447.082 236.288 437.714 220.806 427.125C230.758 436.9 247.346 445.453 262.828 454.006C282.733 465.41 304.851 477.221 330.285 486.589C331.391 486.996 331.391 486.182 331.391 486.182C311.486 477.221 291.58 467.446 273.887 457.264Z" fill="white" fill-opacity="0.16"/>
<path opacity="0.6" d="M390.001 413.685C373.413 431.605 353.508 450.34 351.296 469.483C351.296 469.89 352.402 469.89 352.402 469.483C360.143 450.748 377.836 432.42 390.001 413.685C391.107 413.685 390.001 413.685 390.001 413.685Z" fill="white" fill-opacity="0.16"/>
<path opacity="0.6" d="M302.639 575.377C291.58 585.966 286.051 596.149 266.145 605.516C246.24 614.477 219.699 623.437 192.053 629.546C145.607 639.728 101.373 649.91 52.7153 658.871C5.16354 667.831 -42.3882 676.384 -87.7283 686.566C-123.116 694.305 -168.456 703.672 -189.467 716.298C-189.467 715.891 -189.467 715.891 -190.573 715.891L-191.679 716.298C-191.679 716.705 -191.679 717.113 -190.573 716.705C-103.21 691.046 -4.78915 673.126 94.7378 654.391C141.184 645.43 187.63 635.248 227.44 623.03C245.134 617.735 265.04 610.811 276.098 603.887C290.474 594.927 296.004 584.745 304.85 574.97C303.745 574.97 302.639 574.97 302.639 575.377Z" fill="white" fill-opacity="0.16"/>
<path opacity="0.6" d="M805.802 529.761C738.345 530.983 668.676 536.278 603.431 542.387C569.149 545.645 534.868 548.089 500.586 552.162C464.093 556.642 432.023 563.973 396.636 569.675C428.706 565.602 459.67 559.9 492.845 555.828C529.338 551.347 565.832 547.682 603.431 544.424C670.888 538.314 738.345 533.427 805.802 530.169C806.908 530.576 806.908 529.761 805.802 529.761Z" fill="white" fill-opacity="0.16"/>
<path opacity="0.6" d="M930.764 445.045C911.965 456.042 893.165 467.039 876.577 478.85C858.883 491.883 838.978 506.546 829.025 520.801C829.025 521.208 830.131 521.615 831.237 521.208C859.989 494.734 892.059 469.483 930.764 445.045Z" fill="white" fill-opacity="0.16"/>
<path opacity="0.6" d="M1209.44 488.625C1159.68 494.734 1109.91 501.25 1060.15 506.545C1019.23 510.618 977.21 516.727 935.188 518.764C980.528 517.542 1025.87 511.433 1069 506.952C1116.55 502.065 1164.1 496.363 1209.44 489.439C1210.55 489.439 1210.55 488.625 1209.44 488.625Z" fill="white" fill-opacity="0.16"/>
<path fill-rule="evenodd" clip-rule="evenodd" d="M163.755 177.385C115.452 172.909 62.9992 178.371 30.1665 207.297C-4.90968 238.198 -15.8614 283.347 -2.47097 323.828C10.3896 362.708 50.9906 389.357 96.0827 406.572C140.716 423.612 191.394 431.279 236.496 415.061C283.132 398.29 321.488 364.269 327.468 323.366C332.943 285.915 295.069 256.9 263.706 228.934C235.795 204.046 205.089 181.214 163.755 177.385Z" fill="#049A5B"/>
<path fill-rule="evenodd" clip-rule="evenodd" d="M1162.51 569.206C1115.19 561.584 1082.53 527.008 1041.19 502.726C971.708 461.909 861.352 459.818 842.799 381.393C824.294 303.172 901.194 232.409 965.992 184.854C1021.92 143.81 1093.18 144.734 1162.51 146.753C1228.96 148.687 1294.9 155.881 1347.92 195.972C1409.72 242.697 1476.68 304.012 1472.84 381.393C1469.07 457.601 1395.68 509.797 1330.41 549.301C1280.29 579.636 1220.36 578.52 1162.51 569.206Z" fill="#049A5B"/>
<path fill-rule="evenodd" clip-rule="evenodd" d="M555.125 27.471C637.961 24.2776 725.919 -27.3295 794.225 19.643C867.92 70.3219 902.674 170.014 891.43 258.743C881.016 340.918 808.569 396.945 740.439 444.058C685.933 481.75 621.374 489.676 555.125 491.303C486.43 492.989 410.329 500.684 360.484 453.384C309.943 405.424 314.516 328.274 310.052 258.743C305.109 181.76 277.671 90.3384 333.775 37.3935C389.616 -15.3027 478.402 30.4287 555.125 27.471Z" fill="#05BE70"/>
<path fill-rule="evenodd" clip-rule="evenodd" d="M120.714 238.819C122.927 211.884 140.586 190.969 155.595 167.718C179.725 130.338 186.303 70.7519 233.225 64.5274C279.568 58.3798 315.246 107.387 348 138.037C380.137 168.109 415.21 196.921 419.481 238.819C423.971 282.856 398.941 329.356 358.561 353.613C322.232 375.435 276.107 357.091 233.225 350.701C200.483 345.823 165.438 343.836 142.965 321.488C121.141 299.786 118.298 268.24 120.714 238.819Z" fill="#08D57F"/>
<path fill-rule="evenodd" clip-rule="evenodd" d="M562.725 316.31C607.748 320.132 628.555 366.472 657.894 397.928C683.444 425.322 720.052 448.932 720 484.933C719.948 520.912 686.826 547.572 657.644 571.71C630.384 594.258 599.346 612.094 562.725 615.024C522.397 618.25 478.269 614.485 449.602 588.353C420.91 562.198 420.287 521.975 420.015 484.933C419.741 447.541 423.045 409.691 448.074 380.117C476.537 346.486 516.413 312.379 562.725 316.31Z" fill="#08D57F"/>
<path fill-rule="evenodd" clip-rule="evenodd" d="M1017.49 256.374C1007.83 297.899 960.165 312.518 924.638 335.013C900.468 350.317 876.026 365.07 847.606 363.939C820.253 362.85 797.451 346.92 776.356 329.111C752.131 308.658 722.874 288.35 720.2 256.374C717.405 222.962 744.558 197.768 763.055 170.057C788.971 131.23 802.416 74.3933 847.606 65.4942C895.073 56.1468 940.065 92.2714 972.573 128.798C1003.52 163.566 1028.11 210.667 1017.49 256.374Z" fill="#08D57F"/>
<path fill-rule="evenodd" clip-rule="evenodd" d="M1154.62 316.29C1184.18 312.607 1206.91 344.817 1231.25 367.561C1264.42 398.555 1313.61 416.542 1319.31 470.162C1325.17 525.171 1292.76 579.329 1256.72 606.862C1225.89 630.409 1189.85 601.683 1154.62 595.959C1126.69 591.421 1097.68 598.876 1074.62 577.278C1047.17 551.563 1016.51 514.733 1020.32 470.162C1024.07 426.324 1066.01 413.722 1091.05 385.034C1112.56 360.383 1126.43 319.804 1154.62 316.29Z" fill="#08D57F"/>
</svg>
