<svg width="1440" height="704" viewBox="0 0 1440 704" fill="none" xmlns="http://www.w3.org/2000/svg">
<path fill-rule="evenodd" clip-rule="evenodd" d="M1440 472L1380 480C1320 487 1200 501 1080 494C960 487 840 458 720 444C600 429 480 429 360 400C240 372 120 314 60 285L0 256V602H60C120 602 240 602 360 602C480 602 600 602 720 602C840 602 960 602 1080 602C1200 602 1320 602 1380 602H1440V472Z" fill="#05BE70"/>
<path fill-rule="evenodd" clip-rule="evenodd" d="M0 256L60 291.92C120 327.84 240 419.635 360 434.601C480 448.57 600 465.532 720 465.532C840 465.532 960 538.37 1080 545.354C1200 552.338 1320 524.401 1380 509.434L1440 495.465V704H1380C1320 704 1200 704 1080 704C960 704 840 704 720 704C600 704 480 704 360 704C240 704 120 704 60 704H3.4432e-05L0 256Z" fill="#049A5B"/>
<g clip-path="url(#clip0_113_80)">
<path d="M174.164 309.855C174.164 309.855 191.365 340.725 209.608 344.327L213.257 354.617C213.257 354.102 179.898 346.385 174.164 309.855Z" fill="#A16324"/>
<path opacity="0.1" d="M174.165 309.855C174.165 309.855 183.026 339.696 209.608 349.472L207.523 342.783C207.523 342.783 193.971 342.268 174.165 309.855Z" fill="black"/>
<path d="M244.531 307.282C244.531 307.282 229.415 339.181 211.694 343.812L208.566 354.102C208.566 354.102 240.883 344.326 244.531 307.282Z" fill="#A16324"/>
<path opacity="0.1" d="M244.531 307.282C244.531 307.282 237.755 337.638 211.694 348.957L213.257 342.268C213.779 342.268 227.331 341.239 244.531 307.282Z" fill="black"/>
<path d="M202.311 273.325C202.833 287.216 216.906 297.506 234.107 296.992C251.307 296.477 264.859 284.644 264.338 271.267C263.817 257.375 249.743 247.085 232.543 247.599C215.342 248.114 201.79 259.433 202.311 273.325Z" fill="#08D57F"/>
<path d="M178.856 257.889C179.377 270.752 192.929 281.042 209.088 280.528C225.246 280.013 238.277 269.209 237.755 256.346C237.234 243.483 223.682 233.193 207.524 233.708C190.845 233.708 178.335 245.027 178.856 257.889Z" fill="#08D57F"/>
<path d="M216.906 300.079C217.427 312.942 230.458 322.717 246.616 322.203C262.774 321.688 275.284 310.884 274.763 298.021C274.241 285.158 261.211 275.383 245.052 275.897C228.894 276.926 216.385 287.731 216.906 300.079Z" fill="#08D57F"/>
<path d="M183.547 299.564C184.069 312.427 197.099 322.203 213.258 321.688C229.416 321.174 241.925 310.369 241.404 298.021C240.883 285.158 227.852 275.383 211.694 275.897C195.536 276.412 183.026 286.702 183.547 299.564Z" fill="#08D57F"/>
<path d="M147.061 276.926C147.582 289.789 160.613 299.564 176.771 299.05C192.93 298.535 205.439 287.731 204.918 275.383C204.397 262.52 191.366 252.744 175.208 253.259C159.049 253.259 146.54 264.064 147.061 276.926Z" fill="#08D57F"/>
<path d="M146.018 303.68C146.539 316.543 159.57 326.319 175.728 325.804C191.887 325.29 204.396 314.485 203.875 302.137C203.354 289.274 190.323 279.499 174.165 280.013C158.007 280.013 145.497 290.818 146.018 303.68Z" fill="#08D57F"/>
<path d="M151.752 288.76C149.146 285.158 147.061 281.042 147.061 276.926C146.54 265.607 156.443 255.831 169.474 253.259C168.952 255.831 168.952 258.918 168.952 262.005C169.995 288.76 197.099 309.854 229.937 308.825C247.137 308.311 262.253 301.622 273.199 291.332C274.241 293.39 274.763 295.963 274.763 298.021C275.284 310.883 262.774 321.688 246.616 322.203C239.84 322.203 233.064 320.659 228.373 317.572C224.203 319.63 218.991 321.174 213.257 321.688C207.002 321.688 201.269 320.659 196.057 317.572C190.844 322.203 183.547 325.29 175.729 325.29C159.57 325.804 146.539 316.029 146.018 303.166C145.497 298.021 148.103 292.876 151.752 288.76Z" fill="black" fill-opacity="0.08"/>
<path d="M235.67 298.021C235.67 298.021 232.543 313.971 214.299 319.63V315.514C213.778 315 221.597 316.543 235.67 298.021Z" fill="#A16324"/>
<path opacity="0.1" d="M235.67 298.021C235.67 298.021 227.851 315 214.299 317.572V315.514C213.778 315 222.639 315.514 235.67 298.021Z" fill="black"/>
<path d="M197.098 308.825C197.098 308.825 199.705 318.087 210.65 320.659V318.087C210.129 318.601 205.959 319.63 197.098 308.825Z" fill="#A16324"/>
<path opacity="0.1" d="M197.098 308.825C197.098 308.825 202.311 318.601 210.65 319.63V318.087C210.129 318.601 204.917 319.116 197.098 308.825Z" fill="black"/>
<path opacity="0.1" d="M151.752 288.76C149.146 285.158 147.061 281.557 147.061 276.926C146.54 264.064 159.049 253.773 175.207 253.259C176.771 253.259 177.814 253.259 179.377 253.259C181.462 242.454 193.45 234.222 207.524 233.708C208.045 233.708 208.566 233.708 209.087 233.708L212.215 322.203C206.481 322.203 201.269 320.659 196.578 318.601C191.366 323.232 184.068 326.319 176.25 326.319C160.092 326.833 147.061 317.058 146.54 304.195C145.497 298.021 147.582 292.876 151.752 288.76Z" fill="black"/>
<path d="M212.189 311.688C213.107 311.818 213.799 312.563 213.83 313.49C214.072 320.675 215.172 350.519 217.128 363.763C217.543 366.573 215.372 369.792 212.541 370.025L204.989 370.646C202.341 370.864 200.214 368.508 200.722 365.9C203.081 353.803 208.811 323.934 209.952 313.454C210.073 312.343 211.082 311.532 212.189 311.688V311.688Z" fill="#A16324"/>
<path opacity="0.1" d="M210.829 311.398C211.302 311.398 211.679 311.79 211.663 312.261L209.739 366.389C209.665 368.462 208.02 370.134 205.949 370.242L204.724 370.306C202.156 370.439 200.131 368.149 200.577 365.617L210.008 312.087C210.078 311.689 210.425 311.398 210.829 311.398V311.398Z" fill="black"/>
<path d="M414.453 169.273C414.453 152.808 422.272 138.402 433.739 128.627C429.569 120.909 426.963 112.162 426.963 102.901C426.963 75.1179 448.854 52.4796 475.959 52.4796C475.959 52.4796 475.959 52.4796 476.48 52.4796C487.426 22.1238 517.136 0 552.058 0C595.842 0 631.807 34.4719 631.807 77.176C631.807 80.7775 631.286 84.379 630.764 87.9806C648.486 99.2997 660.475 118.336 660.475 140.975C660.475 158.982 652.656 175.447 640.147 186.766C645.88 198.599 649.529 211.977 649.529 225.868C649.529 275.261 608.351 315.392 557.271 315.392C537.985 315.392 520.784 309.733 505.669 299.957C499.935 302.015 494.202 303.044 487.426 303.044C456.673 303.044 431.654 278.862 431.654 249.021C431.654 236.673 435.824 225.354 443.121 216.607C425.92 206.832 414.453 189.338 414.453 169.273Z" fill="#08D57F"/>
<path d="M415.496 168.758C415.496 152.294 422.793 137.888 434.781 128.112C430.611 120.394 428.005 111.648 428.005 102.387C428.005 75.6324 448.854 53.5086 474.395 51.9651C469.704 68.9438 466.576 86.9515 466.576 105.988C466.576 194.998 525.475 267.029 598.448 267.029C614.085 267.029 628.679 263.942 642.231 257.768C628.679 291.211 595.842 314.878 556.749 314.878C537.985 314.878 520.263 309.218 505.669 299.443C499.935 301.501 494.202 302.53 487.947 302.53C457.715 302.53 432.696 278.348 432.696 248.507C432.696 236.158 436.866 224.839 444.163 215.578C427.484 206.832 415.496 189.338 415.496 168.758Z" fill="black" fill-opacity="0.08"/>
<path opacity="0.1" d="M414.974 169.273C414.974 153.323 422.271 138.402 434.26 128.627C430.09 120.909 427.484 112.677 427.484 102.901C427.484 75.1179 449.375 52.4797 475.958 52.4797C475.958 52.4797 475.958 52.4797 476.479 52.4797C486.383 23.1528 514.008 1.54352 546.846 0V313.849C531.73 312.305 517.135 307.16 505.147 298.928C499.414 300.986 493.68 302.015 487.425 302.015C457.194 302.015 432.696 277.833 432.696 247.992C432.696 235.644 436.866 224.325 443.642 215.578C426.441 207.346 414.974 189.338 414.974 169.273Z" fill="black"/>
<path d="M547.201 250.565C549.337 250.565 551.096 252.242 551.196 254.376L560.198 444.914C560.306 447.218 558.45 449.136 556.144 449.102L529.209 448.711C526.903 448.678 525.103 446.707 525.278 444.407L539.788 254.26C539.947 252.175 541.686 250.565 543.777 250.565H547.201Z" fill="#A16324"/>
<path d="M537.985 296.87C537.985 296.87 498.892 251.594 498.371 214.549C498.371 214.549 525.475 271.659 539.027 276.804L537.985 296.87Z" fill="#A16324"/>
<path d="M573.95 228.955C573.95 228.955 569.78 280.406 551.016 292.24L551.537 308.704C551.537 308.704 585.417 283.493 573.95 228.955Z" fill="#A16324"/>
<path opacity="0.1" d="M543.054 250.565C544.852 250.565 546.302 252.037 546.274 253.835L543.26 444.713C543.225 446.897 541.445 448.649 539.26 448.649H529.272C526.942 448.649 525.106 446.667 525.283 444.345L539.843 253.54C539.971 251.861 541.371 250.565 543.054 250.565V250.565Z" fill="black"/>
<path opacity="0.1" d="M537.464 282.464C537.464 282.464 509.839 256.739 497.85 214.549C497.85 214.549 522.348 267.029 537.464 276.804V282.464Z" fill="black"/>
<path opacity="0.1" d="M573.95 228.955C573.95 228.955 579.162 275.261 553.622 299.957L553.101 289.667C552.579 290.182 567.695 284.008 573.95 228.955Z" fill="black"/>
<path d="M609.915 54.0232C608.351 42.1896 592.714 23.6674 581.247 25.2109C569.78 26.7544 566.131 47.8491 567.695 60.1973C569.259 72.0309 580.204 80.7776 591.672 79.234C603.66 77.176 611.478 65.8569 609.915 54.0232Z" fill="white" fill-opacity="0.32"/>
<path d="M609.394 122.453C600.012 121.424 584.896 110.619 585.939 101.872C586.981 93.1257 603.139 89.5241 612.521 90.5531C621.904 91.5821 628.68 99.2997 628.158 108.046C627.116 117.307 618.776 123.482 609.394 122.453Z" fill="white" fill-opacity="0.32"/>
<path d="M563.004 92.0966C563.004 96.2127 566.132 99.2997 570.301 99.2997C574.471 99.2997 577.599 96.2127 577.599 92.0966C577.599 87.9806 574.471 84.8936 570.301 84.8936C566.653 84.8936 563.004 87.9806 563.004 92.0966Z" fill="white" fill-opacity="0.32"/>
<path d="M285.708 273.617C282.581 270.016 281.017 265.9 281.017 261.269C281.017 250.464 290.4 241.718 302.388 240.174C300.303 235.544 298.739 230.399 298.739 225.254C298.739 204.159 318.546 187.18 343.565 187.18C344.608 187.18 345.129 187.18 346.171 187.18C352.426 178.433 363.372 172.774 376.403 172.774C395.688 172.774 411.325 186.151 411.325 202.615C411.325 209.304 408.719 215.478 404.028 220.623C413.41 225.768 419.665 234.515 419.665 244.29C419.665 249.95 417.58 255.609 413.932 260.24C421.229 263.842 425.92 271.045 425.92 278.762C425.92 289.052 417.58 297.284 406.634 299.857C408.198 302.43 409.24 305.517 409.24 308.604C409.24 318.379 399.858 326.611 388.391 326.611C384.221 326.611 380.051 325.582 376.403 323.524C374.839 332.271 366.499 338.959 355.554 338.959C344.086 338.959 334.704 330.727 334.704 320.952V320.437C325.843 318.894 318.546 315.292 312.291 310.147C309.164 311.176 305.515 312.205 301.867 312.205C287.793 312.205 276.848 302.43 276.848 290.596C276.848 283.393 279.975 277.219 285.708 273.617Z" fill="#08D57F"/>
<path d="M285.187 273.617C282.06 270.016 280.496 265.9 280.496 261.269C280.496 250.464 289.879 241.718 301.867 240.174C299.782 235.544 298.218 230.399 298.218 225.254C298.218 215.478 302.388 206.217 309.685 199.528C309.164 203.13 309.164 206.731 309.164 210.333C309.164 261.269 344.608 302.944 388.391 302.944C394.646 302.944 400.38 301.915 406.113 300.372C407.156 302.43 408.198 305.002 408.198 308.089C408.198 317.865 398.816 326.097 387.349 326.097C383.179 326.097 379.009 325.068 375.361 323.01C373.797 331.756 365.457 338.445 354.511 338.445C343.044 338.445 333.662 330.213 333.662 320.437V319.923C324.801 318.379 317.504 314.778 311.249 309.633C308.122 310.662 304.473 311.691 300.824 311.691C286.751 311.691 275.805 301.915 275.805 290.081C276.326 283.393 279.975 277.219 285.187 273.617Z" fill="black" fill-opacity="0.08"/>
<path opacity="0.1" d="M284.666 273.617C281.538 270.016 279.975 265.9 279.975 261.269C279.975 250.464 289.357 241.718 301.345 240.174C299.26 235.544 297.697 230.399 297.697 225.254C297.697 204.159 317.503 187.18 342.522 187.18C343.565 187.18 344.086 187.18 345.129 187.18C348.256 182.55 352.947 178.948 358.681 176.375V338.445C357.638 338.445 356.075 338.959 355.032 338.959C343.565 338.959 334.183 330.727 334.183 320.952V320.437C325.322 318.894 318.025 315.292 311.77 310.147C308.642 311.176 304.994 312.205 301.345 312.205C287.272 312.205 276.326 302.43 276.326 290.596C275.284 283.393 278.932 277.219 284.666 273.617Z" fill="black"/>
<path d="M352.948 331.756C352.948 331.756 326.365 305.002 325.843 283.393C325.843 283.393 344.608 316.836 353.469 319.923L352.948 331.756Z" fill="#A16324"/>
<path d="M374.84 302.944C374.84 302.944 372.233 320.437 359.203 324.553L359.724 330.213C359.724 329.698 383.179 321.466 374.84 302.944Z" fill="#A16324"/>
<path opacity="0.1" d="M352.426 323.524C352.426 323.524 333.662 308.604 325.843 283.393C325.843 283.393 342.523 314.263 352.947 319.923L352.426 323.524Z" fill="black"/>
<path opacity="0.1" d="M374.839 302.944C374.839 302.944 378.488 318.894 360.766 327.126L360.245 323.524C360.766 323.524 371.19 321.466 374.839 302.944Z" fill="black"/>
<path d="M358.018 304.488C360.144 304.488 361.898 306.15 362.012 308.273L367.837 416.551C367.96 418.841 366.136 420.766 363.843 420.766H348.442C346.099 420.766 344.258 418.761 344.456 416.427L353.678 308.148C353.855 306.078 355.586 304.488 357.664 304.488H358.018Z" fill="#A16324"/>
<path opacity="0.1" d="M356.214 304.488C357.569 304.488 358.661 305.599 358.636 306.953L356.666 416.838C356.627 419.019 354.848 420.766 352.667 420.766H348.441C346.098 420.766 344.257 418.761 344.456 416.427L353.801 306.704C353.908 305.451 354.956 304.488 356.214 304.488V304.488Z" fill="black"/>
<path d="M398.295 206.731C397.252 199.528 388.391 188.724 381.094 189.753C374.318 190.782 372.233 203.13 373.276 210.333C374.318 217.536 380.573 222.681 387.349 221.652C394.646 220.623 399.337 213.934 398.295 206.731Z" fill="white" fill-opacity="0.32"/>
<path d="M398.294 247.377C392.561 246.863 383.7 240.689 384.221 235.029C384.742 229.884 394.124 227.826 399.858 228.341C405.592 228.855 409.761 233.486 409.24 238.631C408.719 244.29 403.507 248.406 398.294 247.377Z" fill="white" fill-opacity="0.32"/>
<path d="M370.669 229.37C370.669 231.942 372.754 233.486 374.839 233.486C377.445 233.486 379.009 231.428 379.009 229.37C379.009 226.797 376.924 225.254 374.839 225.254C372.754 225.254 370.669 227.312 370.669 229.37Z" fill="white" fill-opacity="0.32"/>
</g>
<path d="M1049.01 525C1051.11 525 1052.85 523.378 1053 521.284L1058.7 441.284C1058.86 438.969 1057.03 437 1054.71 437H1039.48C1037.09 437 1035.23 439.076 1035.5 441.448L1044.51 521.448C1044.74 523.471 1046.45 525 1048.49 525H1049.01Z" fill="#A16324"/>
<path opacity="0.1" d="M1047.1 525C1048.48 525 1049.58 523.868 1049.55 522.493L1047.61 440.905C1047.56 438.734 1045.79 437 1043.62 437H1039.48C1037.09 437 1035.23 439.076 1035.5 441.448L1044.67 522.825C1044.81 524.064 1045.85 525 1047.1 525V525Z" fill="black"/>
<path d="M1169.01 525C1171.11 525 1172.85 523.378 1173 521.284L1178.7 441.284C1178.86 438.969 1177.03 437 1174.71 437H1159.48C1157.09 437 1155.23 439.076 1155.5 441.448L1164.51 521.448C1164.74 523.471 1166.45 525 1168.49 525H1169.01Z" fill="#A16324"/>
<path opacity="0.1" d="M1167.1 525C1168.48 525 1169.58 523.868 1169.55 522.493L1167.61 440.905C1167.56 438.734 1165.79 437 1163.62 437H1159.48C1157.09 437 1155.23 439.076 1155.5 441.448L1164.67 522.825C1164.81 524.064 1165.85 525 1167.1 525V525Z" fill="black"/>
<g filter="url(#filter0_i_113_80)">
<rect x="992" y="377" width="230" height="72" rx="8" fill="#A16324"/>
<path d="M1051.6 400.728C1051.52 400.658 1049.69 399.008 1046.61 397.353C1043.76 395.823 1039.27 394 1034 394C1028.73 394 1024.24 395.823 1021.39 397.353C1018.31 399.008 1016.48 400.658 1016.4 400.728L1016 401.092L1016.05 401.631C1016.07 401.864 1016.56 407.391 1018.93 413.879C1020.33 417.71 1022.09 421.074 1024.17 423.878C1026.81 427.424 1029.95 430.081 1033.53 431.776L1034 432L1034.47 431.776C1038.05 430.081 1041.19 427.424 1043.83 423.878C1045.91 421.074 1047.67 417.71 1049.07 413.879C1051.44 407.391 1051.93 401.864 1051.95 401.631L1052 401.092L1051.6 400.728ZM1047 413.131C1045.43 417.435 1042.74 422.79 1038.3 426.652C1034.72 429.559 1035.76 419.282 1036.47 417.155C1036.53 417.219 1036.58 417.284 1036.65 417.346C1038.3 418.998 1040.99 418.998 1042.65 417.346C1043.56 416.437 1043.97 415.218 1043.88 414.029C1042.85 413.997 1041.81 413.797 1041.25 413.587C1042.13 413.587 1042.94 413.359 1043.65 412.957C1045.13 412.123 1046.13 410.543 1046.13 408.728C1046.13 406.706 1044.89 404.974 1043.13 404.242C1043.42 402.994 1043.08 401.63 1042.1 400.657C1041.61 400.163 1041.01 399.833 1040.38 399.664C1040.64 401.95 1039.29 403.916 1038.15 404.297C1038.55 403.6 1038.78 402.793 1038.78 401.933C1038.78 401.129 1038.58 400.372 1038.23 399.707C1037.42 398.199 1035.83 397.17 1034 397.169C1032.17 397.17 1030.58 398.199 1029.77 399.707C1028.45 399.298 1026.95 399.613 1025.9 400.657C1025.48 401.073 1025.18 401.56 1025 402.079C1026.78 402.368 1028.26 403.294 1028.75 404.297C1028.14 404.022 1027.46 403.869 1026.75 403.869C1026.08 403.869 1025.45 404.003 1024.87 404.242C1023.11 404.974 1021.87 406.706 1021.87 408.728C1021.87 410.543 1022.87 412.123 1024.35 412.957C1023.83 414.442 1024.16 416.159 1025.35 417.346C1027.01 418.998 1029.7 418.998 1031.35 417.346C1031.42 417.284 1031.47 417.219 1031.53 417.155C1032.24 419.281 1033.33 429.625 1029.69 426.644C1025.27 422.794 1022.59 417.465 1021.02 413.181C1019.16 408.108 1018.49 403.542 1018.3 401.999C1019.92 400.695 1026.08 396.191 1034 396.191C1038.78 396.191 1042.9 397.854 1045.51 399.25C1047.55 400.345 1049.03 401.453 1049.7 401.999C1049.52 403.536 1048.85 408.066 1047 413.131Z" fill="#FFFFDD"/>
<path d="M1083.26 411.883V418.891C1082.97 419.211 1082.52 419.555 1081.92 419.922C1081.33 420.281 1080.58 420.59 1079.67 420.848C1078.77 421.105 1077.7 421.234 1076.47 421.234C1075.34 421.234 1074.31 421.055 1073.39 420.695C1072.47 420.328 1071.68 419.793 1071.01 419.09C1070.36 418.379 1069.85 417.512 1069.49 416.488C1069.14 415.457 1068.96 414.277 1068.96 412.949V412C1068.96 410.672 1069.14 409.492 1069.5 408.461C1069.86 407.43 1070.36 406.562 1071.01 405.859C1071.67 405.148 1072.44 404.609 1073.32 404.242C1074.21 403.875 1075.19 403.691 1076.25 403.691C1077.82 403.691 1079.1 403.941 1080.08 404.441C1081.07 404.934 1081.81 405.617 1082.32 406.492C1082.83 407.359 1083.14 408.363 1083.25 409.504H1079.3C1079.22 408.941 1079.07 408.465 1078.85 408.074C1078.64 407.676 1078.34 407.375 1077.94 407.172C1077.54 406.961 1077.02 406.855 1076.39 406.855C1075.9 406.855 1075.45 406.961 1075.04 407.172C1074.64 407.383 1074.3 407.703 1074.02 408.133C1073.74 408.555 1073.52 409.086 1073.37 409.727C1073.22 410.367 1073.14 411.117 1073.14 411.977V412.949C1073.14 413.801 1073.21 414.547 1073.36 415.188C1073.5 415.828 1073.72 416.363 1074.01 416.793C1074.31 417.215 1074.68 417.535 1075.14 417.754C1075.6 417.965 1076.14 418.07 1076.77 418.07C1077.2 418.07 1077.58 418.035 1077.89 417.965C1078.2 417.887 1078.46 417.793 1078.66 417.684C1078.88 417.566 1079.04 417.457 1079.14 417.355V414.707H1076.29V411.883H1083.26ZM1089.46 411.461V421H1085.51V408.32H1089.2L1089.46 411.461ZM1093.21 408.227L1093.14 411.895C1092.98 411.879 1092.77 411.859 1092.5 411.836C1092.24 411.812 1092.02 411.801 1091.84 411.801C1091.38 411.801 1090.98 411.855 1090.64 411.965C1090.31 412.066 1090.04 412.223 1089.82 412.434C1089.61 412.637 1089.45 412.895 1089.35 413.207C1089.26 413.52 1089.21 413.883 1089.22 414.297L1088.51 413.828C1088.51 412.977 1088.59 412.203 1088.75 411.508C1088.93 410.805 1089.17 410.199 1089.48 409.691C1089.79 409.176 1090.17 408.781 1090.62 408.508C1091.06 408.227 1091.56 408.086 1092.12 408.086C1092.31 408.086 1092.5 408.098 1092.69 408.121C1092.89 408.145 1093.06 408.18 1093.21 408.227ZM1100.47 421.234C1099.44 421.234 1098.52 421.074 1097.71 420.754C1096.89 420.426 1096.21 419.977 1095.64 419.406C1095.09 418.836 1094.66 418.18 1094.37 417.438C1094.08 416.695 1093.93 415.91 1093.93 415.082V414.637C1093.93 413.707 1094.06 412.848 1094.32 412.059C1094.58 411.262 1094.96 410.566 1095.47 409.973C1095.98 409.379 1096.61 408.918 1097.38 408.59C1098.14 408.254 1099.04 408.086 1100.05 408.086C1100.95 408.086 1101.75 408.23 1102.46 408.52C1103.18 408.809 1103.78 409.223 1104.27 409.762C1104.77 410.301 1105.15 410.953 1105.41 411.719C1105.67 412.484 1105.8 413.344 1105.8 414.297V415.902H1095.45V413.43H1101.95V413.125C1101.96 412.703 1101.88 412.344 1101.73 412.047C1101.58 411.75 1101.36 411.523 1101.07 411.367C1100.78 411.211 1100.43 411.133 1100.02 411.133C1099.59 411.133 1099.23 411.227 1098.95 411.414C1098.68 411.602 1098.46 411.859 1098.3 412.188C1098.16 412.508 1098.05 412.879 1097.99 413.301C1097.93 413.723 1097.89 414.168 1097.89 414.637V415.082C1097.89 415.551 1097.96 415.977 1098.08 416.359C1098.21 416.742 1098.4 417.07 1098.64 417.344C1098.89 417.609 1099.19 417.816 1099.54 417.965C1099.89 418.113 1100.29 418.188 1100.73 418.188C1101.27 418.188 1101.8 418.086 1102.32 417.883C1102.85 417.68 1103.3 417.344 1103.67 416.875L1105.46 419.008C1105.21 419.375 1104.84 419.73 1104.36 420.074C1103.89 420.418 1103.33 420.699 1102.68 420.918C1102.02 421.129 1101.29 421.234 1100.47 421.234ZM1113.55 421.234C1112.52 421.234 1111.6 421.074 1110.79 420.754C1109.97 420.426 1109.29 419.977 1108.72 419.406C1108.17 418.836 1107.74 418.18 1107.45 417.438C1107.16 416.695 1107.01 415.91 1107.01 415.082V414.637C1107.01 413.707 1107.14 412.848 1107.4 412.059C1107.66 411.262 1108.04 410.566 1108.55 409.973C1109.05 409.379 1109.69 408.918 1110.46 408.59C1111.22 408.254 1112.11 408.086 1113.13 408.086C1114.03 408.086 1114.83 408.23 1115.54 408.52C1116.25 408.809 1116.86 409.223 1117.35 409.762C1117.85 410.301 1118.23 410.953 1118.48 411.719C1118.75 412.484 1118.88 413.344 1118.88 414.297V415.902H1108.52V413.43H1115.03V413.125C1115.04 412.703 1114.96 412.344 1114.8 412.047C1114.66 411.75 1114.44 411.523 1114.15 411.367C1113.86 411.211 1113.51 411.133 1113.09 411.133C1112.66 411.133 1112.31 411.227 1112.03 411.414C1111.75 411.602 1111.54 411.859 1111.38 412.188C1111.23 412.508 1111.13 412.879 1111.07 413.301C1111 413.723 1110.97 414.168 1110.97 414.637V415.082C1110.97 415.551 1111.04 415.977 1111.16 416.359C1111.29 416.742 1111.48 417.07 1111.72 417.344C1111.97 417.609 1112.27 417.816 1112.61 417.965C1112.96 418.113 1113.36 418.188 1113.81 418.188C1114.35 418.188 1114.88 418.086 1115.4 417.883C1115.93 417.68 1116.38 417.344 1116.75 416.875L1118.54 419.008C1118.29 419.375 1117.92 419.73 1117.44 420.074C1116.97 420.418 1116.41 420.699 1115.75 420.918C1115.1 421.129 1114.36 421.234 1113.55 421.234ZM1124.37 411.027V421H1120.42V408.32H1124.12L1124.37 411.027ZM1123.9 414.227L1122.97 414.25C1122.97 413.281 1123.09 412.418 1123.32 411.66C1123.56 410.895 1123.89 410.246 1124.32 409.715C1124.75 409.184 1125.26 408.781 1125.86 408.508C1126.46 408.227 1127.12 408.086 1127.86 408.086C1128.45 408.086 1128.98 408.172 1129.46 408.344C1129.96 408.516 1130.38 408.793 1130.73 409.176C1131.09 409.559 1131.36 410.066 1131.55 410.699C1131.75 411.324 1131.84 412.098 1131.84 413.02V421H1127.87V413.008C1127.87 412.5 1127.8 412.113 1127.66 411.848C1127.52 411.574 1127.32 411.387 1127.05 411.285C1126.79 411.184 1126.46 411.133 1126.08 411.133C1125.67 411.133 1125.33 411.211 1125.05 411.367C1124.77 411.523 1124.54 411.742 1124.37 412.023C1124.2 412.297 1124.08 412.621 1124 412.996C1123.93 413.371 1123.9 413.781 1123.9 414.227ZM1147.51 412.504V418.75C1147.3 419.062 1146.96 419.414 1146.5 419.805C1146.04 420.188 1145.41 420.523 1144.59 420.812C1143.79 421.094 1142.75 421.234 1141.48 421.234C1140.44 421.234 1139.48 421.055 1138.61 420.695C1137.74 420.328 1136.98 419.797 1136.34 419.102C1135.71 418.398 1135.22 417.547 1134.87 416.547C1134.52 415.539 1134.35 414.398 1134.35 413.125V411.801C1134.35 410.527 1134.5 409.391 1134.8 408.391C1135.1 407.391 1135.55 406.543 1136.13 405.848C1136.72 405.145 1137.44 404.613 1138.29 404.254C1139.14 403.887 1140.12 403.703 1141.22 403.703C1142.52 403.703 1143.61 403.93 1144.49 404.383C1145.37 404.828 1146.06 405.445 1146.55 406.234C1147.05 407.023 1147.37 407.922 1147.51 408.93H1145.25C1145.15 408.312 1144.95 407.75 1144.64 407.242C1144.34 406.734 1143.92 406.328 1143.36 406.023C1142.81 405.711 1142.09 405.555 1141.22 405.555C1140.43 405.555 1139.75 405.699 1139.17 405.988C1138.59 406.277 1138.11 406.691 1137.74 407.23C1137.36 407.77 1137.08 408.422 1136.89 409.188C1136.71 409.953 1136.62 410.816 1136.62 411.777V413.125C1136.62 414.109 1136.74 414.988 1136.96 415.762C1137.2 416.535 1137.53 417.195 1137.96 417.742C1138.39 418.281 1138.9 418.691 1139.5 418.973C1140.1 419.254 1140.76 419.395 1141.49 419.395C1142.29 419.395 1142.95 419.328 1143.45 419.195C1143.95 419.055 1144.34 418.891 1144.62 418.703C1144.9 418.508 1145.11 418.324 1145.26 418.152V414.332H1141.31V412.504H1147.51ZM1158.69 418.07V408.32H1160.87V421H1158.8L1158.69 418.07ZM1159.1 415.398L1160 415.375C1160 416.219 1159.91 417 1159.73 417.719C1159.56 418.43 1159.28 419.047 1158.89 419.57C1158.5 420.094 1157.99 420.504 1157.36 420.801C1156.72 421.09 1155.95 421.234 1155.05 421.234C1154.43 421.234 1153.86 421.145 1153.35 420.965C1152.84 420.785 1152.4 420.508 1152.04 420.133C1151.67 419.758 1151.38 419.27 1151.18 418.668C1150.98 418.066 1150.89 417.344 1150.89 416.5V408.32H1153.05V416.523C1153.05 417.094 1153.12 417.566 1153.24 417.941C1153.38 418.309 1153.55 418.602 1153.77 418.82C1154 419.031 1154.25 419.18 1154.52 419.266C1154.8 419.352 1155.09 419.395 1155.39 419.395C1156.31 419.395 1157.04 419.219 1157.58 418.867C1158.12 418.508 1158.5 418.027 1158.74 417.426C1158.98 416.816 1159.1 416.141 1159.1 415.398ZM1171.65 418.832V412.305C1171.65 411.805 1171.55 411.371 1171.35 411.004C1171.15 410.629 1170.86 410.34 1170.46 410.137C1170.06 409.934 1169.57 409.832 1168.98 409.832C1168.43 409.832 1167.95 409.926 1167.54 410.113C1167.13 410.301 1166.81 410.547 1166.58 410.852C1166.35 411.156 1166.24 411.484 1166.24 411.836H1164.07C1164.07 411.383 1164.19 410.934 1164.42 410.488C1164.66 410.043 1164.99 409.641 1165.43 409.281C1165.88 408.914 1166.41 408.625 1167.02 408.414C1167.65 408.195 1168.34 408.086 1169.11 408.086C1170.03 408.086 1170.84 408.242 1171.55 408.555C1172.26 408.867 1172.81 409.34 1173.21 409.973C1173.62 410.598 1173.82 411.383 1173.82 412.328V418.234C1173.82 418.656 1173.86 419.105 1173.93 419.582C1174 420.059 1174.12 420.469 1174.27 420.812V421H1172C1171.89 420.75 1171.81 420.418 1171.75 420.004C1171.68 419.582 1171.65 419.191 1171.65 418.832ZM1172.03 413.312L1172.05 414.836H1169.86C1169.24 414.836 1168.69 414.887 1168.21 414.988C1167.72 415.082 1167.32 415.227 1166.99 415.422C1166.66 415.617 1166.41 415.863 1166.24 416.16C1166.07 416.449 1165.98 416.789 1165.98 417.18C1165.98 417.578 1166.07 417.941 1166.25 418.27C1166.43 418.598 1166.7 418.859 1167.06 419.055C1167.43 419.242 1167.88 419.336 1168.41 419.336C1169.07 419.336 1169.66 419.195 1170.16 418.914C1170.67 418.633 1171.07 418.289 1171.37 417.883C1171.68 417.477 1171.84 417.082 1171.86 416.699L1172.79 417.742C1172.73 418.07 1172.59 418.434 1172.34 418.832C1172.1 419.23 1171.78 419.613 1171.37 419.98C1170.97 420.34 1170.5 420.641 1169.94 420.883C1169.39 421.117 1168.78 421.234 1168.09 421.234C1167.23 421.234 1166.48 421.066 1165.83 420.73C1165.19 420.395 1164.69 419.945 1164.33 419.383C1163.98 418.812 1163.8 418.176 1163.8 417.473C1163.8 416.793 1163.93 416.195 1164.2 415.68C1164.46 415.156 1164.85 414.723 1165.35 414.379C1165.85 414.027 1166.45 413.762 1167.15 413.582C1167.86 413.402 1168.64 413.312 1169.51 413.312H1172.03ZM1179.4 410.312V421H1177.23V408.32H1179.34L1179.4 410.312ZM1183.36 408.25L1183.35 410.266C1183.17 410.227 1183 410.203 1182.83 410.195C1182.68 410.18 1182.5 410.172 1182.29 410.172C1181.79 410.172 1181.35 410.25 1180.97 410.406C1180.59 410.562 1180.26 410.781 1180 411.062C1179.73 411.344 1179.52 411.68 1179.36 412.07C1179.21 412.453 1179.12 412.875 1179.07 413.336L1178.46 413.688C1178.46 412.922 1178.54 412.203 1178.68 411.531C1178.84 410.859 1179.08 410.266 1179.4 409.75C1179.72 409.227 1180.12 408.82 1180.62 408.531C1181.12 408.234 1181.71 408.086 1182.4 408.086C1182.55 408.086 1182.73 408.105 1182.94 408.145C1183.14 408.176 1183.28 408.211 1183.36 408.25ZM1193.12 418.539V403H1195.3V421H1193.31L1193.12 418.539ZM1184.59 414.801V414.555C1184.59 413.586 1184.71 412.707 1184.94 411.918C1185.18 411.121 1185.52 410.438 1185.96 409.867C1186.41 409.297 1186.93 408.859 1187.54 408.555C1188.16 408.242 1188.85 408.086 1189.61 408.086C1190.4 408.086 1191.1 408.227 1191.69 408.508C1192.29 408.781 1192.8 409.184 1193.21 409.715C1193.64 410.238 1193.97 410.871 1194.21 411.613C1194.45 412.355 1194.62 413.195 1194.71 414.133V415.211C1194.63 416.141 1194.46 416.977 1194.21 417.719C1193.97 418.461 1193.64 419.094 1193.21 419.617C1192.8 420.141 1192.29 420.543 1191.69 420.824C1191.09 421.098 1190.39 421.234 1189.58 421.234C1188.84 421.234 1188.16 421.074 1187.54 420.754C1186.93 420.434 1186.41 419.984 1185.96 419.406C1185.52 418.828 1185.18 418.148 1184.94 417.367C1184.71 416.578 1184.59 415.723 1184.59 414.801ZM1186.77 414.555V414.801C1186.77 415.434 1186.83 416.027 1186.96 416.582C1187.09 417.137 1187.29 417.625 1187.57 418.047C1187.84 418.469 1188.19 418.801 1188.61 419.043C1189.03 419.277 1189.54 419.395 1190.12 419.395C1190.84 419.395 1191.43 419.242 1191.89 418.938C1192.36 418.633 1192.73 418.23 1193.02 417.73C1193.3 417.23 1193.52 416.688 1193.67 416.102V413.277C1193.58 412.848 1193.44 412.434 1193.26 412.035C1193.09 411.629 1192.86 411.27 1192.58 410.957C1192.31 410.637 1191.97 410.383 1191.56 410.195C1191.16 410.008 1190.69 409.914 1190.14 409.914C1189.55 409.914 1189.04 410.039 1188.61 410.289C1188.19 410.531 1187.84 410.867 1187.57 411.297C1187.29 411.719 1187.09 412.211 1186.96 412.773C1186.83 413.328 1186.77 413.922 1186.77 414.555Z" fill="#FFFFDD"/>
</g>
<defs>
<filter id="filter0_i_113_80" x="992" y="377" width="230" height="72" filterUnits="userSpaceOnUse" color-interpolation-filters="sRGB">
<feFlood flood-opacity="0" result="BackgroundImageFix"/>
<feBlend mode="normal" in="SourceGraphic" in2="BackgroundImageFix" result="shape"/>
<feColorMatrix in="SourceAlpha" type="matrix" values="0 0 0 0 0 0 0 0 0 0 0 0 0 0 0 0 0 0 127 0" result="hardAlpha"/>
<feOffset dx="-2" dy="2"/>
<feComposite in2="hardAlpha" operator="arithmetic" k2="-1" k3="1"/>
<feColorMatrix type="matrix" values="0 0 0 0 0 0 0 0 0 0 0 0 0 0 0 0 0 0 0.16 0"/>
<feBlend mode="normal" in2="shape" result="effect1_innerShadow_113_80"/>
</filter>
<clipPath id="clip0_113_80">
<rect width="514.98" height="450.411" fill="white" transform="matrix(-1 0 0 1 660.812 0)"/>
</clipPath>
</defs>
</svg>
