<svg width="230" height="148" viewBox="0 0 230 148" fill="none" xmlns="http://www.w3.org/2000/svg">
<path d="M57.0137 148C59.1127 148 60.8546 146.378 61.0036 144.284L66.6953 64.2839C66.86 61.9688 65.0263 60 62.7054 60H47.476C45.0895 60 43.234 62.0763 43.5011 64.4478L52.513 144.448C52.7409 146.471 54.4519 148 56.4878 148H57.0137Z" fill="#A16324"/>
<path opacity="0.1" d="M55.1011 148C56.4761 148 57.5816 146.868 57.549 145.493L55.6141 63.9052C55.5626 61.7336 53.7874 60 51.6152 60H47.4756C45.0892 60 43.2336 62.0763 43.5008 64.4478L52.6678 145.825C52.8073 147.064 53.8548 148 55.1011 148Z" fill="black"/>
<path d="M177.014 148C179.113 148 180.855 146.378 181.004 144.284L186.695 64.2839C186.86 61.9688 185.026 60 182.705 60H167.476C165.089 60 163.234 62.0763 163.501 64.4478L172.513 144.448C172.741 146.471 174.452 148 176.488 148H177.014Z" fill="#A16324"/>
<path opacity="0.1" d="M175.101 148C176.476 148 177.582 146.868 177.549 145.493L175.614 63.9052C175.563 61.7336 173.787 60 171.615 60H167.476C165.089 60 163.234 62.0763 163.501 64.4478L172.668 145.825C172.807 147.064 173.855 148 175.101 148Z" fill="black"/>
<g filter="url(#filter0_i_2_375)">
<rect x="6.10352e-05" width="230" height="72" rx="8" fill="#A16324"/>
<g clip-path="url(#clip0_2_375)">
<path d="M59.5978 23.7276C59.5213 23.6582 57.6855 22.0079 54.6068 20.3528C51.7618 18.8232 47.2652 17 41.9999 17C36.7346 17 32.2381 18.8231 29.3932 20.3528C26.3143 22.0079 24.4787 23.6582 24.4021 23.7276L24.0001 24.092L24.0465 24.6314C24.0666 24.8635 24.5633 30.3911 26.9316 36.8792C28.3298 40.7095 30.0939 44.0736 32.1749 46.8784C34.8062 50.4243 37.9529 53.0814 41.5277 54.7761L42 55L42.4724 54.7761C46.0472 53.0814 49.1937 50.4243 51.8252 46.8784C53.906 44.0736 55.6703 40.7095 57.0684 36.8792C59.4368 30.3911 59.9335 24.8635 59.9536 24.6314L60.0001 24.092L59.5978 23.7276ZM55.0019 36.1307C53.4306 40.435 50.7367 45.7899 46.2999 49.6519C42.725 52.5595 43.7565 42.2825 44.472 40.1547C44.5291 40.2189 44.5835 40.2842 44.6453 40.3456C46.3033 41.9981 48.9924 41.9979 50.6509 40.346C51.5634 39.4369 51.97 38.2177 51.8769 37.0293C50.8493 36.9966 49.8103 36.797 49.2546 36.587C50.1296 36.5871 50.9417 36.3589 51.6518 35.9571C53.1315 35.1228 54.1321 33.5429 54.1324 31.7281C54.1324 29.7063 52.8916 27.9738 51.1281 27.2422C51.417 25.9939 51.0775 24.6303 50.1012 23.6574C49.6052 23.1633 49.0079 22.8327 48.3759 22.6645C48.6422 24.9501 47.2916 26.9157 46.1532 27.2967C46.5534 26.6004 46.7821 25.7934 46.7821 24.9334C46.7821 24.1289 46.5799 23.3717 46.2265 22.7072C45.424 21.1985 43.8333 20.1697 42.0002 20.1694C40.1671 20.1697 38.5766 21.1988 37.7742 22.7072C36.4498 22.2975 34.9479 22.613 33.8991 23.6574C33.4819 24.0732 33.1814 24.5603 32.9961 25.0793C34.7841 25.3677 36.2619 26.2936 36.7496 27.297C36.1383 27.0223 35.4598 26.8693 34.7456 26.8693C34.0819 26.8693 33.4493 27.0028 32.8722 27.2423C31.1089 27.9739 29.8681 29.7063 29.868 31.7282C29.868 33.5429 30.8689 35.1229 32.3487 35.9571C31.8276 37.4424 32.1578 39.159 33.3494 40.3461C35.008 41.998 37.6969 41.9983 39.355 40.3458C39.4167 40.2844 39.4712 40.2191 39.5284 40.1549C40.2432 42.2814 41.3256 52.6249 37.692 49.6444C33.2736 45.7943 30.5859 40.465 29.0166 36.1805C27.1585 31.1079 26.4863 26.5424 26.2986 24.9989C27.9157 23.6951 34.0776 19.1907 42.0002 19.1907C46.781 19.1907 50.8957 20.8542 53.5054 22.2498C55.5536 23.345 57.0254 24.4528 57.7023 24.9992C57.5161 26.5356 56.8504 31.0664 55.0019 36.1307Z" fill="#FFFFDD"/>
</g>
<path d="M91.2579 34.8828V41.8906C90.9688 42.2109 90.5235 42.5547 89.9219 42.9219C89.3282 43.2812 88.5782 43.5898 87.6719 43.8477C86.7657 44.1055 85.6993 44.2344 84.4727 44.2344C83.3399 44.2344 82.3126 44.0547 81.3907 43.6953C80.4688 43.3281 79.6758 42.793 79.0118 42.0898C78.3555 41.3789 77.8477 40.5117 77.4883 39.4883C77.1368 38.457 76.961 37.2773 76.961 35.9492V35C76.961 33.6719 77.1407 32.4922 77.5001 31.4609C77.8594 30.4297 78.3633 29.5625 79.0118 28.8594C79.668 28.1484 80.4376 27.6094 81.3204 27.2422C82.211 26.875 83.1876 26.6914 84.2501 26.6914C85.8204 26.6914 87.0977 26.9414 88.0821 27.4414C89.0665 27.9336 89.8126 28.6172 90.3204 29.4922C90.8282 30.3594 91.1368 31.3633 91.2462 32.5039H87.2969C87.2188 31.9414 87.0704 31.4648 86.8516 31.0742C86.6407 30.6758 86.336 30.375 85.9376 30.1719C85.5391 29.9609 85.0235 29.8555 84.3907 29.8555C83.8985 29.8555 83.4493 29.9609 83.043 30.1719C82.6446 30.3828 82.3047 30.7031 82.0235 31.1328C81.7422 31.5547 81.5235 32.0859 81.3672 32.7266C81.2188 33.3672 81.1446 34.1172 81.1446 34.9766V35.9492C81.1446 36.8008 81.2149 37.5469 81.3555 38.1875C81.504 38.8281 81.7227 39.3633 82.0118 39.793C82.3087 40.2148 82.6837 40.5352 83.1368 40.7539C83.5977 40.9648 84.1407 41.0703 84.7657 41.0703C85.2032 41.0703 85.5782 41.0352 85.8907 40.9648C86.2032 40.8867 86.461 40.793 86.6641 40.6836C86.8751 40.5664 87.0352 40.457 87.1446 40.3555V37.707H84.2852V34.8828H91.2579ZM97.4571 34.4609V44H93.5079V31.3203H97.1993L97.4571 34.4609ZM101.207 31.2266L101.137 34.8945C100.981 34.8789 100.77 34.8594 100.504 34.8359C100.238 34.8125 100.016 34.8008 99.836 34.8008C99.3751 34.8008 98.9766 34.8555 98.6407 34.9648C98.3126 35.0664 98.0391 35.2227 97.8204 35.4336C97.6094 35.6367 97.4532 35.8945 97.3516 36.207C97.2579 36.5195 97.2149 36.8828 97.2227 37.2969L96.5079 36.8281C96.5079 35.9766 96.5899 35.2031 96.754 34.5078C96.9258 33.8047 97.168 33.1992 97.4805 32.6914C97.793 32.1758 98.1719 31.7812 98.6172 31.5078C99.0626 31.2266 99.5626 31.0859 100.117 31.0859C100.313 31.0859 100.504 31.0977 100.691 31.1211C100.887 31.1445 101.059 31.1797 101.207 31.2266ZM108.473 44.2344C107.441 44.2344 106.52 44.0742 105.707 43.7539C104.895 43.4258 104.207 42.9766 103.645 42.4062C103.09 41.8359 102.664 41.1797 102.367 40.4375C102.078 39.6953 101.934 38.9102 101.934 38.082V37.6367C101.934 36.707 102.063 35.8477 102.32 35.0586C102.578 34.2617 102.961 33.5664 103.469 32.9727C103.977 32.3789 104.613 31.918 105.379 31.5898C106.145 31.2539 107.035 31.0859 108.051 31.0859C108.949 31.0859 109.754 31.2305 110.465 31.5195C111.176 31.8086 111.777 32.2227 112.27 32.7617C112.77 33.3008 113.148 33.9531 113.406 34.7188C113.672 35.4844 113.805 36.3438 113.805 37.2969V38.9023H103.445V36.4297H109.949V36.125C109.957 35.7031 109.883 35.3438 109.727 35.0469C109.578 34.75 109.359 34.5234 109.07 34.3672C108.781 34.2109 108.43 34.1328 108.016 34.1328C107.586 34.1328 107.231 34.2266 106.949 34.4141C106.676 34.6016 106.461 34.8594 106.305 35.1875C106.156 35.5078 106.051 35.8789 105.988 36.3008C105.926 36.7227 105.895 37.168 105.895 37.6367V38.082C105.895 38.5508 105.957 38.9766 106.082 39.3594C106.215 39.7422 106.402 40.0703 106.645 40.3438C106.895 40.6094 107.191 40.8164 107.535 40.9648C107.887 41.1133 108.285 41.1875 108.731 41.1875C109.27 41.1875 109.801 41.0859 110.324 40.8828C110.848 40.6797 111.297 40.3438 111.672 39.875L113.465 42.0078C113.207 42.375 112.84 42.7305 112.363 43.0742C111.895 43.418 111.332 43.6992 110.676 43.918C110.02 44.1289 109.285 44.2344 108.473 44.2344ZM121.551 44.2344C120.52 44.2344 119.598 44.0742 118.785 43.7539C117.973 43.4258 117.285 42.9766 116.723 42.4062C116.168 41.8359 115.742 41.1797 115.445 40.4375C115.156 39.6953 115.012 38.9102 115.012 38.082V37.6367C115.012 36.707 115.141 35.8477 115.398 35.0586C115.656 34.2617 116.039 33.5664 116.547 32.9727C117.055 32.3789 117.691 31.918 118.457 31.5898C119.223 31.2539 120.113 31.0859 121.129 31.0859C122.027 31.0859 122.832 31.2305 123.543 31.5195C124.254 31.8086 124.856 32.2227 125.348 32.7617C125.848 33.3008 126.227 33.9531 126.484 34.7188C126.75 35.4844 126.883 36.3438 126.883 37.2969V38.9023H116.523V36.4297H123.027V36.125C123.035 35.7031 122.961 35.3438 122.805 35.0469C122.656 34.75 122.438 34.5234 122.148 34.3672C121.859 34.2109 121.508 34.1328 121.094 34.1328C120.664 34.1328 120.309 34.2266 120.027 34.4141C119.754 34.6016 119.539 34.8594 119.383 35.1875C119.234 35.5078 119.129 35.8789 119.066 36.3008C119.004 36.7227 118.973 37.168 118.973 37.6367V38.082C118.973 38.5508 119.035 38.9766 119.16 39.3594C119.293 39.7422 119.481 40.0703 119.723 40.3438C119.973 40.6094 120.27 40.8164 120.613 40.9648C120.965 41.1133 121.363 41.1875 121.809 41.1875C122.348 41.1875 122.879 41.0859 123.402 40.8828C123.926 40.6797 124.375 40.3438 124.75 39.875L126.543 42.0078C126.285 42.375 125.918 42.7305 125.441 43.0742C124.973 43.418 124.41 43.6992 123.754 43.918C123.098 44.1289 122.363 44.2344 121.551 44.2344ZM132.367 34.0273V44H128.418V31.3203H132.121L132.367 34.0273ZM131.898 37.2266L130.973 37.25C130.973 36.2812 131.09 35.418 131.324 34.6602C131.559 33.8945 131.891 33.2461 132.32 32.7148C132.75 32.1836 133.262 31.7812 133.856 31.5078C134.457 31.2266 135.125 31.0859 135.859 31.0859C136.445 31.0859 136.981 31.1719 137.465 31.3438C137.957 31.5156 138.379 31.793 138.731 32.1758C139.09 32.5586 139.363 33.0664 139.551 33.6992C139.746 34.3242 139.844 35.0977 139.844 36.0195V44H135.871V36.0078C135.871 35.5 135.801 35.1133 135.66 34.8477C135.52 34.5742 135.316 34.3867 135.051 34.2852C134.785 34.1836 134.461 34.1328 134.078 34.1328C133.672 34.1328 133.328 34.2109 133.047 34.3672C132.766 34.5234 132.539 34.7422 132.367 35.0234C132.203 35.2969 132.082 35.6211 132.004 35.9961C131.934 36.3711 131.898 36.7812 131.898 37.2266ZM155.512 35.5039V41.75C155.301 42.0625 154.965 42.4141 154.504 42.8047C154.043 43.1875 153.406 43.5234 152.594 43.8125C151.789 44.0938 150.75 44.2344 149.477 44.2344C148.438 44.2344 147.481 44.0547 146.606 43.6953C145.738 43.3281 144.984 42.7969 144.344 42.1016C143.711 41.3984 143.219 40.5469 142.867 39.5469C142.523 38.5391 142.352 37.3984 142.352 36.125V34.8008C142.352 33.5273 142.5 32.3906 142.797 31.3906C143.102 30.3906 143.547 29.543 144.133 28.8477C144.719 28.1445 145.438 27.6133 146.289 27.2539C147.141 26.8867 148.117 26.7031 149.219 26.7031C150.523 26.7031 151.613 26.9297 152.488 27.3828C153.371 27.8281 154.059 28.4453 154.551 29.2344C155.051 30.0234 155.371 30.9219 155.512 31.9297H153.25C153.148 31.3125 152.945 30.75 152.641 30.2422C152.344 29.7344 151.918 29.3281 151.363 29.0234C150.809 28.7109 150.094 28.5547 149.219 28.5547C148.43 28.5547 147.746 28.6992 147.168 28.9883C146.59 29.2773 146.113 29.6914 145.738 30.2305C145.363 30.7695 145.082 31.4219 144.895 32.1875C144.715 32.9531 144.625 33.8164 144.625 34.7773V36.125C144.625 37.1094 144.738 37.9883 144.965 38.7617C145.199 39.5352 145.531 40.1953 145.961 40.7422C146.391 41.2812 146.902 41.6914 147.496 41.9727C148.098 42.2539 148.762 42.3945 149.488 42.3945C150.293 42.3945 150.945 42.3281 151.445 42.1953C151.945 42.0547 152.336 41.8906 152.617 41.7031C152.898 41.5078 153.113 41.3242 153.262 41.1523V37.332H149.313V35.5039H155.512ZM166.691 41.0703V31.3203H168.871V44H166.797L166.691 41.0703ZM167.102 38.3984L168.004 38.375C168.004 39.2188 167.914 40 167.734 40.7188C167.563 41.4297 167.281 42.0469 166.891 42.5703C166.5 43.0938 165.988 43.5039 165.356 43.8008C164.723 44.0898 163.953 44.2344 163.047 44.2344C162.43 44.2344 161.863 44.1445 161.348 43.9648C160.84 43.7852 160.402 43.5078 160.035 43.1328C159.668 42.7578 159.383 42.2695 159.18 41.668C158.984 41.0664 158.887 40.3438 158.887 39.5V31.3203H161.055V39.5234C161.055 40.0938 161.117 40.5664 161.242 40.9414C161.375 41.3086 161.551 41.6016 161.77 41.8203C161.996 42.0312 162.246 42.1797 162.52 42.2656C162.801 42.3516 163.09 42.3945 163.387 42.3945C164.309 42.3945 165.039 42.2188 165.578 41.8672C166.117 41.5078 166.504 41.0273 166.738 40.4258C166.981 39.8164 167.102 39.1406 167.102 38.3984ZM179.652 41.832V35.3047C179.652 34.8047 179.551 34.3711 179.348 34.0039C179.152 33.6289 178.856 33.3398 178.457 33.1367C178.059 32.9336 177.566 32.832 176.981 32.832C176.434 32.832 175.953 32.9258 175.539 33.1133C175.133 33.3008 174.813 33.5469 174.578 33.8516C174.352 34.1562 174.238 34.4844 174.238 34.8359H172.07C172.07 34.3828 172.188 33.9336 172.422 33.4883C172.656 33.043 172.992 32.6406 173.43 32.2812C173.875 31.9141 174.406 31.625 175.023 31.4141C175.648 31.1953 176.344 31.0859 177.109 31.0859C178.031 31.0859 178.844 31.2422 179.547 31.5547C180.258 31.8672 180.813 32.3398 181.211 32.9727C181.617 33.5977 181.82 34.3828 181.82 35.3281V41.2344C181.82 41.6562 181.856 42.1055 181.926 42.582C182.004 43.0586 182.117 43.4688 182.266 43.8125V44H180.004C179.895 43.75 179.809 43.418 179.746 43.0039C179.684 42.582 179.652 42.1914 179.652 41.832ZM180.027 36.3125L180.051 37.8359H177.859C177.242 37.8359 176.691 37.8867 176.207 37.9883C175.723 38.082 175.316 38.2266 174.988 38.4219C174.66 38.6172 174.41 38.8633 174.238 39.1602C174.066 39.4492 173.981 39.7891 173.981 40.1797C173.981 40.5781 174.07 40.9414 174.25 41.2695C174.43 41.5977 174.699 41.8594 175.059 42.0547C175.426 42.2422 175.875 42.3359 176.406 42.3359C177.07 42.3359 177.656 42.1953 178.164 41.9141C178.672 41.6328 179.074 41.2891 179.371 40.8828C179.676 40.4766 179.84 40.082 179.863 39.6992L180.789 40.7422C180.734 41.0703 180.586 41.4336 180.344 41.832C180.102 42.2305 179.777 42.6133 179.371 42.9805C178.973 43.3398 178.496 43.6406 177.941 43.8828C177.395 44.1172 176.777 44.2344 176.09 44.2344C175.231 44.2344 174.477 44.0664 173.828 43.7305C173.188 43.3945 172.688 42.9453 172.328 42.3828C171.977 41.8125 171.801 41.1758 171.801 40.4727C171.801 39.793 171.934 39.1953 172.199 38.6797C172.465 38.1562 172.848 37.7227 173.348 37.3789C173.848 37.0273 174.449 36.7617 175.152 36.582C175.856 36.4023 176.641 36.3125 177.508 36.3125H180.027ZM187.398 33.3125V44H185.231V31.3203H187.34L187.398 33.3125ZM191.359 31.25L191.348 33.2656C191.168 33.2266 190.996 33.2031 190.832 33.1953C190.676 33.1797 190.496 33.1719 190.293 33.1719C189.793 33.1719 189.352 33.25 188.969 33.4062C188.586 33.5625 188.262 33.7812 187.996 34.0625C187.731 34.3438 187.52 34.6797 187.363 35.0703C187.215 35.4531 187.117 35.875 187.07 36.3359L186.461 36.6875C186.461 35.9219 186.535 35.2031 186.684 34.5312C186.84 33.8594 187.078 33.2656 187.398 32.75C187.719 32.2266 188.125 31.8203 188.617 31.5312C189.117 31.2344 189.711 31.0859 190.398 31.0859C190.555 31.0859 190.734 31.1055 190.938 31.1445C191.141 31.1758 191.281 31.2109 191.359 31.25ZM201.121 41.5391V26H203.301V44H201.309L201.121 41.5391ZM192.59 37.8008V37.5547C192.59 36.5859 192.707 35.707 192.941 34.918C193.184 34.1211 193.523 33.4375 193.961 32.8672C194.406 32.2969 194.934 31.8594 195.543 31.5547C196.16 31.2422 196.848 31.0859 197.606 31.0859C198.402 31.0859 199.098 31.2266 199.691 31.5078C200.293 31.7812 200.801 32.1836 201.215 32.7148C201.637 33.2383 201.969 33.8711 202.211 34.6133C202.453 35.3555 202.621 36.1953 202.715 37.1328V38.2109C202.629 39.1406 202.461 39.9766 202.211 40.7188C201.969 41.4609 201.637 42.0938 201.215 42.6172C200.801 43.1406 200.293 43.543 199.691 43.8242C199.09 44.0977 198.387 44.2344 197.582 44.2344C196.84 44.2344 196.16 44.0742 195.543 43.7539C194.934 43.4336 194.406 42.9844 193.961 42.4062C193.523 41.8281 193.184 41.1484 192.941 40.3672C192.707 39.5781 192.59 38.7227 192.59 37.8008ZM194.77 37.5547V37.8008C194.77 38.4336 194.832 39.0273 194.957 39.582C195.09 40.1367 195.293 40.625 195.566 41.0469C195.84 41.4688 196.188 41.8008 196.609 42.043C197.031 42.2773 197.535 42.3945 198.121 42.3945C198.84 42.3945 199.43 42.2422 199.891 41.9375C200.359 41.6328 200.734 41.2305 201.016 40.7305C201.297 40.2305 201.516 39.6875 201.672 39.1016V36.2773C201.578 35.8477 201.441 35.4336 201.262 35.0352C201.09 34.6289 200.863 34.2695 200.582 33.957C200.309 33.6367 199.969 33.3828 199.563 33.1953C199.164 33.0078 198.691 32.9141 198.145 32.9141C197.551 32.9141 197.039 33.0391 196.609 33.2891C196.188 33.5312 195.84 33.8672 195.566 34.2969C195.293 34.7188 195.09 35.2109 194.957 35.7734C194.832 36.3281 194.77 36.9219 194.77 37.5547Z" fill="#FFFFDD"/>
</g>
<defs>
<filter id="filter0_i_2_375" x="6.10352e-05" y="0" width="230" height="72" filterUnits="userSpaceOnUse" color-interpolation-filters="sRGB">
<feFlood flood-opacity="0" result="BackgroundImageFix"/>
<feBlend mode="normal" in="SourceGraphic" in2="BackgroundImageFix" result="shape"/>
<feColorMatrix in="SourceAlpha" type="matrix" values="0 0 0 0 0 0 0 0 0 0 0 0 0 0 0 0 0 0 127 0" result="hardAlpha"/>
<feOffset dx="-2" dy="2"/>
<feComposite in2="hardAlpha" operator="arithmetic" k2="-1" k3="1"/>
<feColorMatrix type="matrix" values="0 0 0 0 0 0 0 0 0 0 0 0 0 0 0 0 0 0 0.16 0"/>
<feBlend mode="normal" in2="shape" result="effect1_innerShadow_2_375"/>
</filter>
<clipPath id="clip0_2_375">
<rect width="36" height="40" fill="white" transform="translate(24.0001 16)"/>
</clipPath>
</defs>
</svg>
