<svg width="432" height="480" viewBox="0 0 432 480" fill="none" xmlns="http://www.w3.org/2000/svg">
<path d="M427.173 92.7316C426.254 91.8986 404.226 72.0951 367.281 52.2331C333.141 33.8787 279.181 12 215.998 12C152.815 12 98.8569 33.8778 64.7171 52.2331C27.7711 72.0951 5.74387 91.8986 4.825 92.7316L0 97.1035L0.557753 103.577C0.798494 106.363 6.75923 172.693 35.179 250.55C51.9568 296.514 73.1258 336.883 98.098 370.541C129.674 413.091 167.434 444.977 210.331 465.314L215.999 467.999L221.668 465.314C264.565 444.977 302.323 413.091 333.902 370.541C358.872 336.883 380.043 296.514 396.82 250.55C425.241 172.693 431.202 106.363 431.442 103.577L432 97.1035L427.173 92.7316ZM372.022 241.568C353.166 293.219 320.84 357.478 267.598 403.823C224.699 438.714 237.077 315.39 245.664 289.857C246.348 290.626 247.001 291.411 247.743 292.147C267.639 311.977 299.908 311.975 319.81 292.152C330.76 281.243 335.64 266.612 334.522 252.351C322.191 251.959 309.723 249.564 303.054 247.044C313.554 247.045 323.299 244.307 331.82 239.486C349.577 229.473 361.585 210.515 361.588 188.737C361.588 164.476 346.699 143.686 325.537 134.907C329.003 119.926 324.929 103.564 313.214 91.8891C307.262 85.9602 300.094 81.992 292.51 79.9735C295.706 107.401 279.499 130.989 265.838 135.561C270.64 127.205 273.384 117.521 273.384 107.201C273.384 97.547 270.958 88.46 266.717 80.4861C257.087 62.3825 237.999 50.0367 216.002 50.0331C194.004 50.0366 174.919 62.3861 165.29 80.4861C149.397 75.5704 131.374 79.3556 118.788 91.8891C113.782 96.8789 110.176 102.724 107.953 108.952C129.409 112.412 147.142 123.523 152.995 135.565C145.659 132.267 137.517 130.432 128.947 130.432C120.982 130.432 113.391 132.033 106.466 134.908C85.3063 143.687 70.416 164.476 70.415 188.738C70.415 210.515 82.4266 229.474 100.184 239.486C93.9309 257.309 97.8931 277.908 112.193 292.154C132.096 311.976 164.362 311.98 184.259 292.15C185 291.413 185.654 290.629 186.34 289.859C194.917 315.377 207.907 439.498 164.303 403.733C111.282 357.531 79.0304 293.58 60.199 242.166C37.9008 181.295 29.8349 126.509 27.5828 107.987C46.9874 92.3417 120.93 38.2881 216.002 38.2881C273.371 38.2881 322.747 58.2508 354.064 74.9979C378.643 88.14 396.305 101.434 404.427 107.99C402.193 126.427 394.204 180.797 372.022 241.568Z" fill="#FFFFDD"/>
</svg>
