<svg width="64" height="64" viewBox="0 0 64 64" fill="none" xmlns="http://www.w3.org/2000/svg">
<path fill-rule="evenodd" clip-rule="evenodd" d="M32.363 0.0300266C42.2999 -0.334463 52.6027 2.58877 58.7661 10.4777C64.901 18.3302 64.8591 29.0005 62.61 38.7455C60.3773 48.4191 55.7761 58.0298 46.8386 62.156C38.0696 66.2045 28.2151 62.9357 19.5745 58.6141C11.0807 54.3659 2.96379 48.3754 0.689667 39.0746C-1.62592 29.6042 2.13885 19.8734 8.25782 12.3304C14.2628 4.92784 22.8999 0.377138 32.363 0.0300266Z" fill="#FFFFDD"/>
<path d="M32 17.3333V46.6666" stroke="#007645" stroke-width="2" stroke-linecap="round" stroke-linejoin="round"/>
<path d="M38.6667 22.6667H28.6667C27.429 22.6667 26.242 23.1584 25.3668 24.0335C24.4917 24.9087 24 26.0957 24 27.3334C24 28.571 24.4917 29.758 25.3668 30.6332C26.242 31.5084 27.429 32 28.6667 32H35.3333C36.571 32 37.758 32.4917 38.6332 33.3669C39.5083 34.242 40 35.429 40 36.6667C40 37.9044 39.5083 39.0914 38.6332 39.9665C37.758 40.8417 36.571 41.3334 35.3333 41.3334H24" stroke="#007645" stroke-width="2" stroke-linecap="round" stroke-linejoin="round"/>
</svg>
