<svg width="64" height="64" viewBox="0 0 64 64" fill="none" xmlns="http://www.w3.org/2000/svg">
<path fill-rule="evenodd" clip-rule="evenodd" d="M32.1288 0.0232317C41.9684 -0.199246 52.5902 1.06196 58.834 8.81444C65.1553 16.6631 64.8204 27.7082 62.3481 37.5441C59.9695 47.0072 54.5087 55.367 46.0011 59.8691C37.1589 64.5483 26.6063 65.6007 17.6213 61.213C8.61742 56.8159 2.89789 47.749 0.809543 37.7999C-1.24114 28.0303 0.542128 17.6211 6.86933 9.98938C12.9996 2.59511 22.6318 0.237961 32.1288 0.0232317Z" fill="#FFFFDD"/>
<path d="M37.333 44V41.3333C37.333 39.9188 36.7711 38.5623 35.7709 37.5621C34.7707 36.5619 33.4142 36 31.9997 36H22.6663C21.2519 36 19.8953 36.5619 18.8951 37.5621C17.8949 38.5623 17.333 39.9188 17.333 41.3333V44" stroke="#007645" stroke-width="2" stroke-linecap="round" stroke-linejoin="round"/>
<path d="M27.3333 30.6667C30.2789 30.6667 32.6667 28.2789 32.6667 25.3333C32.6667 22.3878 30.2789 20 27.3333 20C24.3878 20 22 22.3878 22 25.3333C22 28.2789 24.3878 30.6667 27.3333 30.6667Z" stroke="#007645" stroke-width="2" stroke-linecap="round" stroke-linejoin="round"/>
<path d="M40 26.6667L46.6667 33.3334" stroke="#007645" stroke-width="2" stroke-linecap="round" stroke-linejoin="round"/>
<path d="M46.6667 26.6667L40 33.3334" stroke="#007645" stroke-width="2" stroke-linecap="round" stroke-linejoin="round"/>
</svg>
