<svg width="64" height="64" viewBox="0 0 64 64" fill="none" xmlns="http://www.w3.org/2000/svg">
<path fill-rule="evenodd" clip-rule="evenodd" d="M31.9847 0.0200344C41.4114 -0.341618 50.3805 4.21674 56.3878 11.7704C62.5284 19.4919 65.434 29.6391 63.3086 39.4076C61.1779 49.2007 54.3994 57.1886 45.6009 61.3477C37.0362 65.3963 27.3129 64.5808 18.7822 60.4554C10.0932 56.2535 2.25449 49.2367 0.372903 39.4758C-1.46212 29.9565 3.76328 21.0225 9.74222 13.56C15.5255 6.34171 22.9493 0.366672 31.9847 0.0200344Z" fill="#FFFFDD"/>
<path d="M32.0003 45.3333C39.3641 45.3333 45.3337 39.3638 45.3337 32C45.3337 24.6362 39.3641 18.6666 32.0003 18.6666C24.6365 18.6666 18.667 24.6362 18.667 32C18.667 39.3638 24.6365 45.3333 32.0003 45.3333Z" stroke="#007645" stroke-width="2" stroke-linecap="round" stroke-linejoin="round"/>
<path d="M32 40C36.4183 40 40 36.4183 40 32C40 27.5817 36.4183 24 32 24C27.5817 24 24 27.5817 24 32C24 36.4183 27.5817 40 32 40Z" stroke="#007645" stroke-width="2" stroke-linecap="round" stroke-linejoin="round"/>
<path d="M31.9997 34.6667C33.4724 34.6667 34.6663 33.4728 34.6663 32C34.6663 30.5273 33.4724 29.3334 31.9997 29.3334C30.5269 29.3334 29.333 30.5273 29.333 32C29.333 33.4728 30.5269 34.6667 31.9997 34.6667Z" stroke="#007645" stroke-width="2" stroke-linecap="round" stroke-linejoin="round"/>
</svg>
