<svg width="64" height="62" viewBox="0 0 64 62" fill="none" xmlns="http://www.w3.org/2000/svg">
<path fill-rule="evenodd" clip-rule="evenodd" d="M33.1309 0.0460843C43.1713 -0.53212 52.9909 4.37269 58.9575 12.3875C64.6792 20.0734 65.0724 30.2144 62.4236 39.3948C59.96 47.9331 53.7131 54.6197 45.6497 58.51C37.5328 62.426 28.299 63.2718 19.9403 59.891C10.8715 56.2229 2.28192 49.6906 0.342861 40.1845C-1.5565 30.873 4.7822 22.5465 10.8161 15.1599C16.7784 7.86102 23.6648 0.591218 33.1309 0.0460843Z" fill="#FFFFDD"/>
<path d="M31.9997 44.3333C31.9997 44.3333 42.6663 39 42.6663 31V21.6666L31.9997 17.6666L21.333 21.6666V31C21.333 39 31.9997 44.3333 31.9997 44.3333Z" stroke="#007645" stroke-width="2" stroke-linecap="round" stroke-linejoin="round"/>
</svg>
