<svg width="1319" height="1093" viewBox="0 0 1319 1093" fill="none" xmlns="http://www.w3.org/2000/svg">
<g clip-path="url(#clip0_36_2270)">
<path d="M511.745 418.42C536.012 416.326 558.936 419.12 580.49 423.731C584.14 424.472 587.619 425.488 591.269 426.229C586.288 431.526 581.838 437.915 577.202 443.045C567.069 453.914 556.042 461.94 545.375 471.333C544.342 472.218 543.317 473.869 543.157 475.295C542.385 485.493 556.841 473.113 560.458 470.402C567.348 465.146 573.547 460.224 580.258 454.476C583.356 451.823 587.479 447.519 591.264 444.148C596.256 440.002 600.891 434.872 605.709 430.618C605.879 430.342 606.054 430.451 606.225 430.176C632.661 437.437 658.584 445.524 688.584 444.32C689.278 444.37 689.631 444.97 689.293 445.904C681.5 465.853 667.978 485.296 655.303 502.595C644.686 517.359 630.042 528.096 620.646 543.618C622.235 546.511 624.507 548.303 627.975 548.168C630.036 546.016 632.098 543.864 634.159 541.712C641.711 533.053 648.914 524.178 656.291 515.411C656.687 520.615 655.875 526.594 655.58 532.131C655.129 539.477 655.375 547.257 653.368 555.163C652.197 559.775 654.12 561.35 657.566 558.914C661.529 556.036 663.145 543.31 663.632 539.799C664.127 537.056 664.621 534.312 665.112 531.185C667.095 520.594 667.688 509.904 668.467 500.472C679.604 485.65 689.69 469.795 702.052 456.114C713.214 443.977 724.576 434.634 737.351 428.075C753.235 420.014 769.031 421.05 783.933 419.243C796.584 417.946 809.228 415.882 822.378 412.224C828.78 410.479 835.35 408.075 841.923 406.055C845.202 404.277 847.434 401.85 849.314 398.822C852.372 391.95 854.91 385.136 855.419 383.927C856.434 381.125 857.274 378.214 857.769 375.471C857.932 374.428 857.925 373.661 857.918 372.894C858.031 366.481 856.09 362.988 852.779 361.313C826.055 360.356 796.654 369.94 767.282 382.593C750.006 390.171 732.566 398.791 715.461 406.094C701.984 411.836 688.827 414.726 676.339 414.981C659.369 418.173 644.26 416.419 628.112 414.782C608.142 412.68 588.344 410.303 568.371 407.817C558.123 406.412 547.708 405.665 536.954 405.853C530.883 405.897 522.227 407.768 516.312 406.002C513.738 408.98 512.051 414.034 511.745 418.42Z" fill="#A16324"/>
<path d="M661.239 506.662C659.36 509.69 657.825 512.551 656.465 515.52C656.687 520.615 656.046 526.319 655.748 531.472C655.296 538.818 655.543 546.598 653.535 554.504C652.531 558.457 653.763 560.366 656.526 559.031C657.924 541.594 662.089 523.206 661.239 506.662Z" fill="black" fill-opacity="0.16"/>
<path d="M637.527 530.837C645.94 521.569 653.655 511.868 661.015 501.184C667.861 491.325 674.006 480.649 680.155 470.357C685.619 461.166 691.081 451.591 694.459 441.866C692.907 442.809 691.183 444.027 689.456 444.862C689.46 445.246 689.635 445.354 689.293 445.904C681.5 465.853 667.978 485.296 655.303 502.595C644.686 517.359 630.042 528.096 620.646 543.618C621.177 544.71 622.053 545.635 622.929 546.561C627.387 540.939 632.72 536.242 637.527 530.837Z" fill="black" fill-opacity="0.16"/>
<path d="M595.995 430.688C599.413 425.183 595.595 425.101 591.098 426.504L591.273 426.612C586.292 431.909 581.841 438.298 577.206 443.428C567.073 454.297 556.046 462.323 545.378 471.717C544.346 472.601 543.32 474.253 543.16 475.678C543.175 477.213 543.185 478.364 543.883 478.797C557.499 469.327 570.751 458.107 583.295 445.302C587.243 440.89 592.573 435.809 595.995 430.688Z" fill="black" fill-opacity="0.16"/>
<path d="M517.249 413.448C533.376 412.783 550.016 411.293 565.47 412.88C581.444 414.408 596.567 417.696 611.69 420.984C618.815 422.357 625.948 424.498 633.411 424.937C637.577 425.236 641.911 424.875 645.735 425.724C683.085 431.372 725.948 414.512 767.925 395.576C797.638 382.373 833.562 365.398 856.925 377.998C857.26 376.68 857.423 375.638 857.587 374.595C857.58 373.828 857.744 372.786 857.736 372.018C857.85 365.606 855.909 362.113 852.597 360.438C825.873 359.481 796.473 369.065 767.101 381.717C749.824 389.295 732.384 397.916 715.279 405.218C701.802 410.961 688.645 413.851 676.157 414.106C659.187 417.297 644.078 415.544 627.93 413.907C607.961 411.805 588.162 409.427 568.19 406.942C557.942 405.536 547.526 404.79 536.773 404.977C530.701 405.021 522.045 406.892 516.131 405.127C514.247 407.771 512.887 410.74 512.051 414.034C513.956 413.691 515.69 413.624 517.249 413.448Z" fill="black" fill-opacity="0.16"/>
<path opacity="0.6" d="M664.048 528.617C662.567 537.231 661.777 545.512 659.777 554.185C662.308 546.604 663.279 539.199 664.425 531.902C666.069 522.245 667.536 512.097 667.453 503.274C667.449 502.891 667.107 503.441 667.107 503.441C666.489 511.447 665.528 520.003 664.048 528.617Z" fill="white" fill-opacity="0.16"/>
<path opacity="0.6" d="M627.441 546.692C637.577 536.207 648.579 525.496 656.96 512.776C657.131 512.501 656.956 512.393 656.786 512.668C647.703 524.571 637.221 535.223 627.441 546.692C627.441 546.692 627.266 546.584 627.441 546.692Z" fill="white" fill-opacity="0.16"/>
<path opacity="0.6" d="M709.069 445.98C715.257 439.907 720.402 433.568 727.474 429.188C734.374 425.082 742.321 421.627 749.247 420.207C760.848 417.876 772.1 415.329 783.537 414.04C794.8 412.643 805.891 411.522 817.318 409.082C826.148 407.32 837.233 405.431 845.846 398.957C845.675 399.232 845.675 399.232 845.85 399.34L846.195 399.174C846.366 398.898 846.537 398.623 846.191 398.79C821.64 407.572 798.592 410.04 775.026 412.951C763.938 414.456 752.337 416.787 740.929 421.144C735.916 422.989 729.87 425.718 725.22 429.313C719.192 433.96 714.047 440.3 708.55 446.039C708.724 446.147 708.899 446.256 709.069 445.98Z" fill="white" fill-opacity="0.16"/>
<path opacity="0.6" d="M610.537 427.514C621.693 433.297 634.908 436.544 647.766 438.807C654.542 439.964 660.977 441.671 668.095 442.277C675.733 442.824 683.869 441.012 691.845 440.625C685.076 440.236 677.798 441.056 670.854 440.558C663.216 440.01 655.92 438.912 648.62 437.431C635.413 434.951 622.719 431.645 610.708 427.239C610.704 426.855 610.362 427.406 610.537 427.514Z" fill="white" fill-opacity="0.16"/>
<path opacity="0.6" d="M555.274 472.522C562.854 466.932 570.435 461.342 578.008 454.985C586.268 447.911 595.561 439.952 603.113 431.294C603.284 431.019 603.28 430.635 602.935 430.802C587.29 445.876 571.635 459.799 555.274 472.522Z" fill="white" fill-opacity="0.16"/>
<path opacity="0.6" d="M529.588 415.77C540.003 416.517 550.59 416.988 560.663 418.285C568.828 419.541 578.022 419.529 585.507 422.27C577.841 418.654 568.123 418.341 559.438 417.143C549.884 415.787 539.989 414.982 529.93 415.22C529.755 415.111 529.413 415.662 529.588 415.77Z" fill="white" fill-opacity="0.16"/>
</g>
<path fill-rule="evenodd" clip-rule="evenodd" d="M663.706 494.27C593.722 503.133 552.081 579.541 502.77 637.634C454.234 694.812 391.103 743.994 384.074 823.693C376.557 908.937 408.977 997.582 466.228 1052C519.796 1102.91 594.461 1093.8 663.706 1089.47C727.675 1085.47 791.484 1075.68 840.913 1028.56C895.533 976.502 938.185 905.377 942.547 823.693C947.145 737.613 916.411 653.5 864.236 591.86C811.504 529.564 738.651 484.78 663.706 494.27Z" fill="#05BE70"/>
<path fill-rule="evenodd" clip-rule="evenodd" d="M663.706 494.27C593.722 503.133 552.081 579.541 502.77 637.634C454.234 694.812 391.103 743.994 384.074 823.693C376.557 908.937 408.977 977.582 466.228 1032C519.796 1082.91 594.461 1073.8 663.706 1069.47C727.675 1065.47 791.484 1055.68 840.913 1008.56C895.533 956.502 938.185 905.377 942.547 823.693C947.145 737.613 916.411 653.5 864.236 591.86C811.504 529.564 738.651 484.78 663.706 494.27Z" fill="#08D57F"/>
<path fill-rule="evenodd" clip-rule="evenodd" d="M512.374 90.4013C588.922 129.126 642.534 210.091 651.074 296.397C658.796 374.432 598.553 437.366 553.084 501.794C513.788 557.473 475.634 618.393 410.655 637.061C345.206 655.864 282.133 622.957 219.532 597.619C141.022 565.841 37.9984 554.327 8.57924 474.317C-21.5837 392.285 33.5413 303.264 84.9089 231.493C130.734 167.465 198.633 129.562 272.858 105.063C352.153 78.8907 438.544 53.0519 512.374 90.4013Z" fill="#05BE70"/>
<path fill-rule="evenodd" clip-rule="evenodd" d="M512.305 90.7023C588.853 129.427 642.465 210.392 651.005 296.698C658.727 374.733 598.484 437.667 553.015 502.095C513.719 557.774 485.797 600.972 420.818 619.64C355.37 638.442 292.296 605.536 229.695 580.197C151.185 548.42 48.1614 536.905 18.7423 456.896C-11.4207 374.863 33.4724 303.565 84.84 231.794C130.665 167.766 198.564 129.863 272.789 105.364C352.085 79.1917 438.475 53.3529 512.305 90.7023Z" fill="#08D57F"/>
<path fill-rule="evenodd" clip-rule="evenodd" d="M1316.89 373.356C1326.14 303.891 1261.53 243.773 1216.95 181.135C1173.07 119.481 1140.82 45.9414 1064.08 18.1523C981.991 -11.5701 886.289 -3.88546 817.943 36.6562C753.996 74.5888 743.783 148.609 730.256 216.168C717.759 278.58 711.014 342.368 744.747 402.22C782.021 468.357 841.161 528.05 920.547 553.806C1004.21 580.948 1095.01 573.684 1169.17 539.919C1244.12 505.795 1306.98 447.746 1316.89 373.356Z" fill="#05BE70"/>
<path fill-rule="evenodd" clip-rule="evenodd" d="M1317.14 372.43C1326.39 302.965 1261.78 242.847 1217.2 180.208C1173.32 118.555 1141.07 45.015 1064.32 17.2259C982.238 -12.4965 906.248 0.469994 837.902 41.0116C773.955 78.9442 763.742 152.964 750.215 220.523C737.718 282.935 730.973 346.724 764.706 406.576C801.98 472.712 841.408 527.124 920.794 552.88C1004.45 580.022 1095.25 572.758 1169.42 538.993C1244.37 504.868 1307.23 446.819 1317.14 372.43Z" fill="#08D57F"/>
<defs>
<clipPath id="clip0_36_2270">
<rect width="280" height="280" fill="white" transform="translate(719.778 607.473) rotate(-148.165)"/>
</clipPath>
</defs>
</svg>
