<svg width="78" height="80" viewBox="0 0 78 80" fill="none" xmlns="http://www.w3.org/2000/svg">
<g clip-path="url(#clip0_33_1646)">
<path d="M40.0575 63.3997C39.8561 63.3997 39.7554 63.2963 39.6547 63.1928C39.4533 62.9858 39.4533 62.7788 39.554 62.5718C39.8561 61.8474 40.1583 60.9159 40.5611 59.9845C41.5682 57.5007 43.5825 52.6365 46.4025 47.7723C48.2154 44.564 50.3303 41.6662 53.1503 38.5615C50.0282 41.5627 47.3089 44.6675 45.0932 47.9793C41.8704 52.6365 39.4533 57.3972 38.2447 59.7775C37.9426 60.5019 37.6404 61.1229 37.3383 61.6404C37.2376 61.8474 37.0361 61.9509 36.8347 61.9509C36.6333 61.9509 36.3311 61.7439 36.3311 61.5369C36.2304 61.1229 36.029 60.6054 35.9283 59.9845L35.8276 59.7775C35.5254 58.7426 35.2233 57.3972 35.0219 55.9483C34.8204 54.4994 34.7197 52.8435 34.7197 50.9806C34.8204 47.0479 35.5254 43.1151 36.734 39.6999C37.3383 37.9405 38.144 36.0776 39.3525 34.0078C40.3597 32.1449 41.669 30.3855 42.9782 28.7296C44.3882 27.0737 45.9997 25.5214 47.6111 24.1759C52.9489 19.7257 59.7974 17.1384 66.646 17.1384C68.5595 17.1384 70.3724 17.3454 72.1852 17.7594C72.4874 17.8629 75.1059 18.3803 76.5159 19.1048C76.8181 19.3118 77.8252 19.7258 77.6238 20.5537L77.3216 21.5886C77.2209 21.7956 77.1202 22.1061 77.0195 22.4166C76.8181 22.934 76.7174 23.555 76.4152 24.1759C75.7102 25.9353 75.1059 27.6947 74.6024 29.3506C73.7967 31.7309 72.991 34.1113 71.9838 36.3881C69.3653 42.1837 65.8403 47.2549 61.5096 51.4981C57.481 55.4308 52.1432 58.7426 45.2947 61.6404C44.3882 61.9509 43.5825 62.2613 42.7768 62.5718C42.374 62.6753 42.0718 62.7788 41.669 62.8823C41.3668 62.9858 41.1654 63.0893 40.964 63.0893C40.964 63.0893 40.8633 63.0893 40.7625 63.0893H40.6618C40.259 63.3998 40.1583 63.3997 40.0575 63.3997Z" fill="#08D57F"/>
<path d="M66.4444 17.9664C68.2572 17.9664 70.0701 18.1734 71.7822 18.5874C72.1851 18.6909 74.6022 19.2083 75.9115 19.8293C76.4151 20.0363 76.7172 20.3467 76.7172 20.5537C76.7172 20.5537 76.6165 20.9677 76.4151 21.5887C76.2136 22.2096 75.9115 23.2445 75.6093 24.176C73.9979 28.2122 72.9908 32.4554 71.1779 36.3881C68.5594 42.0802 65.1351 47.0479 60.7037 51.2911C56.1716 55.7413 50.4309 58.8461 44.5895 61.3299C43.2802 61.8474 42.0717 62.2613 40.9638 62.5718C40.6617 62.6753 40.561 62.6753 40.4602 62.6753C40.3595 62.6753 40.3595 62.6753 40.2588 62.6753C40.1581 62.6753 40.1581 62.6753 39.9567 62.7788C40.2588 62.0544 40.561 61.1229 40.9638 60.1915C42.2731 56.7762 44.2874 52.326 46.8052 48.0828C49.5245 43.3222 52.848 39.4929 56.5744 35.6637C57.078 35.1462 57.6823 34.8357 58.0851 34.5253C58.7901 34.0078 58.488 34.0078 58.3873 34.0078H58.2866C58.2866 34.0078 57.783 34.3183 56.8766 34.8357C56.4737 35.1462 55.8694 35.4567 55.2652 35.8707C54.6609 36.2846 53.9559 36.8021 53.2509 37.4231C49.9273 40.5278 46.9059 43.8396 44.2874 47.6688C41.4674 51.8086 39.0502 56.1553 37.4388 59.5705C37.1367 60.295 36.8345 60.9159 36.5324 61.4334C36.331 61.0194 36.2303 60.502 36.1295 59.9845C35.8274 58.8461 35.5253 57.5007 35.3238 56.0518C35.1224 54.6029 35.0217 52.947 35.0217 51.1876C35.1224 47.7723 35.626 43.8396 37.036 40.1139C37.6403 38.251 38.5467 36.3881 39.5538 34.5253C40.561 32.6624 41.8702 31.0065 43.1795 29.3506C44.5895 27.6947 46.1002 26.2458 47.7116 24.9004C52.9487 20.5537 59.6966 17.9664 66.4444 17.9664ZM66.4444 16.7245C59.4951 16.7245 52.4452 19.3118 47.1073 23.969C45.3952 25.3144 43.7838 26.8668 42.3738 28.5227C41.0645 30.1786 39.7552 31.9379 38.6474 33.9043C37.5395 35.9742 36.6331 37.837 36.0288 39.6999C34.7196 43.2187 34.0146 47.1514 34.0146 51.1876C34.0146 53.0505 34.1153 54.7064 34.3167 56.2588C34.5181 57.7077 34.8203 59.0531 35.1224 60.088L35.2231 60.295C35.3238 60.9159 35.5253 61.4334 35.7267 61.8474C35.9281 62.3648 36.331 62.6753 36.8345 62.6753C36.8345 62.6753 36.8345 62.6753 36.9353 62.6753C37.4388 62.6753 37.8417 62.3648 38.0431 61.9509C38.3452 61.3299 38.6474 60.709 38.9495 60.088C39.9567 57.9146 42.0717 53.8784 44.8916 49.6352C42.6759 53.7749 41.0645 57.6042 40.2588 59.674C39.856 60.709 39.5538 61.6404 39.2517 62.2613C39.0502 62.6753 39.151 63.1928 39.4531 63.5033C39.6545 63.8137 40.0574 63.9172 40.3595 63.9172C40.4602 63.9172 40.561 63.9172 40.6617 63.9172H40.7624C41.0645 63.9172 41.3667 63.8137 41.6688 63.7102C41.9709 63.6068 42.3738 63.5033 42.6759 63.3998C43.4817 63.0893 44.3881 62.8823 45.2945 62.4683C52.3445 59.5705 57.6823 56.1553 61.7108 52.2225C66.1423 47.8758 69.6672 42.8047 72.2858 36.9056C73.2929 34.5253 74.1994 32.1449 74.9044 29.7646C75.5086 28.0052 76.1129 26.2458 76.7172 24.5899C77.0193 23.969 77.2208 23.2445 77.3215 22.7271C77.4222 22.4166 77.5229 22.2096 77.5229 22.0026C77.5229 22.0026 77.5229 22.0026 77.5229 21.8991C77.7243 21.2782 77.825 20.8642 77.825 20.8642C78.0265 20.2432 77.9258 19.4153 76.4151 18.6909C75.0051 17.9664 72.2858 17.3454 71.9837 17.3454C70.1708 16.9315 68.358 16.7245 66.4444 16.7245Z" fill="#FFFFDD"/>
<path d="M31.0942 59.7775C28.2743 59.7775 25.8571 59.7775 22.5336 58.5356C20.8214 57.9146 19.0086 57.0867 16.9943 55.8447C10.5486 52.119 5.41223 46.1164 2.79367 39.3894C-0.0263115 32.0414 -0.0263117 24.0724 2.69296 17.8629C2.9951 17.2419 3.19653 16.8279 3.19653 16.8279C3.29724 16.6209 3.49867 16.5175 3.7001 16.5175C3.80081 16.5175 3.80081 16.5175 3.90153 16.5175L4.90866 16.8279C5.11009 17.0349 5.41223 17.1384 5.71437 17.2419C6.21794 17.4489 6.82223 17.5524 7.42651 17.8629L10.8508 19.1048C12.1601 19.5187 13.4693 20.0362 14.7786 20.5537L15.5843 20.8642C16.6922 21.2781 17.8 21.7956 18.9079 22.3131L19.7136 22.6235C20.8214 23.141 22.03 23.6585 23.0371 24.2794C27.1664 26.5563 30.49 29.1436 33.0078 32.1449C33.6121 32.8693 34.1157 33.5938 34.6192 34.3182C34.9214 34.7322 35.2235 35.1462 35.5257 35.5601C35.6264 35.7671 35.7271 35.9741 35.6264 36.1811C34.1157 40.6313 33.3099 44.6675 33.1085 49.1177C33.1085 49.3247 33.0078 49.5317 32.8064 49.6352C32.7057 49.7387 32.605 49.7387 32.5042 49.7387C32.4035 49.7387 32.3028 49.7387 32.2021 49.6352L32.0007 49.5317C31.195 49.1177 30.3892 48.7037 29.5835 48.1863C27.4685 46.9444 26.5621 46.2199 24.7493 44.8745L22.6343 43.1151L24.85 45.2885C26.7636 47.0478 28.5764 48.4967 30.3892 49.8422C31.0942 50.3596 31.3964 50.4631 31.6985 50.7736C31.9 50.8771 32.2021 51.0841 32.605 51.2911C32.8064 51.3945 32.9071 51.6015 32.9071 51.8085C32.9071 54.3958 33.0078 56.7762 33.3099 59.053C33.3099 59.26 33.31 59.3635 33.2092 59.5705C33.1085 59.7775 32.9071 59.7775 32.8064 59.7775C32.605 59.7775 32.5042 59.7775 32.4035 59.7775C32.5042 59.7775 31.4971 59.7775 31.0942 59.7775Z" fill="#FFFFDD"/>
<path d="M3.70009 17.2419C3.70009 17.2419 4.00224 17.3454 4.70723 17.5524C5.31152 17.7594 6.31865 18.0699 7.22508 18.3803C8.1315 18.6908 9.34007 19.1048 10.6493 19.6223C11.9586 20.1397 13.2679 20.5537 14.5772 21.1746C15.8865 21.6921 17.3972 22.2096 18.7064 22.8305C20.0157 23.4515 21.5264 24.0724 22.735 24.9004C26.3607 26.8668 29.8857 29.4541 32.6049 32.5589C33.5114 33.5938 34.3171 34.8357 35.1228 35.9741C33.7128 40.2173 32.8064 44.357 32.5042 49.1177C31.5978 48.6003 30.7921 48.1863 29.8857 47.6688C27.7707 46.4269 26.965 45.806 25.1521 44.4605C24.2457 43.7361 23.44 43.0116 22.6343 42.3907C21.9293 41.6662 21.2243 40.9418 20.5193 40.3208C19.915 39.5964 19.4114 38.9754 18.9079 38.458C18.4043 37.9405 18.1022 37.3195 17.8 36.9056C17.2965 36.0776 16.8936 36.0776 16.7929 36.0776C16.7929 36.0776 17.095 36.5951 17.5986 37.5265C17.9007 37.9405 18.2029 38.5614 18.6057 39.1824C19.0086 39.8034 19.5122 40.5278 20.1164 41.2523C20.7207 41.9767 21.4257 42.7012 22.1307 43.5291C22.9364 44.2536 23.6414 45.0815 24.5478 45.9094C26.26 47.4618 28.1735 49.0142 30.1878 50.4631C31.2957 51.2911 31.2957 51.1876 32.4035 51.912C32.4035 54.3959 32.5042 56.8797 32.8064 59.26C32.7057 59.26 32.5042 59.26 32.4035 59.26C29.08 59.1565 26.3607 59.3635 22.735 58.0181C20.9222 57.3972 19.1093 56.4657 17.2965 55.4308C11.1529 51.912 6.01651 46.0129 3.39795 39.2859C0.880109 32.5589 0.37654 24.6934 3.29724 18.1734C3.49867 17.5524 3.70009 17.2419 3.70009 17.2419ZM3.70009 16C3.29724 16 2.89438 16.207 2.69296 16.621C2.69296 16.621 2.49153 17.0349 2.18939 17.6559C-0.630598 23.969 -0.630598 32.1449 2.2901 39.6999C4.90866 46.5304 10.2465 52.6365 16.7929 56.4657C18.8072 57.6041 20.62 58.5356 22.4329 59.1565C25.7564 60.3984 28.375 60.5019 31.0942 60.5019C31.4971 60.5019 32.0007 60.5019 32.5042 60.5019C32.7057 60.5019 32.8064 60.5019 32.9071 60.5019H33.0078C33.3099 60.5019 33.6121 60.295 33.9142 60.088C34.2164 59.881 34.2164 59.467 34.1157 59.1565C33.8135 56.8797 33.6121 54.4994 33.7128 52.0155C33.7128 51.6016 33.5114 51.1876 33.1085 50.9806C32.9071 50.8771 32.7057 50.6701 32.5042 50.5666H32.6049C32.8064 50.5666 33.0078 50.4631 33.2092 50.3596C33.6121 50.1527 33.8135 49.7387 33.8135 49.3247C34.1157 44.978 34.9214 40.8383 36.3314 36.4916C36.4321 36.0776 36.4321 35.6636 36.1299 35.3532C35.8278 34.9392 35.5257 34.5252 35.2235 34.1113C34.7199 33.3868 34.1157 32.5589 33.5114 31.8344C30.9935 28.8331 27.5693 26.2458 23.3393 23.8655C22.2314 23.2445 21.1236 22.727 20.0157 22.1061C19.7136 22.0026 19.5122 21.8991 19.21 21.7956C18.1022 21.2781 16.9943 20.8642 15.8865 20.3467L15.0808 20.0362C13.7715 19.5188 12.3615 19.0013 11.0522 18.5873L9.84363 18.0699L7.62793 17.2419C7.02365 17.0349 6.41937 16.8279 5.9158 16.621C5.61366 16.5175 5.31152 16.5175 5.11009 16.414H5.00937L4.10295 16.1035C3.90152 16 3.80081 16 3.70009 16Z" fill="#08D57F"/>
</g>
<defs>
<clipPath id="clip0_33_1646">
<rect width="77.8518" height="80" fill="white" transform="translate(0.0741272)"/>
</clipPath>
</defs>
</svg>
