<svg width="214" height="72" viewBox="0 0 214 72" fill="none" xmlns="http://www.w3.org/2000/svg">
<path d="M51.5977 23.7276C51.5212 23.6582 49.6855 22.0079 46.6067 20.3528C43.7618 18.8232 39.2651 17 33.9998 17C28.7346 17 24.2381 18.8231 21.3931 20.3528C18.3143 22.0079 16.4787 23.6582 16.4021 23.7276L16 24.092L16.0465 24.6314C16.0665 24.8635 16.5633 30.3911 18.9316 36.8792C20.3297 40.7095 22.0938 44.0736 24.1748 46.8784C26.8061 50.4243 29.9529 53.0814 33.5276 54.7761L33.9999 55L34.4724 54.7761C38.0471 53.0814 41.1936 50.4243 43.8252 46.8784C45.906 44.0736 47.6702 40.7095 49.0683 36.8792C51.4368 30.3911 51.9335 24.8635 51.9535 24.6314L52 24.092L51.5977 23.7276ZM47.0018 36.1307C45.4305 40.435 42.7366 45.7899 38.2998 49.6519C34.725 52.5595 35.7564 42.2825 36.472 40.1547C36.529 40.2189 36.5834 40.2842 36.6452 40.3456C38.3032 41.9981 40.9923 41.9979 42.6509 40.346C43.5633 39.4369 43.97 38.2177 43.8769 37.0293C42.8492 36.9966 41.8102 36.797 41.2545 36.587C42.1295 36.5871 42.9416 36.3589 43.6517 35.9571C45.1314 35.1228 46.1321 33.5429 46.1323 31.7281C46.1323 29.7063 44.8916 27.9738 43.1281 27.2422C43.4169 25.9939 43.0774 24.6303 42.1012 23.6574C41.6052 23.1633 41.0079 22.8327 40.3758 22.6645C40.6422 24.9501 39.2916 26.9157 38.1531 27.2967C38.5533 26.6004 38.782 25.7934 38.782 24.9334C38.782 24.1289 38.5798 23.3717 38.2264 22.7072C37.4239 21.1985 35.8333 20.1697 34.0001 20.1694C32.167 20.1697 30.5766 21.1988 29.7742 22.7072C28.4498 22.2975 26.9478 22.613 25.899 23.6574C25.4819 24.0732 25.1813 24.5603 24.9961 25.0793C26.784 25.3677 28.2618 26.2936 28.7496 27.297C28.1383 27.0223 27.4598 26.8693 26.7456 26.8693C26.0818 26.8693 25.4492 27.0028 24.8722 27.2423C23.1089 27.9739 21.868 29.7063 21.8679 31.7282C21.8679 33.5429 22.8689 35.1229 24.3486 35.9571C23.8276 37.4424 24.1578 39.159 25.3494 40.3461C27.008 41.998 29.6968 41.9983 31.3549 40.3458C31.4167 40.2844 31.4712 40.2191 31.5283 40.155C32.2431 42.2814 33.3256 52.6249 29.6919 49.6444C25.2735 45.7943 22.5859 40.465 21.0166 36.1805C19.1584 31.1079 18.4862 26.5424 18.2986 24.9989C19.9156 23.6951 26.0775 19.1907 34.0001 19.1907C38.7809 19.1907 42.8956 20.8542 45.5054 22.2498C47.5536 23.345 49.0254 24.4528 49.7022 24.9992C49.5161 26.5356 48.8504 31.0664 47.0018 36.1307Z" fill="white"/>
<path d="M83.2578 34.8828V41.8906C82.9688 42.2109 82.5234 42.5547 81.9219 42.9219C81.3281 43.2812 80.5781 43.5898 79.6719 43.8477C78.7656 44.1055 77.6992 44.2344 76.4727 44.2344C75.3398 44.2344 74.3125 44.0547 73.3906 43.6953C72.4688 43.3281 71.6758 42.793 71.0117 42.0898C70.3555 41.3789 69.8477 40.5117 69.4883 39.4883C69.1367 38.457 68.9609 37.2773 68.9609 35.9492V35C68.9609 33.6719 69.1406 32.4922 69.5 31.4609C69.8594 30.4297 70.3633 29.5625 71.0117 28.8594C71.668 28.1484 72.4375 27.6094 73.3203 27.2422C74.2109 26.875 75.1875 26.6914 76.25 26.6914C77.8203 26.6914 79.0977 26.9414 80.082 27.4414C81.0664 27.9336 81.8125 28.6172 82.3203 29.4922C82.8281 30.3594 83.1367 31.3633 83.2461 32.5039H79.2969C79.2188 31.9414 79.0703 31.4648 78.8516 31.0742C78.6406 30.6758 78.3359 30.375 77.9375 30.1719C77.5391 29.9609 77.0234 29.8555 76.3906 29.8555C75.8984 29.8555 75.4492 29.9609 75.043 30.1719C74.6445 30.3828 74.3047 30.7031 74.0234 31.1328C73.7422 31.5547 73.5234 32.0859 73.3672 32.7266C73.2188 33.3672 73.1445 34.1172 73.1445 34.9766V35.9492C73.1445 36.8008 73.2148 37.5469 73.3555 38.1875C73.5039 38.8281 73.7227 39.3633 74.0117 39.793C74.3086 40.2148 74.6836 40.5352 75.1367 40.7539C75.5977 40.9648 76.1406 41.0703 76.7656 41.0703C77.2031 41.0703 77.5781 41.0352 77.8906 40.9648C78.2031 40.8867 78.4609 40.793 78.6641 40.6836C78.875 40.5664 79.0352 40.457 79.1445 40.3555V37.707H76.2852V34.8828H83.2578ZM89.457 34.4609V44H85.5078V31.3203H89.1992L89.457 34.4609ZM93.207 31.2266L93.1367 34.8945C92.9805 34.8789 92.7695 34.8594 92.5039 34.8359C92.2383 34.8125 92.0156 34.8008 91.8359 34.8008C91.375 34.8008 90.9766 34.8555 90.6406 34.9648C90.3125 35.0664 90.0391 35.2227 89.8203 35.4336C89.6094 35.6367 89.4531 35.8945 89.3516 36.207C89.2578 36.5195 89.2148 36.8828 89.2227 37.2969L88.5078 36.8281C88.5078 35.9766 88.5898 35.2031 88.7539 34.5078C88.9258 33.8047 89.168 33.1992 89.4805 32.6914C89.793 32.1758 90.1719 31.7812 90.6172 31.5078C91.0625 31.2266 91.5625 31.0859 92.1172 31.0859C92.3125 31.0859 92.5039 31.0977 92.6914 31.1211C92.8867 31.1445 93.0586 31.1797 93.207 31.2266ZM100.473 44.2344C99.4414 44.2344 98.5195 44.0742 97.707 43.7539C96.8945 43.4258 96.207 42.9766 95.6445 42.4062C95.0898 41.8359 94.6641 41.1797 94.3672 40.4375C94.0781 39.6953 93.9336 38.9102 93.9336 38.082V37.6367C93.9336 36.707 94.0625 35.8477 94.3203 35.0586C94.5781 34.2617 94.9609 33.5664 95.4688 32.9727C95.9766 32.3789 96.6133 31.918 97.3789 31.5898C98.1445 31.2539 99.0352 31.0859 100.051 31.0859C100.949 31.0859 101.754 31.2305 102.465 31.5195C103.176 31.8086 103.777 32.2227 104.27 32.7617C104.77 33.3008 105.148 33.9531 105.406 34.7188C105.672 35.4844 105.805 36.3438 105.805 37.2969V38.9023H95.4453V36.4297H101.949V36.125C101.957 35.7031 101.883 35.3438 101.727 35.0469C101.578 34.75 101.359 34.5234 101.07 34.3672C100.781 34.2109 100.43 34.1328 100.016 34.1328C99.5859 34.1328 99.2305 34.2266 98.9492 34.4141C98.6758 34.6016 98.4609 34.8594 98.3047 35.1875C98.1562 35.5078 98.0508 35.8789 97.9883 36.3008C97.9258 36.7227 97.8945 37.168 97.8945 37.6367V38.082C97.8945 38.5508 97.957 38.9766 98.082 39.3594C98.2148 39.7422 98.4023 40.0703 98.6445 40.3438C98.8945 40.6094 99.1914 40.8164 99.5352 40.9648C99.8867 41.1133 100.285 41.1875 100.73 41.1875C101.27 41.1875 101.801 41.0859 102.324 40.8828C102.848 40.6797 103.297 40.3438 103.672 39.875L105.465 42.0078C105.207 42.375 104.84 42.7305 104.363 43.0742C103.895 43.418 103.332 43.6992 102.676 43.918C102.02 44.1289 101.285 44.2344 100.473 44.2344ZM113.551 44.2344C112.52 44.2344 111.598 44.0742 110.785 43.7539C109.973 43.4258 109.285 42.9766 108.723 42.4062C108.168 41.8359 107.742 41.1797 107.445 40.4375C107.156 39.6953 107.012 38.9102 107.012 38.082V37.6367C107.012 36.707 107.141 35.8477 107.398 35.0586C107.656 34.2617 108.039 33.5664 108.547 32.9727C109.055 32.3789 109.691 31.918 110.457 31.5898C111.223 31.2539 112.113 31.0859 113.129 31.0859C114.027 31.0859 114.832 31.2305 115.543 31.5195C116.254 31.8086 116.855 32.2227 117.348 32.7617C117.848 33.3008 118.227 33.9531 118.484 34.7188C118.75 35.4844 118.883 36.3438 118.883 37.2969V38.9023H108.523V36.4297H115.027V36.125C115.035 35.7031 114.961 35.3438 114.805 35.0469C114.656 34.75 114.438 34.5234 114.148 34.3672C113.859 34.2109 113.508 34.1328 113.094 34.1328C112.664 34.1328 112.309 34.2266 112.027 34.4141C111.754 34.6016 111.539 34.8594 111.383 35.1875C111.234 35.5078 111.129 35.8789 111.066 36.3008C111.004 36.7227 110.973 37.168 110.973 37.6367V38.082C110.973 38.5508 111.035 38.9766 111.16 39.3594C111.293 39.7422 111.48 40.0703 111.723 40.3438C111.973 40.6094 112.27 40.8164 112.613 40.9648C112.965 41.1133 113.363 41.1875 113.809 41.1875C114.348 41.1875 114.879 41.0859 115.402 40.8828C115.926 40.6797 116.375 40.3438 116.75 39.875L118.543 42.0078C118.285 42.375 117.918 42.7305 117.441 43.0742C116.973 43.418 116.41 43.6992 115.754 43.918C115.098 44.1289 114.363 44.2344 113.551 44.2344ZM124.367 34.0273V44H120.418V31.3203H124.121L124.367 34.0273ZM123.898 37.2266L122.973 37.25C122.973 36.2812 123.09 35.418 123.324 34.6602C123.559 33.8945 123.891 33.2461 124.32 32.7148C124.75 32.1836 125.262 31.7812 125.855 31.5078C126.457 31.2266 127.125 31.0859 127.859 31.0859C128.445 31.0859 128.98 31.1719 129.465 31.3438C129.957 31.5156 130.379 31.793 130.73 32.1758C131.09 32.5586 131.363 33.0664 131.551 33.6992C131.746 34.3242 131.844 35.0977 131.844 36.0195V44H127.871V36.0078C127.871 35.5 127.801 35.1133 127.66 34.8477C127.52 34.5742 127.316 34.3867 127.051 34.2852C126.785 34.1836 126.461 34.1328 126.078 34.1328C125.672 34.1328 125.328 34.2109 125.047 34.3672C124.766 34.5234 124.539 34.7422 124.367 35.0234C124.203 35.2969 124.082 35.6211 124.004 35.9961C123.934 36.3711 123.898 36.7812 123.898 37.2266ZM147.512 35.5039V41.75C147.301 42.0625 146.965 42.4141 146.504 42.8047C146.043 43.1875 145.406 43.5234 144.594 43.8125C143.789 44.0938 142.75 44.2344 141.477 44.2344C140.438 44.2344 139.48 44.0547 138.605 43.6953C137.738 43.3281 136.984 42.7969 136.344 42.1016C135.711 41.3984 135.219 40.5469 134.867 39.5469C134.523 38.5391 134.352 37.3984 134.352 36.125V34.8008C134.352 33.5273 134.5 32.3906 134.797 31.3906C135.102 30.3906 135.547 29.543 136.133 28.8477C136.719 28.1445 137.438 27.6133 138.289 27.2539C139.141 26.8867 140.117 26.7031 141.219 26.7031C142.523 26.7031 143.613 26.9297 144.488 27.3828C145.371 27.8281 146.059 28.4453 146.551 29.2344C147.051 30.0234 147.371 30.9219 147.512 31.9297H145.25C145.148 31.3125 144.945 30.75 144.641 30.2422C144.344 29.7344 143.918 29.3281 143.363 29.0234C142.809 28.7109 142.094 28.5547 141.219 28.5547C140.43 28.5547 139.746 28.6992 139.168 28.9883C138.59 29.2773 138.113 29.6914 137.738 30.2305C137.363 30.7695 137.082 31.4219 136.895 32.1875C136.715 32.9531 136.625 33.8164 136.625 34.7773V36.125C136.625 37.1094 136.738 37.9883 136.965 38.7617C137.199 39.5352 137.531 40.1953 137.961 40.7422C138.391 41.2812 138.902 41.6914 139.496 41.9727C140.098 42.2539 140.762 42.3945 141.488 42.3945C142.293 42.3945 142.945 42.3281 143.445 42.1953C143.945 42.0547 144.336 41.8906 144.617 41.7031C144.898 41.5078 145.113 41.3242 145.262 41.1523V37.332H141.312V35.5039H147.512ZM158.691 41.0703V31.3203H160.871V44H158.797L158.691 41.0703ZM159.102 38.3984L160.004 38.375C160.004 39.2188 159.914 40 159.734 40.7188C159.562 41.4297 159.281 42.0469 158.891 42.5703C158.5 43.0938 157.988 43.5039 157.355 43.8008C156.723 44.0898 155.953 44.2344 155.047 44.2344C154.43 44.2344 153.863 44.1445 153.348 43.9648C152.84 43.7852 152.402 43.5078 152.035 43.1328C151.668 42.7578 151.383 42.2695 151.18 41.668C150.984 41.0664 150.887 40.3438 150.887 39.5V31.3203H153.055V39.5234C153.055 40.0938 153.117 40.5664 153.242 40.9414C153.375 41.3086 153.551 41.6016 153.77 41.8203C153.996 42.0312 154.246 42.1797 154.52 42.2656C154.801 42.3516 155.09 42.3945 155.387 42.3945C156.309 42.3945 157.039 42.2188 157.578 41.8672C158.117 41.5078 158.504 41.0273 158.738 40.4258C158.98 39.8164 159.102 39.1406 159.102 38.3984ZM171.652 41.832V35.3047C171.652 34.8047 171.551 34.3711 171.348 34.0039C171.152 33.6289 170.855 33.3398 170.457 33.1367C170.059 32.9336 169.566 32.832 168.98 32.832C168.434 32.832 167.953 32.9258 167.539 33.1133C167.133 33.3008 166.812 33.5469 166.578 33.8516C166.352 34.1562 166.238 34.4844 166.238 34.8359H164.07C164.07 34.3828 164.188 33.9336 164.422 33.4883C164.656 33.043 164.992 32.6406 165.43 32.2812C165.875 31.9141 166.406 31.625 167.023 31.4141C167.648 31.1953 168.344 31.0859 169.109 31.0859C170.031 31.0859 170.844 31.2422 171.547 31.5547C172.258 31.8672 172.812 32.3398 173.211 32.9727C173.617 33.5977 173.82 34.3828 173.82 35.3281V41.2344C173.82 41.6562 173.855 42.1055 173.926 42.582C174.004 43.0586 174.117 43.4688 174.266 43.8125V44H172.004C171.895 43.75 171.809 43.418 171.746 43.0039C171.684 42.582 171.652 42.1914 171.652 41.832ZM172.027 36.3125L172.051 37.8359H169.859C169.242 37.8359 168.691 37.8867 168.207 37.9883C167.723 38.082 167.316 38.2266 166.988 38.4219C166.66 38.6172 166.41 38.8633 166.238 39.1602C166.066 39.4492 165.98 39.7891 165.98 40.1797C165.98 40.5781 166.07 40.9414 166.25 41.2695C166.43 41.5977 166.699 41.8594 167.059 42.0547C167.426 42.2422 167.875 42.3359 168.406 42.3359C169.07 42.3359 169.656 42.1953 170.164 41.9141C170.672 41.6328 171.074 41.2891 171.371 40.8828C171.676 40.4766 171.84 40.082 171.863 39.6992L172.789 40.7422C172.734 41.0703 172.586 41.4336 172.344 41.832C172.102 42.2305 171.777 42.6133 171.371 42.9805C170.973 43.3398 170.496 43.6406 169.941 43.8828C169.395 44.1172 168.777 44.2344 168.09 44.2344C167.23 44.2344 166.477 44.0664 165.828 43.7305C165.188 43.3945 164.688 42.9453 164.328 42.3828C163.977 41.8125 163.801 41.1758 163.801 40.4727C163.801 39.793 163.934 39.1953 164.199 38.6797C164.465 38.1562 164.848 37.7227 165.348 37.3789C165.848 37.0273 166.449 36.7617 167.152 36.582C167.855 36.4023 168.641 36.3125 169.508 36.3125H172.027ZM179.398 33.3125V44H177.23V31.3203H179.34L179.398 33.3125ZM183.359 31.25L183.348 33.2656C183.168 33.2266 182.996 33.2031 182.832 33.1953C182.676 33.1797 182.496 33.1719 182.293 33.1719C181.793 33.1719 181.352 33.25 180.969 33.4062C180.586 33.5625 180.262 33.7812 179.996 34.0625C179.73 34.3438 179.52 34.6797 179.363 35.0703C179.215 35.4531 179.117 35.875 179.07 36.3359L178.461 36.6875C178.461 35.9219 178.535 35.2031 178.684 34.5312C178.84 33.8594 179.078 33.2656 179.398 32.75C179.719 32.2266 180.125 31.8203 180.617 31.5312C181.117 31.2344 181.711 31.0859 182.398 31.0859C182.555 31.0859 182.734 31.1055 182.938 31.1445C183.141 31.1758 183.281 31.2109 183.359 31.25ZM193.121 41.5391V26H195.301V44H193.309L193.121 41.5391ZM184.59 37.8008V37.5547C184.59 36.5859 184.707 35.707 184.941 34.918C185.184 34.1211 185.523 33.4375 185.961 32.8672C186.406 32.2969 186.934 31.8594 187.543 31.5547C188.16 31.2422 188.848 31.0859 189.605 31.0859C190.402 31.0859 191.098 31.2266 191.691 31.5078C192.293 31.7812 192.801 32.1836 193.215 32.7148C193.637 33.2383 193.969 33.8711 194.211 34.6133C194.453 35.3555 194.621 36.1953 194.715 37.1328V38.2109C194.629 39.1406 194.461 39.9766 194.211 40.7188C193.969 41.4609 193.637 42.0938 193.215 42.6172C192.801 43.1406 192.293 43.543 191.691 43.8242C191.09 44.0977 190.387 44.2344 189.582 44.2344C188.84 44.2344 188.16 44.0742 187.543 43.7539C186.934 43.4336 186.406 42.9844 185.961 42.4062C185.523 41.8281 185.184 41.1484 184.941 40.3672C184.707 39.5781 184.59 38.7227 184.59 37.8008ZM186.77 37.5547V37.8008C186.77 38.4336 186.832 39.0273 186.957 39.582C187.09 40.1367 187.293 40.625 187.566 41.0469C187.84 41.4688 188.188 41.8008 188.609 42.043C189.031 42.2773 189.535 42.3945 190.121 42.3945C190.84 42.3945 191.43 42.2422 191.891 41.9375C192.359 41.6328 192.734 41.2305 193.016 40.7305C193.297 40.2305 193.516 39.6875 193.672 39.1016V36.2773C193.578 35.8477 193.441 35.4336 193.262 35.0352C193.09 34.6289 192.863 34.2695 192.582 33.957C192.309 33.6367 191.969 33.3828 191.562 33.1953C191.164 33.0078 190.691 32.9141 190.145 32.9141C189.551 32.9141 189.039 33.0391 188.609 33.2891C188.188 33.5312 187.84 33.8672 187.566 34.2969C187.293 34.7188 187.09 35.2109 186.957 35.7734C186.832 36.3281 186.77 36.9219 186.77 37.5547Z" fill="white"/>
</svg>
