<svg width="561" height="520" viewBox="0 0 561 520" fill="none" xmlns="http://www.w3.org/2000/svg">
<path fill-rule="evenodd" clip-rule="evenodd" d="M315.84 0.000350687C264.248 -0.0964864 216.33 25.4496 176.851 58.2418C139.416 89.3362 126.318 136.803 101.226 178.265C66.4046 235.802 -5.87732 281.312 1.52863 347.937C8.91058 414.347 76.7051 459.314 136.038 491.439C190.512 520.933 253.882 522.632 315.84 518.115C373.678 513.899 432.278 502.61 477.333 466.558C521.032 431.591 546.68 379.141 557.601 324.664C567.653 274.516 553.965 224.403 535.445 176.664C517.81 131.206 492.67 89.5123 454.446 58.7629C414.489 26.6184 367.383 0.0970945 315.84 0.000350687Z" fill="black" fill-opacity="0.08"/>
<path d="M561 387.93C561 397.719 555.848 405.446 549.666 405.446H12.3339C6.15179 405.446 1 397.719 1 387.93C1 378.142 6.15179 370.414 12.3339 370.414H550.181C556.363 370.414 561 378.142 561 387.93Z" fill="#08D57F"/>
<path d="M561 387.93C561 397.719 555.848 405.446 549.666 405.446H12.3339C6.15179 405.446 1 397.719 1 387.93C1 378.142 6.15179 370.414 12.3339 370.414H550.181C556.363 370.414 561 378.142 561 387.93Z" fill="#FFA500" fill-opacity="0.64"/>
<path d="M241.589 485.299C241.589 491.481 237.468 496.118 232.831 496.118H140.099C135.462 496.118 131.341 490.966 131.341 485.299C131.341 479.117 135.462 474.48 140.099 474.48H232.316C237.468 473.965 241.589 479.117 241.589 485.299Z" fill="#049A5B"/>
<path d="M241.589 485.299C241.589 491.481 237.468 496.118 232.831 496.118H140.099C135.462 496.118 131.341 490.966 131.341 485.299C131.341 479.117 135.462 474.48 140.099 474.48H232.316C237.468 473.965 241.589 479.117 241.589 485.299Z" fill="#FFA500" fill-opacity="0.64"/>
<path d="M116.916 491.481C116.916 497.663 113.31 503.33 108.158 503.33H81.3684C76.7318 503.33 72.6104 498.179 72.6104 491.481C72.6104 485.299 76.2166 479.632 81.3684 479.632H108.158C112.794 479.632 116.916 484.784 116.916 491.481Z" fill="#05BE70"/>
<path d="M116.916 491.481C116.916 497.663 113.31 503.33 108.158 503.33H81.3684C76.7318 503.33 72.6104 498.179 72.6104 491.481C72.6104 485.299 76.2166 479.632 81.3684 479.632H108.158C112.794 479.632 116.916 484.784 116.916 491.481Z" fill="#FFA500" fill-opacity="0.64"/>
<path d="M412.113 468.813C412.113 475.511 407.476 481.178 402.325 481.178H261.165C255.498 481.178 251.377 475.511 251.377 468.813C251.377 462.116 256.014 456.449 261.165 456.449H401.809C407.476 456.449 412.113 462.116 412.113 468.813Z" fill="#049A5B"/>
<path d="M412.113 468.813C412.113 475.511 407.476 481.178 402.325 481.178H261.165C255.498 481.178 251.377 475.511 251.377 468.813C251.377 462.116 256.014 456.449 261.165 456.449H401.809C407.476 456.449 412.113 462.116 412.113 468.813Z" fill="#FFA500" fill-opacity="0.64"/>
<path d="M464.661 435.842C464.661 445.63 458.479 453.873 450.236 453.873H52.5178C44.7901 453.873 38.0928 446.145 38.0928 435.842C38.0928 426.053 44.2749 417.811 52.5178 417.811H450.236C458.479 418.326 464.661 426.053 464.661 435.842Z" fill="#32FCA7"/>
<path d="M464.661 435.842C464.661 445.63 458.479 453.873 450.236 453.873H52.5178C44.7901 453.873 38.0928 446.145 38.0928 435.842C38.0928 426.053 44.2749 417.811 52.5178 417.811H450.236C458.479 418.326 464.661 426.053 464.661 435.842Z" fill="#FFA500" fill-opacity="0.64"/>
<path d="M165.949 189C165.949 189 181.529 226.465 198.221 230.917L201.56 243.158C201.189 243.158 170.401 232.772 165.949 189Z" fill="#A16324"/>
<path opacity="0.1" d="M165.949 189C165.949 189 172.997 224.982 198.221 237.223L196.367 229.433C195.996 229.433 183.384 228.691 165.949 189Z" fill="black"/>
<path d="M162.981 299.171C162.981 299.171 178.561 336.636 195.254 341.087L198.592 353.328C198.221 353.699 167.433 342.942 162.981 299.171Z" fill="#A16324"/>
<path opacity="0.1" d="M162.981 299.171C162.981 299.171 170.029 335.152 195.254 347.393L193.399 339.603C193.028 339.603 180.416 338.862 162.981 299.171Z" fill="black"/>
<path d="M238.284 256.512C238.284 256.512 222.704 293.977 206.011 298.429L202.673 310.67C203.044 310.67 233.832 299.912 238.284 256.512Z" fill="#A16324"/>
<path opacity="0.1" d="M238.283 256.512C238.283 256.512 231.235 292.494 206.011 304.735L207.865 296.945C208.236 296.945 220.849 295.832 238.283 256.512Z" fill="black"/>
<path d="M199.736 195.5C197.834 195.6 196.329 197.146 196.279 199.05L190.913 405.837C190.853 408.14 192.745 410.017 195.047 409.939L208.653 409.478C210.876 409.402 212.61 407.529 212.514 405.307L203.574 198.986C203.486 196.959 201.762 195.393 199.736 195.5Z" fill="#A16324"/>
<path opacity="0.1" d="M201.427 195.306C200.274 195.306 199.342 196.246 199.352 197.399L201.154 405.376C201.173 407.571 202.959 409.341 205.154 409.341H208.511C210.788 409.341 212.606 407.443 212.507 405.168L203.5 197.291C203.452 196.181 202.538 195.306 201.427 195.306Z" fill="black"/>
<path d="M137.008 353.413C137.008 353.413 179.768 370.414 182.859 410.598H191.102C191.102 410.598 186.98 363.717 137.008 353.413Z" fill="#049A5B"/>
<path d="M137.008 353.413C137.008 353.413 179.768 370.414 182.859 410.598H191.102C191.102 410.598 186.98 363.717 137.008 353.413Z" fill="#FFA500" fill-opacity="0.64"/>
<path d="M196.769 410.598C196.769 410.598 193.678 375.051 155.555 366.808C155.555 366.808 188.011 379.687 190.587 410.598H196.769Z" fill="#05BE70"/>
<path d="M196.769 410.598C196.769 410.598 193.678 375.051 155.555 366.808C155.555 366.808 188.011 379.687 190.587 410.598H196.769Z" fill="#FFA500" fill-opacity="0.64"/>
<path d="M243.134 352.898C243.134 352.898 200.374 369.899 197.283 410.083H189.041C188.525 410.083 192.647 363.717 243.134 352.898Z" fill="#049A5B"/>
<path d="M243.134 352.898C243.134 352.898 200.374 369.899 197.283 410.083H189.041C188.525 410.083 192.647 363.717 243.134 352.898Z" fill="#FFA500" fill-opacity="0.64"/>
<path d="M192.647 413.174C192.647 413.174 176.676 381.233 205.011 354.444C205.011 354.444 184.404 382.778 198.314 410.083L192.647 413.174Z" fill="#05BE70"/>
<path d="M192.647 413.174C192.647 413.174 176.676 381.233 205.011 354.444C205.011 354.444 184.404 382.778 198.314 410.083L192.647 413.174Z" fill="#FFA500" fill-opacity="0.64"/>
<path d="M197.283 334.352C197.283 334.352 174.615 374.535 196.768 408.022L190.586 413.174C190.586 413.174 164.312 374.02 197.283 334.352Z" fill="#32FCA7"/>
<path d="M197.283 334.352C197.283 334.352 174.615 374.535 196.768 408.022L190.586 413.174C190.586 413.174 164.312 374.02 197.283 334.352Z" fill="#FFA500" fill-opacity="0.64"/>
<path d="M189.556 374.536C189.556 374.536 214.799 384.839 216.86 408.537H221.497C221.497 408.022 218.921 380.718 189.556 374.536Z" fill="#049A5B"/>
<path d="M189.556 374.536C189.556 374.536 214.799 384.839 216.86 408.537H221.497C221.497 408.022 218.921 380.718 189.556 374.536Z" fill="#FFA500" fill-opacity="0.64"/>
<path d="M224.587 408.022C224.587 408.022 222.527 386.9 200.374 382.263C200.374 382.263 219.436 389.991 220.981 408.022H224.587Z" fill="#05BE70"/>
<path d="M224.587 408.022C224.587 408.022 222.527 386.9 200.374 382.263C200.374 382.263 219.436 389.991 220.981 408.022H224.587Z" fill="#FFA500" fill-opacity="0.64"/>
<path d="M251.892 374.536C251.892 374.536 226.649 384.839 224.588 408.537H219.951C219.951 408.022 222.527 380.718 251.892 374.536Z" fill="#049A5B"/>
<path d="M251.892 374.536C251.892 374.536 226.649 384.839 224.588 408.537H219.951C219.951 408.022 222.527 380.718 251.892 374.536Z" fill="#FFA500" fill-opacity="0.64"/>
<path d="M222.527 409.568C222.527 409.568 213.254 391.021 229.739 375.051C229.739 375.051 217.375 391.536 225.618 408.022L222.527 409.568Z" fill="#05BE70"/>
<path d="M222.527 409.568C222.527 409.568 213.254 391.021 229.739 375.051C229.739 375.051 217.375 391.536 225.618 408.022L222.527 409.568Z" fill="#FFA500" fill-opacity="0.64"/>
<path d="M225.103 363.202C225.103 363.202 211.709 386.9 224.588 406.477L220.982 409.568C220.982 409.568 205.526 386.9 225.103 363.202Z" fill="#32FCA7"/>
<path d="M225.103 363.202C225.103 363.202 211.709 386.9 224.588 406.477L220.982 409.568C220.982 409.568 205.526 386.9 225.103 363.202Z" fill="#FFA500" fill-opacity="0.64"/>
<path d="M501.239 412.659C501.239 420.386 496.602 426.053 490.42 426.053H90.641C84.4589 426.053 79.8223 419.871 79.8223 412.659C79.8223 404.931 84.4589 399.264 90.641 399.264H490.42C496.602 398.749 501.239 404.931 501.239 412.659Z" fill="#05BE70"/>
<path d="M501.239 412.659C501.239 420.386 496.602 426.053 490.42 426.053H90.641C84.4589 426.053 79.8223 419.871 79.8223 412.659C79.8223 404.931 84.4589 399.264 90.641 399.264H490.42C496.602 398.749 501.239 404.931 501.239 412.659Z" fill="#FFA500" fill-opacity="0.64"/>
<path d="M321.968 243.929C323.466 243.24 325.043 242.596 326.665 241.976C339.152 237.306 370.874 234.392 383.361 239.062C385.007 239.682 386.555 240.326 388.054 241.015L383.21 208.232C382.304 202.275 376.178 198.626 370.506 200.676L358.52 205.038C356.401 205.801 354.112 205.801 351.989 205.038L340.003 200.676C334.331 198.626 328.209 202.271 327.299 208.232L321.968 243.929Z" fill="#F2787C"/>
<path d="M295.629 262.786C311.595 259.67 333.104 253.76 358.658 253.76C384.212 253.76 405.721 259.67 421.688 262.786C417.064 259.022 408.401 252.827 395.348 248.249C393.693 247.661 391.984 247.114 390.173 246.59C376.412 242.624 364.775 242.541 358.658 242.541C352.541 242.541 340.904 242.624 327.143 246.59C325.36 247.119 323.627 247.661 321.968 248.249C309.412 252.643 300.721 258.618 295.629 262.786Z" fill="#F2787C"/>
<path fill-rule="evenodd" clip-rule="evenodd" d="M296.267 265.333C295.141 265.618 293.956 265.126 293.363 264.119C292.77 263.113 292.917 261.835 293.717 260.985C298.965 255.405 307.932 247.417 320.874 241.539C322.575 240.753 324.358 240.022 326.201 239.319C326.206 239.315 326.215 239.315 326.219 239.315C340.384 234.015 352.357 233.896 358.653 233.896C364.95 233.896 376.923 234.015 391.087 239.315C391.087 239.315 391.092 239.315 391.092 239.319C392.963 240.022 394.727 240.758 396.437 241.544C409.89 247.666 418.824 255.948 423.59 260.98C424.395 261.83 424.537 263.108 423.949 264.115C423.356 265.121 422.17 265.618 421.039 265.333C405.234 261.329 383.945 257.533 358.653 257.533C333.362 257.538 312.078 261.329 296.267 265.333ZM304.508 258.016C319.303 254.854 337.622 252.28 358.658 252.28C379.685 252.28 398.004 254.849 412.794 258.011C408.166 254.132 402.012 249.844 394.263 246.319C394.259 246.319 394.254 246.314 394.254 246.314C392.655 245.579 391.005 244.894 389.254 244.232C375.898 239.237 364.601 239.149 358.663 239.149C352.725 239.149 341.432 239.237 328.076 244.232C326.348 244.894 324.671 245.579 323.071 246.314C323.071 246.314 323.067 246.319 323.057 246.319C315.419 249.789 309.256 254.04 304.508 258.016Z" fill="#005D2D"/>
<path fill-rule="evenodd" clip-rule="evenodd" d="M323.062 246.319C322.184 246.723 321.159 246.613 320.392 246.034C319.624 245.455 319.224 244.499 319.371 243.543L325.254 204.197C326.504 195.993 334.938 190.974 342.747 193.796L355.951 198.599C357.711 199.228 359.605 199.228 361.365 198.599L374.574 193.791C382.383 190.969 390.816 195.988 392.062 204.192L397.945 243.538C398.087 244.494 397.696 245.45 396.924 246.029C396.152 246.609 395.127 246.719 394.249 246.314C392.65 245.579 391 244.894 389.249 244.232C375.893 239.237 364.596 239.149 358.658 239.149C352.72 239.149 341.428 239.237 328.072 244.232C326.339 244.894 324.666 245.579 323.062 246.319ZM325.259 239.692L326.224 239.319C340.389 234.02 352.362 233.901 358.658 233.901C364.955 233.901 376.927 234.02 391.092 239.319L392.057 239.687L386.868 204.983C386.119 200.056 381.05 197.041 376.362 198.732L363.144 203.539C360.23 204.587 357.086 204.587 354.172 203.539L340.959 198.732C336.266 197.036 331.197 200.051 330.448 204.983L325.259 239.692Z" fill="#005D2D"/>
<path fill-rule="evenodd" clip-rule="evenodd" d="M371.789 286.663C371.789 279.548 377.566 273.766 384.686 273.766C391.8 273.766 397.582 279.544 397.582 286.663C397.582 293.782 391.805 299.559 384.686 299.559C377.566 299.559 371.789 293.777 371.789 286.663Z" fill="#F2787C"/>
<path fill-rule="evenodd" clip-rule="evenodd" d="M391.423 225.876C384.533 223.513 371.853 220.765 358.658 220.765C351.378 220.765 338.376 221.597 325.893 225.876C324.519 226.345 323.025 225.614 322.552 224.244C322.087 222.875 322.818 221.376 324.183 220.908C337.318 216.403 350.992 215.512 358.653 215.512C372.538 215.512 385.875 218.421 393.123 220.908C394.493 221.376 395.228 222.875 394.755 224.244C394.286 225.618 392.792 226.349 391.423 225.876Z" fill="#005D2D"/>
<path fill-rule="evenodd" clip-rule="evenodd" d="M314.013 286.663C314.013 279.548 319.785 273.766 326.904 273.766C334.028 273.766 339.801 279.544 339.801 286.663C339.801 293.782 334.024 299.559 326.904 299.559C319.785 299.559 314.013 293.777 314.013 286.663Z" fill="#F2787C"/>
<path fill-rule="evenodd" clip-rule="evenodd" d="M369.16 283.799C369.16 273.651 377.396 265.415 387.544 265.415C397.692 265.415 405.928 273.651 405.928 283.799C405.928 293.947 397.692 302.183 387.544 302.183C377.4 302.179 369.16 293.943 369.16 283.799ZM374.413 283.799C374.413 291.047 380.296 296.93 387.544 296.93C394.792 296.93 400.674 291.047 400.674 283.799C400.674 276.551 394.792 270.669 387.544 270.669C380.296 270.669 374.413 276.551 374.413 283.799Z" fill="#005D2D"/>
<path fill-rule="evenodd" clip-rule="evenodd" d="M311.383 283.799C311.383 273.651 319.619 265.415 329.767 265.415C339.91 265.415 348.146 273.651 348.146 283.799C348.146 293.947 339.91 302.183 329.767 302.183C319.624 302.179 311.383 293.943 311.383 283.799ZM316.632 283.799C316.632 291.047 322.519 296.93 329.767 296.93C337.01 296.93 342.898 291.047 342.898 283.799C342.898 276.551 337.01 270.669 329.767 270.669C322.519 270.669 316.632 276.551 316.632 283.799Z" fill="#005D2D"/>
<path fill-rule="evenodd" clip-rule="evenodd" d="M369.978 285.702C369.137 284.902 365.046 281.175 358.658 281.175C357.5 281.175 351.961 281.299 347.338 285.702C346.29 286.704 344.626 286.663 343.624 285.61C342.622 284.562 342.664 282.899 343.716 281.897C349.82 276.083 357.127 275.917 358.658 275.917C367.087 275.917 372.492 280.84 373.599 281.892C374.647 282.889 374.689 284.553 373.691 285.606C372.689 286.658 371.026 286.699 369.978 285.702Z" fill="#005D2D"/>
<path d="M474.384 81.5018C474.384 102.501 483.783 112.998 495.379 112.998C506.974 112.998 516.373 102.501 516.373 81.5018C516.373 64.1059 505.876 50.0054 495.379 50.0054C484.881 50.0054 474.384 64.1059 474.384 81.5018Z" fill="#F2787C"/>
<path fill-rule="evenodd" clip-rule="evenodd" d="M471.759 81.5018C471.759 70.3243 475.859 60.4383 481.525 54.3027C485.607 49.8813 490.524 47.3811 495.382 47.3811C500.24 47.3811 505.158 49.8813 509.239 54.3027C514.906 60.4383 519.006 70.3243 519.006 81.5018C519.006 104.523 508.095 115.622 495.382 115.622C482.67 115.622 471.759 104.523 471.759 81.5018ZM477.012 81.5018C477.012 100.483 484.899 110.369 495.382 110.369C505.866 110.369 513.753 100.479 513.753 81.5018C513.753 71.8042 510.296 63.1913 505.379 57.8646C502.405 54.6428 498.921 52.6343 495.382 52.6343C491.844 52.6343 488.36 54.6474 485.386 57.8646C480.468 63.1913 477.012 71.8042 477.012 81.5018Z" fill="#005D2D"/>
<path fill-rule="evenodd" clip-rule="evenodd" d="M479.467 65.0298C482.638 70.5082 488.595 73.6243 495.379 73.6243C502.167 73.6243 507.981 70.1635 511.152 64.6805C511.878 63.4257 513.487 62.9937 514.742 63.7199C515.996 64.4461 516.428 66.0547 515.702 67.3094C511.616 74.3826 504.139 78.8775 495.383 78.8775C486.628 78.8775 479.021 74.7273 474.926 67.6632C474.2 66.4085 474.628 64.7999 475.882 64.0738C477.137 63.3476 478.746 63.775 479.467 65.0298Z" fill="#005D2D"/>
<path fill-rule="evenodd" clip-rule="evenodd" d="M475.29 94.628H463.887C462.439 94.628 461.263 93.4515 461.263 92.0037C461.263 90.556 462.439 89.3794 463.887 89.3794H475.29C476.737 89.3794 477.914 90.556 477.914 92.0037C477.919 93.4515 476.742 94.628 475.29 94.628Z" fill="#005D2D"/>
<path fill-rule="evenodd" clip-rule="evenodd" d="M526.88 94.628H515.477C514.029 94.628 512.853 93.4515 512.853 92.0037C512.853 90.556 514.029 89.3794 515.477 89.3794H526.88C528.327 89.3794 529.504 90.556 529.504 92.0037C529.504 93.4515 528.327 94.628 526.88 94.628Z" fill="#005D2D"/>
<path fill-rule="evenodd" clip-rule="evenodd" d="M485.106 110.755L470.596 120.43C469.392 121.234 467.756 120.908 466.956 119.704C466.152 118.5 466.478 116.863 467.683 116.064L482.192 106.389C483.396 105.585 485.032 105.911 485.832 107.115C486.636 108.319 486.31 109.951 485.106 110.755Z" fill="#005D2D"/>
<path fill-rule="evenodd" clip-rule="evenodd" d="M471.765 118.247V123.495C471.765 124.943 470.588 126.12 469.14 126.12C467.693 126.12 466.516 124.943 466.516 123.495V118.247C466.516 116.799 467.693 115.622 469.14 115.622C470.588 115.622 471.765 116.799 471.765 118.247Z" fill="#005D2D"/>
<path fill-rule="evenodd" clip-rule="evenodd" d="M474.38 73.9367L462.715 68.1044C461.419 67.4564 460.895 65.8754 461.543 64.5793C462.191 63.2832 463.772 62.7547 465.068 63.4073L476.733 69.2396C478.029 69.8877 478.557 71.4687 477.905 72.7648C477.252 74.0562 475.676 74.5848 474.38 73.9367Z" fill="#005D2D"/>
<path fill-rule="evenodd" clip-rule="evenodd" d="M514.038 69.2396L525.703 63.4073C526.999 62.7593 528.58 63.2832 529.228 64.5793C529.876 65.8754 529.347 67.4564 528.051 68.1044L516.387 73.9368C515.091 74.5848 513.51 74.0562 512.862 72.7602C512.214 71.4641 512.742 69.8877 514.038 69.2396Z" fill="#005D2D"/>
<path fill-rule="evenodd" clip-rule="evenodd" d="M524.251 65.7558V60.5072C524.251 59.0595 525.427 57.8829 526.875 57.8829C528.323 57.8829 529.499 59.0595 529.499 60.5072V65.7558C529.499 67.2036 528.323 68.3802 526.875 68.3802C525.427 68.3802 524.251 67.2036 524.251 65.7558Z" fill="#005D2D"/>
<path fill-rule="evenodd" clip-rule="evenodd" d="M508.574 106.389L523.084 116.064C524.288 116.868 524.614 118.5 523.81 119.704C523.005 120.908 521.374 121.234 520.17 120.43L505.66 110.755C504.456 109.951 504.13 108.319 504.929 107.115C505.738 105.911 507.37 105.585 508.574 106.389Z" fill="#005D2D"/>
<path fill-rule="evenodd" clip-rule="evenodd" d="M524.255 118.247V123.495C524.255 124.943 523.078 126.12 521.631 126.12C520.183 126.12 519.006 124.943 519.006 123.495V118.247C519.006 116.799 520.183 115.622 521.631 115.622C523.078 115.622 524.255 116.799 524.255 118.247Z" fill="#005D2D"/>
<path fill-rule="evenodd" clip-rule="evenodd" d="M521.998 42.1093C520.665 42.2978 516.543 43.0607 512.99 46.6134C512.048 47.5556 509.341 50.2305 508.638 55.1712C508.431 56.6051 507.103 57.607 505.664 57.4002C504.23 57.1934 503.233 55.8651 503.435 54.4266C504.386 47.7762 508.003 44.1729 509.276 42.8998C514.006 38.1706 519.489 37.1594 521.263 36.9067C522.697 36.7044 524.03 37.7018 524.232 39.1357C524.43 40.5743 523.432 41.9071 521.998 42.1093Z" fill="#005D2D"/>
<path fill-rule="evenodd" clip-rule="evenodd" d="M469.503 36.9068C471.277 37.1596 476.76 38.1707 481.489 42.9C482.762 44.1731 486.379 47.7763 487.33 54.4267C487.537 55.8607 486.535 57.1935 485.101 57.4003C483.667 57.6072 482.335 56.6052 482.128 55.1713C481.42 50.2306 478.717 47.5603 477.775 46.6135C474.223 43.0608 470.1 42.2979 468.767 42.1095C467.333 41.9073 466.331 40.5744 466.538 39.1405C466.74 37.7065 468.069 36.7046 469.503 36.9068Z" fill="#005D2D"/>
<path fill-rule="evenodd" clip-rule="evenodd" d="M461.262 65.7559V60.5073C461.262 59.0595 462.439 57.8829 463.886 57.8829C465.334 57.8829 466.511 59.0595 466.511 60.5073V65.7559C466.511 67.2036 465.334 68.3802 463.886 68.3802C462.439 68.3802 461.262 67.2036 461.262 65.7559Z" fill="#005D2D"/>
<path d="M113.916 126.292L62.9418 24.3437C60.2394 18.9434 54.044 17.3119 49.2319 19.4536L3.40526 111.102C-0.0876999 118.079 4.99088 126.292 12.7949 126.292H113.916Z" fill="#F2787C"/>
<path fill-rule="evenodd" clip-rule="evenodd" d="M13.3506 128.756C3.59326 128.756 -2.7538 118.484 1.6124 109.765L52.867 7.25593C57.702 -2.41864 71.5084 -2.41864 76.348 7.25593L127.598 109.765C131.96 118.484 125.617 128.756 115.86 128.756H13.3506V128.756ZM13.3506 123.502H115.86C121.71 123.502 125.521 117.339 122.901 112.114L71.6463 9.60448C68.7462 3.80433 60.4642 3.80433 57.5641 9.60448L6.30953 112.114C3.6944 117.339 7.49986 123.502 13.3506 123.502Z" fill="#005D2D"/>
<path fill-rule="evenodd" clip-rule="evenodd" d="M61.9809 84.133V31.6421C61.9809 30.1944 63.1574 29.0178 64.6052 29.0178C66.0529 29.0178 67.2295 30.1944 67.2295 31.6421V84.1376C67.2295 85.5854 66.0529 86.762 64.6052 86.762C63.1574 86.7574 61.9809 85.5854 61.9809 84.133Z" fill="white"/>
<path fill-rule="evenodd" clip-rule="evenodd" d="M56.7326 102.508C56.7326 98.1603 60.2624 94.6306 64.6056 94.6306C68.9534 94.6306 72.4785 98.1603 72.4785 102.508C72.4785 106.851 68.9488 110.381 64.6056 110.381C60.2578 110.381 56.7326 106.851 56.7326 102.508Z" fill="white"/>
</svg>
