<svg width="560" height="486" viewBox="0 0 560 486" fill="none" xmlns="http://www.w3.org/2000/svg">
<path d="M524.967 364.35C524.967 374.591 520.116 382.675 514.727 382.675H10.2416C4.31282 382.675 0.000976562 374.591 0.000976562 364.35C0.000976562 354.11 4.8518 346.025 10.2416 346.025H514.727C520.655 346.025 524.967 354.11 524.967 364.35Z" fill="#08D57F"/>
<path d="M248.904 198.088L233.555 207.074L296.454 314.521L311.804 305.536L248.904 198.088Z" fill="#A16324"/>
<path opacity="0.1" d="M240.804 201.457L232.899 206.089L296.108 313.977L304.014 309.345L240.804 201.457Z" fill="black"/>
<path d="M360.568 193.29L297.656 300.725L313.004 309.712L375.916 202.277L360.568 193.29Z" fill="#A16324"/>
<path opacity="0.1" d="M368.766 197.139L305.557 305.026L313.462 309.658L376.672 201.771L368.766 197.139Z" fill="black"/>
<path d="M315.304 199.422H289.972V400.462H315.304V199.422Z" fill="#A16324"/>
<path opacity="0.1" d="M314.765 202.657H303.446V401.002H314.765V202.657Z" fill="black"/>
<path d="M426.873 122.348C426.873 189.721 371.897 244.697 303.986 244.697C236.075 244.697 181.099 190.26 181.099 122.348C181.099 54.976 236.075 0 303.986 0C371.897 0 426.873 54.437 426.873 122.348Z" fill="#08D57F"/>
<path d="M394.534 39.3457C399.385 52.2812 402.08 66.2946 402.08 80.847C402.08 148.22 347.104 203.196 279.192 203.196C243.619 203.196 211.281 188.104 188.644 163.85C205.891 210.741 251.165 244.158 303.985 244.158C371.897 244.158 426.873 189.721 426.873 121.81C426.873 90.0097 414.476 60.9049 394.534 39.3457Z" fill="black" fill-opacity="0.08"/>
<path opacity="0.1" d="M426.873 122.349C426.873 56.0545 372.975 1.61751 306.142 0.539551V244.697C372.975 242.542 426.873 188.643 426.873 122.349Z" fill="black"/>
<path d="M251.165 455.438C251.165 461.905 246.853 466.756 242.002 466.756H145.525C140.674 466.756 136.362 461.366 136.362 455.438C136.362 448.97 140.674 444.119 145.525 444.119H242.002C246.853 443.58 251.165 448.97 251.165 455.438Z" fill="#049A5B"/>
<path d="M120.732 472.686C120.732 479.154 116.959 485.082 111.569 485.082H83.5425C78.6917 485.082 74.3799 479.693 74.3799 472.686C74.3799 466.218 78.1527 460.29 83.5425 460.29H112.108C116.959 460.29 120.732 465.679 120.732 472.686Z" fill="#05BE70"/>
<path d="M429.568 459.75C429.568 466.757 424.717 472.686 419.327 472.686H272.186C266.257 472.686 261.945 466.757 261.945 459.75C261.945 452.744 266.796 446.815 272.186 446.815H419.327C425.256 446.815 429.568 452.744 429.568 459.75Z" fill="#049A5B"/>
<path d="M422.022 414.476C422.022 424.717 416.093 433.34 408.548 433.34H26.9499C19.4042 433.34 12.9364 425.256 12.9364 414.476C12.9364 404.235 18.8652 395.612 26.9499 395.612H408.009C415.554 396.151 422.022 404.235 422.022 414.476Z" fill="#32FCA7"/>
<path d="M106.719 336.862C106.719 336.862 125.583 379.442 125.044 385.371L144.447 379.981C144.447 379.981 114.803 342.791 110.492 334.707L106.719 336.862Z" fill="#A16324"/>
<path opacity="0.1" d="M108.336 335.785L133.668 382.676L143.909 379.981L109.953 334.707L108.336 335.785Z" fill="black"/>
<path d="M168.701 339.557C168.701 339.557 149.837 382.137 150.376 388.066L130.973 382.676C130.973 382.676 160.617 345.486 164.928 337.402L168.701 339.557Z" fill="#A16324"/>
<path opacity="0.1" d="M167.085 338.48L141.213 385.371L131.512 382.676L164.929 337.402L167.085 338.48Z" fill="black"/>
<path d="M212.898 277.575C212.898 317.998 177.864 350.337 134.207 350.337C90.5493 350.337 55.5156 317.998 55.5156 277.575C55.5156 237.151 92.7052 183.792 136.363 183.792C179.481 183.792 212.898 237.151 212.898 277.575Z" fill="#08D57F"/>
<path d="M208.586 249.01C207.508 289.433 170.318 322.311 125.044 322.311C97.0172 322.311 71.6852 309.915 56.5938 290.511C63.6005 324.467 95.4003 349.799 134.207 349.799C177.864 349.799 212.898 317.46 212.898 277.037C212.898 268.413 211.281 258.711 208.586 249.01Z" fill="black" fill-opacity="0.08"/>
<path d="M182.715 302.908C182.715 302.908 176.247 332.013 140.136 342.792L139.597 335.246C139.597 334.708 155.227 337.941 182.715 302.908Z" fill="#A16324"/>
<path opacity="0.1" d="M182.714 302.908C182.714 302.908 167.084 334.708 140.135 339.019V334.707C139.596 334.707 157.382 335.785 182.714 302.908Z" fill="black"/>
<path d="M106.18 323.389C106.18 323.389 111.569 340.098 132.59 344.948V340.637C132.59 340.637 123.427 342.792 106.18 323.389Z" fill="#A16324"/>
<path opacity="0.1" d="M106.18 323.389C106.18 323.389 116.959 341.175 132.59 342.792V340.636C132.59 340.636 122.349 341.714 106.18 323.389Z" fill="black"/>
<path d="M99.712 289.433C99.712 289.433 105.102 312.07 132.59 320.155V314.226C133.129 314.226 121.271 316.382 99.712 289.433Z" fill="#A16324"/>
<path opacity="0.1" d="M99.712 289.433C99.712 289.433 112.109 314.226 132.59 317.46V314.226C133.129 314.226 119.654 314.765 99.712 289.433Z" fill="black"/>
<path d="M159.539 305.602C159.539 305.602 155.766 318.538 139.057 322.311V318.538C138.518 319.077 145.525 320.694 159.539 305.602Z" fill="#A16324"/>
<path opacity="0.1" d="M159.539 305.602C159.539 305.602 151.454 319.616 139.058 320.694V319.077C138.519 319.077 146.603 319.616 159.539 305.602Z" fill="black"/>
<path d="M132.051 307.219C132.051 307.219 129.356 377.287 125.044 384.833L150.915 386.45C150.915 386.45 137.979 319.077 137.44 305.603L132.051 307.219Z" fill="#A16324"/>
<path opacity="0.1" d="M134.207 306.68L136.902 385.91L150.376 386.988L137.441 306.141L134.207 306.68Z" fill="black"/>
<path opacity="0.1" d="M212.898 277.575C212.898 237.69 180.559 184.87 137.44 183.792V350.337C179.481 348.181 212.898 316.381 212.898 277.575Z" fill="black"/>
<path d="M504.486 303.985C504.486 334.168 478.076 358.422 445.737 358.422C413.398 358.422 386.988 334.168 386.988 303.985C386.988 273.803 415.015 233.918 447.354 233.918C479.693 233.918 504.486 274.342 504.486 303.985Z" fill="#08D57F"/>
<path d="M501.252 282.966C500.174 313.149 472.686 337.942 438.73 337.942C417.71 337.942 398.846 328.24 387.527 314.227C392.378 339.559 416.632 358.423 445.737 358.423C478.076 358.423 504.486 334.169 504.486 303.986C504.486 297.518 503.408 289.973 501.252 282.966Z" fill="black" fill-opacity="0.08"/>
<path d="M481.849 323.389C481.849 323.389 476.998 345.487 450.049 353.033V347.104C449.51 347.104 461.368 349.26 481.849 323.389Z" fill="#A16324"/>
<path opacity="0.1" d="M481.849 323.389C481.849 323.389 469.991 347.104 450.049 350.338V347.104C449.51 347.104 462.984 347.643 481.849 323.389Z" fill="black"/>
<path d="M424.717 338.481C424.717 338.481 428.49 350.877 444.659 354.65V351.416C444.12 351.416 437.652 353.033 424.717 338.481Z" fill="#A16324"/>
<path opacity="0.1" d="M424.717 338.481C424.717 338.481 432.802 351.955 444.659 353.033V351.416C444.12 351.416 436.574 352.494 424.717 338.481Z" fill="black"/>
<path d="M419.866 313.148C419.866 313.148 423.639 330.396 444.659 336.324V332.012C444.659 332.012 435.497 333.629 419.866 313.148Z" fill="#A16324"/>
<path opacity="0.1" d="M419.866 313.148C419.866 313.148 429.029 331.473 444.659 334.168V332.012C444.659 332.012 434.419 332.012 419.866 313.148Z" fill="black"/>
<path d="M464.063 325.005C464.063 325.005 460.829 334.707 448.433 337.941V335.246C448.972 335.246 454.361 336.324 464.063 325.005Z" fill="#A16324"/>
<path opacity="0.1" d="M464.063 325.005C464.063 325.005 457.595 335.246 448.433 336.324V334.707C448.972 335.246 454.9 335.785 464.063 325.005Z" fill="black"/>
<path d="M443.581 326.623C443.581 326.623 441.425 378.904 438.191 384.833L457.595 386.45C457.595 386.45 447.893 335.786 447.893 326.084L443.581 326.623Z" fill="#A16324"/>
<path opacity="0.1" d="M445.737 326.084L447.893 385.372L457.595 385.911L447.893 325.545L445.737 326.084Z" fill="black"/>
<path opacity="0.1" d="M504.485 303.985C504.485 274.342 480.231 234.457 447.893 233.918V358.422C479.153 357.344 504.485 333.629 504.485 303.985Z" fill="black"/>
<path d="M236.613 334.707C236.613 334.707 280.271 352.493 284.044 393.456H292.128C292.128 393.456 287.816 345.487 236.613 334.707Z" fill="#049A5B"/>
<path d="M298.057 393.456C298.057 393.456 294.823 357.345 256.017 348.721C256.017 348.721 289.433 362.196 292.128 393.456H298.057Z" fill="#05BE70"/>
<path d="M344.948 334.707C344.948 334.707 301.291 352.493 297.518 393.456H289.434C289.434 393.456 293.745 345.487 344.948 334.707Z" fill="#049A5B"/>
<path d="M293.745 396.15C293.745 396.15 277.576 363.811 306.142 335.785C306.142 335.785 285.122 364.889 299.135 392.377L293.745 396.15Z" fill="#049A5B"/>
<path d="M298.057 315.843C298.057 315.843 274.881 356.805 297.518 391.3L291.05 396.69C291.05 396.151 264.64 356.266 298.057 315.843Z" fill="#32FCA7"/>
<path d="M272.186 343.331C272.186 343.331 306.68 357.344 309.375 389.683H315.843C315.843 389.683 312.609 351.954 272.186 343.331Z" fill="#05BE70"/>
<path d="M320.155 389.683C320.155 389.683 317.46 361.117 286.738 354.649C286.738 354.649 312.609 365.429 315.304 389.683H320.155Z" fill="#049A5B"/>
<path d="M357.883 343.331C357.883 343.331 323.389 357.344 320.694 389.683H314.226C313.687 389.144 316.921 351.954 357.883 343.331Z" fill="#049A5B"/>
<path d="M316.921 391.299C316.921 391.299 303.985 365.428 326.622 343.869C326.622 343.869 309.914 366.506 321.232 388.604L316.921 391.299Z" fill="#05BE70"/>
<path d="M320.694 328.24C320.694 328.24 302.369 360.578 320.155 387.527L315.304 391.839C315.304 391.3 294.284 360.039 320.694 328.24Z" fill="#32FCA7"/>
<path d="M560.001 390.221C560.001 398.306 554.611 404.235 547.604 404.235H94.3223C87.3156 404.235 81.9258 397.767 81.9258 390.221C81.9258 382.136 87.3156 376.208 94.3223 376.208H547.604C554.611 375.669 560.001 382.136 560.001 390.221Z" fill="#05BE70"/>
<path d="M271.108 65.2162C281.349 61.4434 294.284 44.7351 289.972 34.4945C285.66 24.2539 266.257 24.2538 255.478 28.0267C245.237 31.7995 240.386 43.1182 244.698 53.3588C249.01 63.0604 260.867 68.4501 271.108 65.2162Z" fill="white" fill-opacity="0.32"/>
<path d="M255.477 88.9323C252.782 92.7052 247.932 93.2443 244.159 90.5494C240.386 87.8545 239.308 82.4647 242.003 79.2308C244.698 75.4579 249.549 74.919 253.321 77.6139C257.094 80.3088 258.172 85.6985 255.477 88.9323Z" fill="white" fill-opacity="0.32"/>
<path d="M208.586 91.088C214.515 94.8609 226.911 94.8608 229.606 90.01C232.301 84.6202 224.755 75.9966 218.826 72.2237C212.898 68.4509 205.891 70.0677 203.196 75.4575C200.501 80.3083 202.657 87.8541 208.586 91.088Z" fill="white" fill-opacity="0.32"/>
<path d="M116.42 237.152C121.81 229.606 122.349 211.82 114.264 206.969C106.18 202.118 93.2441 211.82 87.8543 219.365C82.4645 226.911 84.6204 236.613 92.7051 241.464C100.79 246.314 111.03 244.697 116.42 237.152Z" fill="white" fill-opacity="0.32"/>
<path d="M117.499 260.866C117.499 264.639 114.265 267.334 110.492 267.334C106.719 267.334 103.485 264.1 103.485 260.866C103.485 257.093 106.719 254.398 110.492 254.398C114.265 254.398 117.499 257.093 117.499 260.866Z" fill="white" fill-opacity="0.32"/>
<path d="M86.7764 285.12C92.1661 284.581 101.329 279.192 100.79 273.802C100.251 268.951 90.5492 266.795 85.1594 266.795C79.7696 267.334 75.4578 271.646 75.9968 276.497C75.9968 281.347 80.8476 285.12 86.7764 285.12Z" fill="white" fill-opacity="0.32"/>
<path d="M434.419 279.191C438.731 273.263 438.73 259.249 432.802 255.476C426.334 251.704 416.093 259.249 411.781 265.178C407.47 271.107 409.087 279.191 415.554 282.964C422.022 286.737 430.107 285.12 434.419 279.191Z" fill="white" fill-opacity="0.32"/>
<path d="M434.957 298.056C434.957 300.751 432.801 302.907 429.568 302.907C426.334 302.907 424.178 300.212 424.178 297.517C424.178 294.822 426.334 292.667 429.568 292.667C432.801 292.667 434.957 295.361 434.957 298.056Z" fill="white" fill-opacity="0.32"/>
<path d="M410.704 317.46C415.016 317.46 422.022 312.609 421.484 308.836C420.945 305.063 413.399 302.907 409.087 303.446C404.775 303.446 401.541 307.219 402.08 310.992C402.08 314.765 406.392 317.46 410.704 317.46Z" fill="white" fill-opacity="0.32"/>
</svg>
