<svg width="516" height="451" viewBox="0 0 516 451" fill="none" xmlns="http://www.w3.org/2000/svg">
<g clip-path="url(#clip0_2_325)">
<path d="M29.1644 309.855C29.1644 309.855 46.3651 340.725 64.6082 344.327L68.2568 354.617C68.2568 354.102 34.898 346.385 29.1644 309.855Z" fill="#A16324"/>
<path opacity="0.1" d="M29.1647 309.855C29.1647 309.855 38.0257 339.696 64.6085 349.472L62.5236 342.783C62.5236 342.783 48.9715 342.268 29.1647 309.855Z" fill="black"/>
<path d="M99.5312 307.282C99.5312 307.282 84.4155 339.181 66.6936 343.812L63.5662 354.102C63.5662 354.102 95.8826 344.326 99.5312 307.282Z" fill="#A16324"/>
<path opacity="0.1" d="M99.5312 307.282C99.5312 307.282 92.7552 337.638 66.6936 348.957L68.2573 342.268C68.7785 342.268 82.3306 341.239 99.5312 307.282Z" fill="black"/>
<path d="M57.3114 273.325C57.8326 287.216 71.9059 297.506 89.1065 296.992C106.307 296.477 119.859 284.644 119.338 271.267C118.817 257.375 104.743 247.085 87.5428 247.599C70.3422 248.114 56.7902 259.433 57.3114 273.325Z" fill="#08D57F"/>
<path d="M33.8562 257.889C34.3774 270.752 47.9294 281.042 64.0876 280.528C80.2458 280.013 93.2766 269.209 92.7554 256.346C92.2342 243.483 78.6822 233.193 62.524 233.708C45.8445 233.708 33.335 245.027 33.8562 257.889Z" fill="#08D57F"/>
<path d="M71.9059 300.079C72.4271 312.942 85.4579 322.717 101.616 322.203C117.774 321.688 130.284 310.884 129.763 298.021C129.241 285.158 116.211 275.383 100.052 275.897C83.8942 276.926 71.3846 287.731 71.9059 300.079Z" fill="#08D57F"/>
<path d="M38.5474 299.564C39.0687 312.427 52.0994 322.203 68.2577 321.688C84.4159 321.174 96.9254 310.369 96.4042 298.021C95.883 285.158 82.8521 275.383 66.6939 275.897C50.5357 276.412 38.0262 286.702 38.5474 299.564Z" fill="#08D57F"/>
<path d="M2.06112 276.926C2.58236 289.789 15.6131 299.564 31.7713 299.05C47.9295 298.535 60.4391 287.731 59.9179 275.383C59.3966 262.52 46.3658 252.744 30.2076 253.259C14.0494 253.259 1.53989 264.064 2.06112 276.926Z" fill="#08D57F"/>
<path d="M1.01818 303.68C1.53942 316.543 14.5702 326.319 30.7284 325.804C46.8866 325.29 59.3961 314.485 58.8749 302.137C58.3537 289.274 45.3229 279.499 29.1647 280.013C13.0065 280.013 0.496952 290.818 1.01818 303.68Z" fill="#08D57F"/>
<path d="M6.75181 288.76C4.14565 285.158 2.06075 281.042 2.06075 276.926C1.53952 265.607 11.4429 255.831 24.4737 253.259C23.9525 255.831 23.9525 258.918 23.9525 262.005C24.9949 288.76 52.099 309.854 84.9366 308.825C102.137 308.311 117.253 301.622 128.199 291.332C129.241 293.39 129.763 295.963 129.763 298.021C130.284 310.883 117.774 321.688 101.616 322.203C94.84 322.203 88.064 320.659 83.3729 317.572C79.2031 319.63 73.9908 321.174 68.2572 321.688C62.0024 321.688 56.2689 320.659 51.0565 317.572C45.8442 322.203 38.547 325.29 30.7285 325.29C14.5703 325.804 1.53949 316.029 1.01826 303.166C0.49704 298.021 3.10319 292.876 6.75181 288.76Z" fill="black" fill-opacity="0.08"/>
<path d="M90.6699 298.021C90.6699 298.021 87.5425 313.971 69.2994 319.63V315.514C68.7782 315 76.5967 316.543 90.6699 298.021Z" fill="#A16324"/>
<path opacity="0.1" d="M90.6699 298.021C90.6699 298.021 82.8514 315 69.2994 317.572V315.514C68.7782 315 77.6391 315.514 90.6699 298.021Z" fill="black"/>
<path d="M52.0984 308.825C52.0984 308.825 54.7045 318.087 65.6504 320.659V318.087C65.1292 318.601 60.9593 319.63 52.0984 308.825Z" fill="#A16324"/>
<path opacity="0.1" d="M52.0984 308.825C52.0984 308.825 57.3107 318.601 65.6504 319.63V318.087C65.1292 318.601 59.9168 319.116 52.0984 308.825Z" fill="black"/>
<path opacity="0.1" d="M6.75181 288.76C4.14565 285.158 2.06075 281.557 2.06075 276.926C1.53952 264.064 14.0491 253.773 30.2072 253.259C31.7709 253.259 32.8134 253.259 34.3771 253.259C36.462 242.454 48.4504 234.222 62.5236 233.708C63.0449 233.708 63.5661 233.708 64.0873 233.708L67.2147 322.203C61.4812 322.203 56.2689 320.659 51.5778 318.601C46.3655 323.232 39.0682 326.319 31.2497 326.319C15.0915 326.833 2.06072 317.058 1.53949 304.195C0.497025 298.021 2.58195 292.876 6.75181 288.76Z" fill="black"/>
<path d="M67.1886 311.688C68.1073 311.818 68.7987 312.563 68.8299 313.49C69.0721 320.675 70.1715 350.519 72.1281 363.763C72.5433 366.573 70.3725 369.792 67.5414 370.025L59.9886 370.646C57.3406 370.864 55.2139 368.508 55.7224 365.9C58.0813 353.803 63.8112 323.934 64.9519 313.454C65.0729 312.343 66.0817 311.532 67.1886 311.688Z" fill="#A16324"/>
<path opacity="0.1" d="M65.8294 311.398C66.3015 311.398 66.6794 311.79 66.6627 312.261L64.7387 366.389C64.665 368.462 63.0197 370.134 60.9487 370.242L59.7239 370.306C57.1559 370.439 55.1309 368.149 55.5771 365.617L65.0083 312.087C65.0785 311.689 65.4247 311.398 65.8294 311.398Z" fill="black"/>
<path d="M269.453 169.273C269.453 152.808 277.272 138.402 288.739 128.627C284.569 120.909 281.963 112.162 281.963 102.901C281.963 75.1179 303.854 52.4796 330.959 52.4796C330.959 52.4796 330.959 52.4796 331.48 52.4796C342.426 22.1238 372.136 0 407.058 0C450.842 0 486.807 34.4719 486.807 77.1759C486.807 80.7775 486.286 84.379 485.764 87.9806C503.486 99.2997 515.475 118.336 515.475 140.975C515.475 158.982 507.656 175.447 495.147 186.766C500.88 198.599 504.529 211.977 504.529 225.868C504.529 275.261 463.351 315.392 412.271 315.392C392.985 315.392 375.784 309.733 360.669 299.957C354.935 302.015 349.202 303.044 342.426 303.044C311.673 303.044 286.654 278.862 286.654 249.021C286.654 236.673 290.824 225.354 298.121 216.607C280.92 206.832 269.453 189.338 269.453 169.273Z" fill="#08D57F"/>
<path d="M270.496 168.758C270.496 152.294 277.793 137.888 289.781 128.112C285.611 120.394 283.005 111.648 283.005 102.387C283.005 75.6324 303.854 53.5086 329.395 51.9651C324.704 68.9438 321.576 86.9515 321.576 105.988C321.576 194.998 380.476 267.029 453.448 267.029C469.085 267.029 483.68 263.942 497.232 257.768C483.68 291.211 450.842 314.878 411.75 314.878C392.985 314.878 375.263 309.218 360.669 299.443C354.935 301.501 349.202 302.53 342.947 302.53C312.715 302.53 287.696 278.348 287.696 248.507C287.696 236.158 291.866 224.839 299.163 215.578C282.484 206.832 270.496 189.338 270.496 168.758Z" fill="black" fill-opacity="0.08"/>
<path opacity="0.1" d="M269.974 169.273C269.974 153.323 277.271 138.402 289.26 128.627C285.09 120.909 282.484 112.677 282.484 102.901C282.484 75.1179 304.375 52.4797 330.958 52.4797C330.958 52.4797 330.958 52.4797 331.479 52.4797C341.383 23.1528 369.008 1.54352 401.846 0V313.849C386.73 312.305 372.135 307.16 360.147 298.928C354.414 300.986 348.68 302.015 342.425 302.015C312.194 302.015 287.696 277.833 287.696 247.992C287.696 235.644 291.866 224.325 298.642 215.578C281.441 207.346 269.974 189.338 269.974 169.273Z" fill="black"/>
<path d="M402.201 250.565C404.337 250.565 406.096 252.242 406.196 254.376L415.198 444.914C415.306 447.218 413.45 449.136 411.144 449.102L384.209 448.711C381.903 448.678 380.103 446.707 380.278 444.407L394.788 254.26C394.947 252.175 396.686 250.565 398.777 250.565H402.201Z" fill="#A16324"/>
<path d="M392.985 296.87C392.985 296.87 353.892 251.594 353.371 214.549C353.371 214.549 380.475 271.659 394.027 276.804L392.985 296.87Z" fill="#A16324"/>
<path d="M428.95 228.955C428.95 228.955 424.78 280.406 406.016 292.24L406.537 308.704C406.537 308.704 440.417 283.493 428.95 228.955Z" fill="#A16324"/>
<path opacity="0.1" d="M398.054 250.565C399.852 250.565 401.302 252.037 401.274 253.835L398.26 444.713C398.225 446.897 396.445 448.649 394.26 448.649H384.272C381.942 448.649 380.106 446.667 380.283 444.345L394.843 253.54C394.971 251.861 396.371 250.565 398.054 250.565Z" fill="black"/>
<path opacity="0.1" d="M392.464 282.464C392.464 282.464 364.839 256.739 352.85 214.549C352.85 214.549 377.348 267.029 392.464 276.804V282.464Z" fill="black"/>
<path opacity="0.1" d="M428.95 228.955C428.95 228.955 434.162 275.261 408.622 299.957L408.101 289.667C407.579 290.182 422.695 284.008 428.95 228.955Z" fill="black"/>
<path d="M464.915 54.0232C463.351 42.1896 447.714 23.6674 436.247 25.2109C424.78 26.7544 421.131 47.8491 422.695 60.1973C424.259 72.0309 435.204 80.7775 446.672 79.234C458.66 77.176 466.478 65.8569 464.915 54.0232Z" fill="white" fill-opacity="0.32"/>
<path d="M464.394 122.453C455.012 121.424 439.896 110.619 440.939 101.872C441.981 93.1257 458.139 89.5241 467.521 90.5531C476.904 91.5821 483.68 99.2997 483.158 108.046C482.116 117.307 473.776 123.482 464.394 122.453Z" fill="white" fill-opacity="0.32"/>
<path d="M418.004 92.0966C418.004 96.2127 421.132 99.2997 425.301 99.2997C429.471 99.2997 432.599 96.2127 432.599 92.0966C432.599 87.9806 429.471 84.8936 425.301 84.8936C421.653 84.8936 418.004 87.9806 418.004 92.0966Z" fill="white" fill-opacity="0.32"/>
<path d="M140.708 273.617C137.581 270.016 136.017 265.9 136.017 261.269C136.017 250.464 145.4 241.718 157.388 240.174C155.303 235.544 153.739 230.399 153.739 225.254C153.739 204.159 173.546 187.18 198.565 187.18C199.608 187.18 200.129 187.18 201.171 187.18C207.426 178.433 218.372 172.774 231.403 172.774C250.688 172.774 266.325 186.151 266.325 202.615C266.325 209.304 263.719 215.478 259.028 220.623C268.41 225.768 274.665 234.515 274.665 244.29C274.665 249.95 272.58 255.609 268.932 260.24C276.229 263.842 280.92 271.045 280.92 278.762C280.92 289.052 272.58 297.284 261.634 299.857C263.198 302.43 264.24 305.517 264.24 308.604C264.24 318.379 254.858 326.611 243.391 326.611C239.221 326.611 235.051 325.582 231.403 323.524C229.839 332.271 221.499 338.959 210.554 338.959C199.086 338.959 189.704 330.727 189.704 320.952V320.437C180.843 318.894 173.546 315.292 167.291 310.147C164.164 311.176 160.515 312.205 156.867 312.205C142.793 312.205 131.848 302.43 131.848 290.596C131.848 283.393 134.975 277.219 140.708 273.617Z" fill="#08D57F"/>
<path d="M140.187 273.617C137.06 270.016 135.496 265.9 135.496 261.269C135.496 250.464 144.879 241.718 156.867 240.174C154.782 235.544 153.218 230.399 153.218 225.254C153.218 215.478 157.388 206.217 164.685 199.528C164.164 203.13 164.164 206.731 164.164 210.333C164.164 261.269 199.608 302.944 243.391 302.944C249.646 302.944 255.38 301.915 261.113 300.372C262.156 302.43 263.198 305.002 263.198 308.089C263.198 317.865 253.816 326.097 242.349 326.097C238.179 326.097 234.009 325.068 230.361 323.01C228.797 331.756 220.457 338.445 209.511 338.445C198.044 338.445 188.662 330.213 188.662 320.437V319.923C179.801 318.379 172.504 314.778 166.249 309.633C163.122 310.662 159.473 311.691 155.824 311.691C141.751 311.691 130.805 301.915 130.805 290.081C131.326 283.393 134.975 277.219 140.187 273.617Z" fill="black" fill-opacity="0.08"/>
<path opacity="0.1" d="M139.666 273.617C136.538 270.016 134.975 265.9 134.975 261.269C134.975 250.464 144.357 241.718 156.345 240.174C154.26 235.544 152.697 230.399 152.697 225.254C152.697 204.159 172.503 187.18 197.522 187.18C198.565 187.18 199.086 187.18 200.129 187.18C203.256 182.55 207.947 178.948 213.681 176.375V338.445C212.638 338.445 211.075 338.96 210.032 338.96C198.565 338.96 189.183 330.727 189.183 320.952V320.437C180.322 318.894 173.025 315.292 166.77 310.147C163.642 311.176 159.994 312.205 156.345 312.205C142.272 312.205 131.326 302.43 131.326 290.596C130.284 283.393 133.932 277.219 139.666 273.617Z" fill="black"/>
<path d="M207.948 331.756C207.948 331.756 181.365 305.002 180.843 283.393C180.843 283.393 199.608 316.836 208.469 319.923L207.948 331.756Z" fill="#A16324"/>
<path d="M229.84 302.944C229.84 302.944 227.233 320.437 214.203 324.553L214.724 330.213C214.724 329.698 238.179 321.466 229.84 302.944Z" fill="#A16324"/>
<path opacity="0.1" d="M207.426 323.524C207.426 323.524 188.662 308.604 180.843 283.393C180.843 283.393 197.523 314.263 207.947 319.923L207.426 323.524Z" fill="black"/>
<path opacity="0.1" d="M229.839 302.944C229.839 302.944 233.488 318.894 215.766 327.126L215.245 323.524C215.766 323.524 226.19 321.466 229.839 302.944Z" fill="black"/>
<path d="M213.018 304.488C215.144 304.488 216.898 306.15 217.012 308.273L222.837 416.551C222.96 418.841 221.136 420.766 218.843 420.766H203.442C201.099 420.766 199.258 418.761 199.456 416.427L208.678 308.148C208.855 306.078 210.586 304.488 212.664 304.488H213.018Z" fill="#A16324"/>
<path opacity="0.1" d="M211.214 304.488C212.569 304.488 213.661 305.599 213.636 306.953L211.666 416.838C211.627 419.019 209.848 420.766 207.667 420.766H203.441C201.098 420.766 199.257 418.761 199.456 416.427L208.801 306.704C208.908 305.451 209.956 304.488 211.214 304.488Z" fill="black"/>
<path d="M253.295 206.731C252.252 199.528 243.391 188.724 236.094 189.753C229.318 190.782 227.233 203.13 228.276 210.333C229.318 217.536 235.573 222.681 242.349 221.652C249.646 220.623 254.337 213.934 253.295 206.731Z" fill="white" fill-opacity="0.32"/>
<path d="M253.294 247.377C247.561 246.863 238.7 240.689 239.221 235.029C239.742 229.884 249.124 227.826 254.858 228.341C260.592 228.855 264.761 233.486 264.24 238.631C263.719 244.29 258.507 248.406 253.294 247.377Z" fill="white" fill-opacity="0.32"/>
<path d="M225.669 229.37C225.669 231.942 227.754 233.486 229.839 233.486C232.445 233.486 234.009 231.428 234.009 229.37C234.009 226.797 231.924 225.254 229.839 225.254C227.754 225.254 225.669 227.312 225.669 229.37Z" fill="white" fill-opacity="0.32"/>
</g>
<defs>
<clipPath id="clip0_2_325">
<rect width="514.98" height="450.411" fill="white" transform="matrix(-1 0 0 1 515.812 0)"/>
</clipPath>
</defs>
</svg>
