<svg width="1313" height="483" viewBox="0 0 1313 483" fill="none" xmlns="http://www.w3.org/2000/svg">
<path d="M1194.98 123.208C1194.98 146.293 1176.45 164.714 1153.75 164.714C1130.81 164.714 1112.51 146.06 1112.51 123.208C1112.51 100.357 1131.04 51.8557 1153.75 51.8557C1176.45 51.8557 1194.98 100.357 1194.98 123.208Z" fill="#08D57F"/>
<path d="M1180.15 73.5415C1180.15 74.7074 1180.15 76.1065 1180.15 77.2724C1180.15 113.881 1157.91 143.728 1130.35 143.728C1125.48 143.728 1120.85 142.796 1116.22 140.93C1122.93 154.921 1137.07 164.714 1153.51 164.714C1176.22 164.714 1194.75 146.06 1194.75 123.209C1194.98 110.384 1189.19 89.3977 1180.15 73.5415Z" fill="black" fill-opacity="0.12"/>
<path opacity="0.1" d="M1195.44 123.442C1195.44 100.59 1176.68 52.5553 1153.51 51.6226V165.414C1176.68 164.714 1195.44 146.293 1195.44 123.442Z" fill="black"/>
<path d="M1149.98 161.216H1147.78C1145.57 161.216 1143.78 163.007 1143.78 165.216V229.269C1143.78 231.478 1145.57 233.269 1147.78 233.269H1149.98C1152.19 233.269 1153.98 231.478 1153.98 229.269V165.216C1153.98 163.007 1152.19 161.216 1149.98 161.216Z" fill="#A16324"/>
<path d="M1125.25 155.154C1125.25 155.154 1125.71 176.839 1144.48 188.498L1144.25 181.969C1144.25 181.969 1131.74 169.611 1133.13 159.118L1125.25 155.154Z" fill="#A16324"/>
<path d="M1173.9 155.154C1173.9 155.154 1172.51 177.539 1153.74 189.198L1152.82 181.736C1152.82 181.736 1169.03 170.777 1166.72 157.486L1173.9 155.154Z" fill="#A16324"/>
<path opacity="0.1" d="M1153.98 162.149H1149.34V233.035H1153.98V162.149Z" fill="black"/>
<path opacity="0.1" d="M1128.73 157.952C1128.73 157.952 1131.04 177.306 1144.02 184.534V181.736C1144.02 181.736 1132.66 170.543 1133.13 159.584C1133.13 159.584 1130.81 158.418 1128.73 157.952Z" fill="black"/>
<path opacity="0.1" d="M1169.73 157.719C1169.73 157.719 1171.35 172.409 1153.98 185V181.037C1153.98 181.037 1167.88 171.243 1166.72 159.118L1169.73 157.719Z" fill="black"/>
<path d="M1200.31 145.827C1200.08 159.817 1188.49 171.01 1174.59 170.777C1160.7 170.544 1149.58 158.885 1149.81 144.894C1150.04 130.903 1162.09 101.523 1175.98 101.756C1189.88 101.989 1200.77 131.836 1200.31 145.827Z" fill="#08D57F"/>
<path d="M1191.97 115.28C1191.97 115.98 1191.97 116.913 1191.97 117.612C1191.51 139.997 1177.61 157.719 1160.93 157.486C1157.92 157.486 1155.14 156.786 1152.36 155.62C1156.29 164.248 1164.86 170.31 1174.83 170.544C1188.73 170.777 1200.31 159.817 1200.54 145.594C1200.54 137.899 1197.3 125.074 1191.97 115.28Z" fill="black" fill-opacity="0.12"/>
<path opacity="0.1" d="M1200.54 145.827C1200.77 131.836 1190.12 102.456 1175.98 101.523L1174.59 171.01C1188.73 171.01 1200.31 159.818 1200.54 145.827Z" fill="black"/>
<path d="M1145.41 138.365C1145.41 150.957 1135.21 161.217 1122.7 161.217C1110.19 161.217 1100 150.957 1100 138.365C1100 125.773 1110.19 99.1912 1122.7 99.1912C1135.21 99.1912 1145.41 125.773 1145.41 138.365Z" fill="#08D57F"/>
<path d="M1137.07 111.083C1137.07 111.783 1137.07 112.482 1137.07 113.182C1137.07 133.235 1124.79 149.557 1109.73 149.557C1106.95 149.557 1104.4 149.091 1102.08 148.158C1105.79 155.853 1113.44 161.216 1122.47 161.216C1134.98 161.216 1145.17 150.956 1145.17 138.365C1145.41 131.369 1142.16 119.944 1137.07 111.083Z" fill="black" fill-opacity="0.12"/>
<path opacity="0.1" d="M1145.64 138.365C1145.64 125.773 1135.44 99.6571 1122.7 98.9575V161.216C1135.21 161.216 1145.64 150.956 1145.64 138.365Z" fill="black"/>
<path d="M1146.1 86.5995C1148.88 82.4023 1149.34 72.3756 1145.17 69.5775C1141.24 67.0125 1134.29 72.6088 1131.51 76.806C1128.73 81.0032 1129.65 86.5994 1133.82 89.3976C1137.76 92.1957 1143.09 91.0299 1146.1 86.5995Z" fill="white" fill-opacity="0.32"/>
<path d="M1280.46 87.0193C1286.49 87.0193 1291.81 90.2838 1293.9 94.9474C1294.83 94.7142 1295.75 94.481 1296.68 94.481C1301.31 94.481 1305.02 98.2119 1305.02 102.875C1305.02 107.539 1301.31 111.27 1296.68 111.27C1294.13 111.27 1292.05 110.104 1290.42 108.472C1287.88 110.57 1284.17 111.969 1280.23 111.969C1272.12 111.969 1265.64 106.373 1265.64 99.611C1265.87 92.6156 1272.35 87.0193 1280.46 87.0193Z" fill="#08D57F"/>
<path d="M1280 103.109C1280 103.109 1272.82 120.597 1265.17 122.696L1263.78 128.525C1263.55 128.292 1277.92 123.162 1280 103.109Z" fill="#A16324"/>
<path opacity="0.1" d="M1280 103.109C1280 103.109 1276.76 119.897 1265.17 125.494L1266.1 121.996C1266.1 121.763 1271.89 121.53 1280 103.109Z" fill="black"/>
<path d="M1275.37 87.7188C1275.13 88.8846 1274.9 90.0505 1274.9 91.2164C1274.9 98.9113 1282.32 105.207 1291.35 105.207C1296.68 105.207 1301.54 102.875 1304.56 99.6109C1305.02 100.544 1305.25 101.709 1305.25 102.642C1305.25 107.306 1301.54 111.037 1296.91 111.037C1294.36 111.037 1292.28 109.871 1290.66 108.238C1288.11 110.337 1284.4 111.736 1280.46 111.736C1272.35 111.736 1265.87 106.14 1265.87 99.3777C1265.87 94.0146 1269.81 89.5842 1275.37 87.7188Z" fill="black" fill-opacity="0.12"/>
<path opacity="0.1" d="M1280.46 87.0193C1281.62 87.0193 1283.01 87.2525 1284.17 87.4857V111.503C1283.01 111.736 1281.85 111.969 1280.46 111.969C1272.35 111.969 1265.87 106.373 1265.87 99.611C1265.87 92.6156 1272.35 87.0193 1280.46 87.0193Z" fill="black"/>
<path d="M1260.1 60.0921C1258.91 60.1554 1257.96 61.1196 1257.92 62.3144L1254.44 158.822C1254.35 161.113 1256.21 163.004 1258.5 162.966L1264.25 162.871C1266.52 162.834 1268.31 160.909 1268.17 158.638L1262.53 62.2626C1262.45 60.9947 1261.37 60.025 1260.1 60.0921V60.0921Z" fill="#A16324"/>
<path opacity="0.1" d="M1259.85 60.2038L1261 162.802H1268.42L1262.39 59.9707L1259.85 60.2038Z" fill="black"/>
<path d="M1312.43 33.6213C1312.43 23.5946 1303.4 15.4334 1292.05 15.4334C1288.11 15.4334 1284.4 16.3661 1281.39 18.2315C1279.3 8.20484 1270.04 0.976318 1258.92 0.976318C1249.88 0.976318 1242.24 5.8731 1238.53 13.1016C1236.91 12.8685 1235.29 12.6352 1233.44 12.6352C1215.13 12.6352 1200.31 25.4601 1200.31 41.083C1200.31 56.9392 1215.13 69.5308 1233.44 69.5308C1242.01 69.5308 1249.65 66.7327 1255.68 62.0691C1259.61 63.9345 1264.25 65.1004 1269.11 65.1004C1271.66 65.1004 1273.98 64.8673 1276.29 64.4009C1278.61 68.3649 1283.71 70.9299 1289.5 70.9299C1297.37 70.9299 1303.86 66.0332 1303.86 59.9705C1303.86 56.2397 1301.54 53.2083 1297.84 51.1097C1306.41 48.7779 1312.43 41.7826 1312.43 33.6213Z" fill="#08D57F"/>
<path d="M1312.43 33.6213C1312.43 23.5946 1303.4 15.4333 1292.05 15.4333C1288.11 15.4333 1284.4 16.366 1281.39 18.2315C1281.16 17.7651 1281.16 17.0656 1280.93 16.5992C1280.93 17.2988 1280.93 17.9983 1280.93 18.6978C1280.93 38.9844 1260.54 55.5401 1235.29 55.5401C1221.39 55.5401 1209.11 50.6434 1200.77 42.7153C1201.93 57.6387 1216.06 69.2978 1233.67 69.2978C1242.24 69.2978 1249.88 66.4996 1255.91 61.836C1259.84 63.7014 1264.48 64.8673 1269.34 64.8673C1271.89 64.8673 1274.21 64.6341 1276.52 64.1678C1278.84 68.1318 1283.94 70.6968 1289.73 70.6968C1297.61 70.6968 1304.09 65.8001 1304.09 59.7374C1304.09 56.0065 1301.78 52.9752 1298.07 50.8765C1306.41 48.7779 1312.43 41.7826 1312.43 33.6213Z" fill="black" fill-opacity="0.12"/>
<path opacity="0.1" d="M1312.43 33.8545C1312.43 23.8278 1303.4 15.6666 1292.05 15.6666C1288.11 15.6666 1284.4 16.5992 1281.39 18.4647C1279.31 8.90435 1270.5 1.44265 1259.85 1.20947V64.1677C1262.63 65.1004 1265.87 65.5668 1269.11 65.5668C1271.66 65.5668 1273.98 65.3336 1276.29 64.8672C1278.61 68.8312 1283.71 71.3962 1289.5 71.3962C1297.37 71.3962 1303.86 66.4995 1303.86 60.4368C1303.86 56.706 1301.54 53.6747 1298.07 51.5761C1306.41 49.0111 1312.43 42.0157 1312.43 33.8545Z" fill="black"/>
<path d="M1241.54 77.459C1235.52 77.459 1230.19 80.7235 1228.11 85.387C1227.18 85.1538 1226.25 84.9206 1225.33 84.9206C1220.69 84.9206 1216.99 88.6515 1216.99 93.3151C1216.99 97.9786 1220.69 101.709 1225.33 101.709C1227.88 101.709 1229.96 100.544 1231.58 98.9113C1234.13 101.01 1237.84 102.409 1241.78 102.409C1249.88 102.409 1256.37 96.8128 1256.37 90.0506C1255.91 83.0552 1249.42 77.459 1241.54 77.459Z" fill="#08D57F"/>
<path d="M1242.01 93.5483C1242.01 93.5483 1249.19 111.037 1256.83 113.135L1258.22 118.965C1258.22 118.732 1243.86 113.835 1242.01 93.5483Z" fill="#A16324"/>
<path opacity="0.1" d="M1242.01 93.5483C1242.01 93.5483 1245.25 110.337 1256.83 115.934L1255.91 112.436C1255.91 112.436 1249.88 111.969 1242.01 93.5483Z" fill="black"/>
<path d="M1246.41 78.1587C1246.64 79.3246 1246.87 80.4905 1246.87 81.6564C1246.87 89.3513 1239.46 95.6471 1230.42 95.6471C1225.1 95.6471 1220.23 93.3153 1217.22 90.0508C1216.76 90.9835 1216.53 92.1494 1216.53 93.0821C1216.53 97.7457 1220.23 101.477 1224.87 101.477C1227.41 101.477 1229.5 100.311 1231.12 98.6784C1233.67 100.777 1237.37 102.176 1241.31 102.176C1249.42 102.176 1255.91 96.5798 1255.91 89.8176C1255.91 84.4545 1251.97 80.0241 1246.41 78.1587Z" fill="black" fill-opacity="0.12"/>
<path opacity="0.1" d="M1241.54 77.459C1240.39 77.459 1239 77.6921 1237.84 77.9253V101.943C1239 102.176 1240.15 102.409 1241.54 102.409C1249.65 102.409 1256.14 96.8128 1256.14 90.0506C1255.91 83.0552 1249.42 77.459 1241.54 77.459Z" fill="black"/>
<path d="M1235.29 43.415C1228.34 45.7468 1214.67 42.4823 1212.59 35.7201C1210.5 29.1911 1220.93 21.7294 1227.64 19.3976C1234.59 17.0658 1241.78 20.7967 1243.86 27.3257C1245.95 33.8547 1242.01 41.0832 1235.29 43.415Z" fill="white" fill-opacity="0.32"/>
<path d="M1248.26 47.379C1250.31 47.379 1251.97 45.7086 1251.97 43.6481C1251.97 41.5876 1250.31 39.9172 1248.26 39.9172C1246.22 39.9172 1244.56 41.5876 1244.56 43.6481C1244.56 45.7086 1246.22 47.379 1248.26 47.379Z" fill="white" fill-opacity="0.32"/>
<path d="M1142.63 103.855C1144.67 103.855 1146.33 102.184 1146.33 100.124C1146.33 98.0632 1144.67 96.3928 1142.63 96.3928C1140.58 96.3928 1138.92 98.0632 1138.92 100.124C1138.92 102.184 1140.58 103.855 1142.63 103.855Z" fill="white" fill-opacity="0.32"/>
<path d="M1118.3 124.607C1120.15 121.576 1120.62 114.581 1117.61 112.715C1114.83 110.85 1109.96 114.814 1108.11 117.845C1106.26 120.877 1106.95 124.841 1109.73 126.706C1112.51 128.338 1116.45 127.406 1118.3 124.607Z" fill="white" fill-opacity="0.32"/>
<path d="M1118.53 133.935C1118.53 135.334 1117.37 136.5 1115.98 136.5C1114.59 136.5 1113.44 135.334 1113.44 133.935C1113.44 132.536 1114.59 131.37 1115.98 131.37C1117.37 131.37 1118.53 132.536 1118.53 133.935Z" fill="white" fill-opacity="0.32"/>
<path d="M500.036 333.855C507.905 333.855 514.617 338.048 517.394 343.872C518.551 343.406 519.708 343.173 521.097 343.173C527.114 343.173 531.743 348.065 531.743 353.889C531.743 359.946 526.883 364.605 521.097 364.605C517.857 364.605 515.08 363.207 513.228 361.111C509.756 363.906 505.359 365.537 500.268 365.537C490.084 365.537 481.521 358.315 481.521 349.696C481.29 341.077 489.621 333.855 500.036 333.855Z" fill="#08D57F"/>
<path d="M499.342 354.588C499.342 354.588 490.084 376.952 480.133 379.514L478.281 386.969C478.281 386.969 496.796 380.446 499.342 354.588Z" fill="#A16324"/>
<path opacity="0.1" d="M499.342 354.588C499.342 354.588 495.176 376.02 480.364 383.475L481.521 378.816C481.521 378.583 489.159 378.117 499.342 354.588Z" fill="black"/>
<path d="M493.556 334.787C493.093 336.185 492.862 337.815 492.862 339.213C492.862 349.23 502.351 357.151 513.923 357.151C520.866 357.151 527.114 354.355 530.817 349.929C531.28 351.094 531.512 352.492 531.512 353.889C531.512 359.946 526.652 364.605 520.866 364.605C517.626 364.605 514.848 363.207 512.997 361.111C509.525 363.906 505.128 365.537 500.036 365.537C489.853 365.537 481.29 358.315 481.29 349.696C481.29 342.94 486.382 337.117 493.556 334.787Z" fill="black" fill-opacity="0.12"/>
<path opacity="0.1" d="M500.036 333.855C501.656 333.855 503.276 334.088 504.665 334.321V365.304C503.276 365.537 501.656 365.77 500.036 365.77C489.853 365.77 481.29 358.548 481.29 349.929C481.29 341.077 489.622 333.855 500.036 333.855Z" fill="black"/>
<path d="M471.106 299.378L466.626 427.447C466.545 429.751 468.423 431.645 470.727 431.586L480.401 431.336C482.659 431.278 484.421 429.362 484.291 427.106L476.892 299.378H471.106Z" fill="#A16324"/>
<path opacity="0.1" d="M473.652 299.378L475.041 431.463L480.396 431.331C482.656 431.276 484.422 429.359 484.291 427.101L476.892 299.378H473.652Z" fill="black"/>
<path d="M541 265.367C541 252.321 529.429 241.838 514.848 241.838C509.756 241.838 505.128 243.236 501.193 245.333C498.416 232.753 486.613 223.202 472.495 223.202C460.923 223.202 451.203 229.492 446.343 238.577C444.26 238.344 442.177 238.111 439.863 238.111C416.487 238.111 397.51 254.651 397.51 274.685C397.51 294.952 416.487 311.259 439.863 311.259C450.74 311.259 460.692 307.764 468.329 301.708C473.189 304.037 479.207 305.668 485.687 305.668C488.927 305.668 491.936 305.202 494.713 304.736C497.49 309.628 503.971 313.355 511.608 313.355C521.791 313.355 530.123 307.066 530.123 299.378C530.123 294.719 527.114 290.526 522.486 287.963C533.132 284.935 541 276.083 541 265.367Z" fill="#08D57F"/>
<path d="M541 265.367C541 252.321 529.429 241.838 514.848 241.838C509.757 241.838 505.128 243.236 501.193 245.333C500.962 244.634 500.962 243.935 500.73 243.236C500.73 244.168 500.73 245.1 500.73 246.032C500.73 272.122 474.347 293.321 441.946 293.321C424.125 293.321 408.156 287.031 397.51 276.781C398.898 295.884 417.182 311.026 439.863 311.026C450.74 311.026 460.692 307.531 468.329 301.475C473.189 303.804 479.207 305.435 485.687 305.435C488.927 305.435 491.936 304.969 494.713 304.503C497.49 309.395 503.971 313.122 511.608 313.122C521.791 313.122 530.123 306.833 530.123 299.145C530.123 294.486 527.114 290.293 522.486 287.73C533.132 284.935 541 276.083 541 265.367Z" fill="black" fill-opacity="0.12"/>
<path opacity="0.1" d="M541 265.833C541 252.787 529.429 242.304 514.848 242.304C509.757 242.304 505.128 243.702 501.193 245.799C498.416 233.452 487.307 224.134 473.652 223.668V304.503C477.355 305.668 481.29 306.367 485.687 306.367C488.927 306.367 491.936 305.901 494.713 305.435C497.49 310.327 503.971 314.054 511.608 314.054C521.791 314.054 530.123 307.764 530.123 300.077C530.123 295.418 527.114 291.225 522.486 288.662C533.132 285.168 541 276.316 541 265.833Z" fill="black"/>
<path d="M450.046 321.742C442.177 321.742 435.465 325.935 432.688 331.759C431.531 331.293 430.373 331.06 428.985 331.06C422.967 331.06 418.339 335.952 418.339 341.776C418.339 347.833 423.199 352.492 428.985 352.492C432.225 352.492 435.002 351.094 436.854 348.997C440.325 351.793 444.723 353.423 449.814 353.423C459.997 353.423 468.56 346.202 468.56 337.583C468.56 328.73 460.229 321.742 450.046 321.742Z" fill="#08D57F"/>
<path d="M450.509 342.241C450.509 342.241 459.766 364.605 469.718 367.168L471.569 374.622C471.569 374.622 453.054 368.332 450.509 342.241Z" fill="#A16324"/>
<path opacity="0.1" d="M450.509 342.241C450.509 342.241 454.675 363.673 469.487 370.895L468.329 366.236C468.561 366.469 460.923 366.003 450.509 342.241Z" fill="black"/>
<path d="M456.526 322.673C456.989 324.071 457.22 325.702 457.22 327.099C457.22 337.116 447.731 345.037 436.16 345.037C429.216 345.037 422.968 342.241 419.265 337.815C418.802 338.98 418.57 340.378 418.57 341.776C418.57 347.832 423.43 352.491 429.216 352.491C432.457 352.491 435.234 351.094 437.085 348.997C440.557 351.793 444.954 353.423 450.046 353.423C460.229 353.423 468.792 346.202 468.792 337.582C468.561 330.827 463.469 325.003 456.526 322.673Z" fill="black" fill-opacity="0.12"/>
<path opacity="0.1" d="M450.046 321.742C448.426 321.742 446.805 321.975 445.417 322.208V352.958C446.805 353.191 448.426 353.423 450.046 353.423C460.229 353.423 468.792 346.202 468.792 337.583C468.561 328.73 460.229 321.742 450.046 321.742Z" fill="black"/>
<path d="M435.233 268.162C428.29 270.492 414.636 267.23 412.553 260.475C410.47 253.952 420.884 246.497 427.596 244.168C434.539 241.838 441.714 245.566 443.797 252.088C446.111 258.844 442.177 266.066 435.233 268.162Z" fill="white" fill-opacity="0.32"/>
<path d="M438.243 286.333C441.714 286.1 447.037 281.906 446.806 278.645C446.574 275.384 440.557 273.986 437.086 274.452C433.614 274.685 431.068 277.713 431.3 280.975C431.763 284.236 434.771 286.566 438.243 286.333Z" fill="white" fill-opacity="0.32"/>
<path d="M448.426 272.355C450.471 272.355 452.129 270.687 452.129 268.628C452.129 266.57 450.471 264.901 448.426 264.901C446.38 264.901 444.723 266.57 444.723 268.628C444.723 270.687 446.38 272.355 448.426 272.355Z" fill="white" fill-opacity="0.32"/>
<path d="M522.022 354.122C519.476 354.821 514.616 353.656 513.691 351.327C512.996 348.997 516.699 346.202 519.245 345.503C521.791 344.804 524.337 345.969 525.262 348.298C525.957 350.861 524.337 353.423 522.022 354.122Z" fill="white" fill-opacity="0.32"/>
<path d="M436.16 336.882C437.317 336.65 439.4 335.252 439.4 334.088C439.4 332.923 437.086 332.458 435.929 332.458C434.771 332.69 433.846 333.622 433.846 334.786C433.846 336.184 435.003 337.115 436.16 336.882Z" fill="white" fill-opacity="0.32"/>
<path d="M441.251 330.593C441.251 331.292 440.556 331.991 439.862 331.991C439.168 331.991 438.474 331.292 438.474 330.593C438.474 329.895 439.168 329.196 439.862 329.196C440.556 329.196 441.251 329.662 441.251 330.593Z" fill="white" fill-opacity="0.32"/>
<path d="M509.757 349.696C510.914 349.463 512.997 348.065 512.997 346.901C512.997 345.736 510.683 345.27 509.526 345.27C508.368 345.503 507.443 346.435 507.443 347.6C507.211 348.997 508.368 349.929 509.757 349.696Z" fill="white" fill-opacity="0.32"/>
<path d="M514.617 343.406C514.617 344.105 513.923 344.804 513.228 344.804C512.534 344.804 511.84 344.105 511.84 343.406C511.84 342.707 512.534 342.009 513.228 342.009C514.154 342.009 514.617 342.474 514.617 343.406Z" fill="white" fill-opacity="0.32"/>
<path d="M577.799 376.577C577.799 376.577 568.079 394.281 557.895 396.145L555.812 401.969C555.812 401.969 574.327 397.309 577.799 376.577Z" fill="#A16324"/>
<path opacity="0.1" d="M577.799 376.577C577.799 376.577 572.939 393.815 557.895 399.173L559.053 395.446C559.053 395.446 566.69 395.213 577.799 376.577Z" fill="black"/>
<path d="M538.455 375.179C538.455 375.179 547.018 393.582 556.97 395.912L558.59 401.968C558.59 401.968 540.306 396.377 538.455 375.179Z" fill="#A16324"/>
<path opacity="0.1" d="M538.455 375.179C538.455 375.179 542.158 392.65 556.738 398.94L555.581 395.213C555.581 395.213 548.175 394.747 538.455 375.179Z" fill="black"/>
<path d="M561.83 355.843C561.598 363.764 553.498 369.821 544.009 369.355C534.52 369.122 526.883 362.366 527.114 354.679C527.346 346.758 535.446 340.702 544.935 341.168C554.655 341.4 562.061 347.923 561.83 355.843Z" fill="#08D57F"/>
<path d="M575.253 346.758C575.022 354.213 567.384 359.804 558.358 359.571C549.332 359.338 542.158 353.048 542.389 345.594C542.621 338.139 550.258 332.548 559.284 332.781C568.31 333.247 575.485 339.537 575.253 346.758Z" fill="#08D57F"/>
<path d="M553.961 371.219C553.73 378.44 546.324 384.031 537.298 383.798C528.272 383.565 521.329 377.275 521.56 370.054C521.792 362.832 529.198 357.241 538.224 357.474C547.018 357.707 554.193 363.997 553.961 371.219Z" fill="#08D57F"/>
<path d="M572.476 370.753C572.245 377.974 564.839 383.565 555.813 383.332C546.787 383.099 539.843 376.81 540.075 369.588C540.306 362.366 547.712 356.776 556.738 357.008C565.764 357.474 572.707 363.531 572.476 370.753Z" fill="#08D57F"/>
<path d="M592.843 357.707C592.612 364.929 585.206 370.52 576.18 370.287C567.154 370.054 560.211 363.764 560.442 356.543C560.673 349.321 568.079 343.73 577.105 343.963C586.132 344.429 593.075 350.486 592.843 357.707Z" fill="#08D57F"/>
<path d="M593.538 373.082C593.306 380.304 585.9 385.895 576.874 385.662C567.848 385.429 560.905 379.139 561.136 371.918C561.368 364.696 568.774 359.105 577.8 359.338C586.826 359.571 593.769 365.628 593.538 373.082Z" fill="#08D57F"/>
<path d="M590.297 364.696C591.917 362.832 592.843 360.503 592.843 357.94C593.074 351.65 587.751 346.06 580.345 344.662C580.577 346.293 580.808 347.923 580.808 349.554C580.345 364.929 565.07 377.042 546.787 376.344C537.066 376.111 528.503 372.15 522.717 366.56C522.255 367.724 521.792 369.122 521.792 370.52C521.56 377.741 528.503 384.031 537.529 384.264C541.464 384.497 544.935 383.332 547.944 381.702C550.258 383.099 553.267 383.798 556.276 384.031C559.747 384.264 563.219 383.332 565.765 381.702C568.542 384.264 572.708 385.895 577.336 386.128C586.363 386.361 593.768 380.77 594 373.548C593.768 369.821 592.38 367.025 590.297 364.696Z" fill="black" fill-opacity="0.12"/>
<path d="M543.315 369.821C543.315 369.821 545.167 378.906 555.35 382.167V379.838C555.581 379.605 551.184 380.537 543.315 369.821Z" fill="#A16324"/>
<path opacity="0.1" d="M543.315 369.821C543.315 369.821 547.712 379.605 555.35 381.003V379.838C555.581 379.605 550.49 379.838 543.315 369.821Z" fill="black"/>
<path d="M565.071 376.11C565.071 376.11 563.682 381.235 557.433 382.866V381.468C557.433 381.468 559.979 382.167 565.071 376.11Z" fill="#A16324"/>
<path opacity="0.1" d="M565.071 376.11C565.071 376.11 562.062 381.701 557.665 382.167V381.468C557.433 381.468 560.442 381.934 565.071 376.11Z" fill="black"/>
<path opacity="0.1" d="M590.528 364.696C592.148 362.832 593.074 360.503 593.074 357.94C593.305 350.719 586.362 344.662 577.336 344.196C576.642 344.196 575.947 344.196 575.253 344.196C573.865 338.139 567.384 333.247 559.515 333.014C559.284 333.014 559.053 333.014 558.821 333.014L556.97 383.565C560.21 383.565 563.218 382.633 565.764 381.469C568.541 384.031 572.707 385.662 577.336 385.895C586.362 386.128 593.768 380.537 594 373.315C594 370.054 592.611 367.025 590.528 364.696Z" fill="black"/>
<path d="M555.582 377.741C555.582 377.741 554.901 399.491 553.686 407.749C553.481 409.143 554.554 410.72 555.957 410.843L561.035 411.288C562.361 411.404 563.429 410.221 563.178 408.914C561.805 401.764 558.085 382.062 557.896 377.508L555.582 377.741Z" fill="#A16324"/>
<path opacity="0.1" d="M556.507 377.741L557.895 411.054L560.881 411.304C562.183 411.413 563.238 410.266 563.02 408.978L557.664 377.275L556.507 377.741Z" fill="black"/>
<path d="M550.027 359.804C546.787 360.736 540.538 359.338 539.612 356.31C538.686 353.281 543.547 349.787 546.555 348.855C549.795 347.923 553.036 349.554 553.961 352.582C554.887 355.611 553.036 358.872 550.027 359.804Z" fill="white" fill-opacity="0.32"/>
<path d="M534.289 354.213C535.909 353.98 538.455 352.116 538.223 350.719C537.992 349.088 535.215 348.622 533.826 348.622C532.206 348.855 531.049 350.02 531.28 351.65C531.28 353.281 532.669 354.446 534.289 354.213Z" fill="white" fill-opacity="0.32"/>
<path d="M540.769 346.059C540.769 346.991 540.075 347.689 539.149 347.689C538.223 347.689 537.529 346.991 537.529 346.059C537.529 345.128 538.223 344.429 539.149 344.429C540.075 344.429 540.769 345.128 540.769 346.059Z" fill="white" fill-opacity="0.32"/>
<path d="M226.338 409.241H217.294V478.29C217.294 480.499 219.085 482.29 221.294 482.29H222.338C224.547 482.29 226.338 480.499 226.338 478.29V409.241Z" fill="#A16324"/>
<path d="M200.308 403.246C200.308 403.246 200.75 425.227 217.735 436.995L217.514 430.334C217.514 430.334 206.264 417.678 207.588 407.02L200.308 403.246Z" fill="#A16324"/>
<path d="M244.206 403.246C244.206 403.246 242.882 426.115 226.117 437.883L225.235 430.334C225.235 430.334 240.015 419.232 237.809 405.688L244.206 403.246Z" fill="#A16324"/>
<path d="M262.294 369.719C262.294 392.144 244.206 410.129 222.147 410.129C200.088 410.129 182 391.922 182 369.719C182 347.515 200.088 300.222 222.147 300.222C244.206 300.222 262.294 347.515 262.294 369.719Z" fill="#08D57F"/>
<path d="M247.735 321.537C247.735 322.869 247.735 323.979 247.735 325.312C247.735 361.059 226.118 389.924 199.426 389.924C194.794 389.924 190.162 389.036 185.75 387.259C192.147 400.803 206.044 410.351 221.926 410.351C244.206 410.351 262.073 392.144 262.073 369.941C262.294 357.285 256.779 337.08 247.735 321.537Z" fill="black" fill-opacity="0.12"/>
<path opacity="0.1" d="M262.736 369.941C262.736 347.737 244.647 301.11 222.147 300V410.573C244.647 410.129 262.736 392.144 262.736 369.941Z" fill="black"/>
<path opacity="0.1" d="M226.339 410.129H222.147V482.068H222.339C224.548 482.068 226.339 480.277 226.339 478.068V410.129Z" fill="black"/>
<path opacity="0.1" d="M203.618 405.91C203.618 405.91 205.603 425.449 217.294 432.776V429.89C217.294 429.89 207.147 418.566 207.589 407.464C207.589 407.686 205.383 406.354 203.618 405.91Z" fill="black"/>
<path opacity="0.1" d="M240.676 405.688C240.676 405.688 242.22 420.564 226.338 433.22V429.224C226.338 429.224 238.911 419.454 237.808 407.02L240.676 405.688Z" fill="black"/>
<path d="M195.897 331.954C196.559 326.847 203.177 318.854 208.03 319.52C212.883 320.186 214.427 329.29 213.765 334.618C213.103 339.725 208.471 343.5 203.618 342.834C198.544 341.945 195.236 337.061 195.897 331.954Z" fill="white" fill-opacity="0.32"/>
<path d="M196.117 361.485C200.088 361.041 206.485 356.378 206.043 352.603C205.602 348.829 198.764 347.274 194.793 347.718C190.823 348.163 187.955 351.493 188.176 355.268C188.617 359.264 192.146 361.929 196.117 361.485Z" fill="white" fill-opacity="0.32"/>
<path d="M215.75 348.385C215.75 350.161 214.426 351.493 212.661 351.493C210.897 351.493 209.573 350.161 209.573 348.385C209.573 346.609 210.897 345.276 212.661 345.276C214.205 345.276 215.75 346.609 215.75 348.385Z" fill="white" fill-opacity="0.32"/>
<path d="M342.088 388.938L321.809 423.812L326.759 426.728L347.037 391.854L342.088 388.938Z" fill="#A16324"/>
<path opacity="0.1" d="M344.609 390.178L324.216 425.243L326.881 426.814L347.275 391.748L344.609 390.178Z" fill="black"/>
<path d="M366.853 360.744C366.853 382.726 347 400.488 322.515 400.488C298.03 400.488 278.177 382.726 278.177 360.744C278.177 338.763 298.03 321 322.515 321C347 321 366.853 338.763 366.853 360.744Z" fill="#08D57F"/>
<path d="M355.161 333.878C356.926 338.097 357.808 342.76 357.808 347.422C357.808 369.404 337.955 387.166 313.47 387.166C300.455 387.166 288.985 382.282 280.823 374.288C287 389.609 303.323 400.488 322.514 400.488C347 400.488 366.853 382.726 366.853 360.744C366.853 350.309 362.441 340.983 355.161 333.878Z" fill="black" fill-opacity="0.12"/>
<path opacity="0.1" d="M366.853 360.744C366.853 339.207 347.441 321.444 323.177 321V400.488C347.441 399.822 366.853 382.281 366.853 360.744Z" fill="black"/>
<path d="M374.353 373.622C374.353 382.282 365.088 389.387 353.838 389.387C342.367 389.387 333.323 382.282 333.323 373.622C333.323 364.963 342.588 357.858 353.838 357.858C365.088 357.858 374.353 364.963 374.353 373.622Z" fill="#08D57F"/>
<path d="M365.529 360.744C367.073 362.964 367.955 365.629 367.955 368.293C367.955 376.953 358.691 384.058 347.22 384.058C342.808 384.058 338.617 382.948 335.308 381.171C338.838 386.056 345.676 389.387 353.397 389.387C364.867 389.387 374.132 382.282 374.132 373.622C374.352 368.293 371.044 363.631 365.529 360.744Z" fill="black" fill-opacity="0.12"/>
<path opacity="0.1" d="M353.617 357.858V389.387C365.088 389.387 374.132 382.281 374.132 373.622C374.352 364.963 365.088 357.858 353.617 357.858Z" fill="black"/>
<path d="M299.191 391.413L295.226 395.584L319.774 419.222L323.738 415.05L299.191 391.413Z" fill="#A16324"/>
<path opacity="0.1" d="M298.985 391.099L296.849 393.345L321.546 417.146L323.682 414.901L298.985 391.099Z" fill="black"/>
<path d="M327.808 399.6H319.646V457.77C319.646 459.979 321.437 461.77 323.646 461.77H323.808C326.017 461.77 327.808 459.979 327.808 457.77V399.6Z" fill="#A16324"/>
<path opacity="0.1" d="M327.808 399.822H323.396V461.77H327.808V399.822Z" fill="black"/>
<path d="M311.044 380.727C311.044 389.831 301.779 397.158 290.309 397.158C278.838 397.158 269.794 389.608 269.794 380.505C269.794 371.402 279.059 364.074 290.529 364.074C302 364.296 311.264 371.624 311.044 380.727Z" fill="#08D57F"/>
<path d="M302.441 367.405C303.985 369.847 304.868 372.512 304.868 375.176C304.868 384.28 295.603 391.607 284.132 391.607C279.721 391.607 275.529 390.497 272.221 388.498C275.75 393.605 282.588 397.158 290.529 397.158C302 397.158 311.265 389.831 311.265 380.727C311.265 375.398 307.956 370.514 302.441 367.405Z" fill="black" fill-opacity="0.12"/>
<path opacity="0.1" d="M290.529 364.297L290.309 397.602C301.779 397.602 311.044 390.275 311.044 381.171C311.044 371.846 302 364.297 290.529 364.297Z" fill="black"/>
<path d="M319.426 325.72C319.426 327.497 318.103 328.829 316.338 328.829C314.573 328.829 313.25 327.497 313.25 325.72C313.25 323.944 314.573 322.612 316.338 322.612C317.882 322.612 319.426 324.166 319.426 325.72Z" fill="white" fill-opacity="0.32"/>
<path d="M293.397 338.821C294.059 333.714 300.676 325.72 305.529 326.387C310.382 327.053 311.926 336.156 311.265 341.485C310.603 346.592 305.971 350.366 301.118 349.7C296.044 348.812 292.515 344.149 293.397 338.821Z" fill="white" fill-opacity="0.32"/>
<path d="M289.867 360.802C293.176 360.58 298.69 356.583 298.47 353.253C298.249 349.922 292.293 348.59 288.764 349.034C285.455 349.256 282.808 352.365 283.249 355.473C283.249 358.804 286.337 361.246 289.867 360.802Z" fill="white" fill-opacity="0.32"/>
<path d="M897.054 274.041H896.105C893.896 274.041 892.105 275.832 892.105 278.041V334.707C892.105 336.916 893.896 338.707 896.105 338.707H897.054C899.263 338.707 901.054 336.916 901.054 334.707V278.041C901.054 275.832 899.263 274.041 897.054 274.041Z" fill="#A16324"/>
<path d="M875.355 268.729C875.355 268.729 875.814 288.129 892.564 298.521L892.334 292.748C892.334 292.748 881.091 281.662 882.468 272.193L875.355 268.729Z" fill="#A16324"/>
<path d="M918.95 268.729C918.95 268.729 917.573 288.822 900.824 299.214L899.906 292.517C899.906 292.517 914.591 282.586 912.296 270.808L918.95 268.729Z" fill="#A16324"/>
<path opacity="0.1" d="M901.282 274.965H897.152V338.707H901.282V274.965Z" fill="black"/>
<path opacity="0.1" d="M878.567 271.039C878.567 271.039 880.632 288.36 892.104 294.826V292.286C892.104 292.286 882.009 282.355 882.468 272.424C882.468 272.655 880.403 271.5 878.567 271.039Z" fill="black"/>
<path opacity="0.1" d="M915.509 271.039C915.509 271.039 916.885 284.203 901.283 295.519V292.055C901.283 292.055 913.673 283.279 912.755 272.424L915.509 271.039Z" fill="black"/>
<path d="M923.998 216.534C927.21 212.839 929.046 207.989 929.046 202.677C929.046 191.592 920.556 182.354 909.772 181.43C905.413 173.347 896.923 167.573 887.057 167.573C872.832 167.573 861.359 179.12 861.359 193.439C861.359 198.058 862.507 202.446 864.801 206.142C859.983 210.991 857 217.689 857 225.31C857 233.394 860.671 240.784 866.407 245.634C861.818 249.56 858.835 255.565 858.835 262.262C858.835 274.272 868.472 284.202 880.633 284.202C888.434 284.202 895.088 280.276 898.988 274.041C904.266 278.198 911.149 280.507 918.262 280.507C935.929 280.507 950.384 265.957 950.384 248.174C949.925 232.701 938.682 219.537 923.998 216.534Z" fill="#08D57F"/>
<path d="M923.998 216.534C927.21 212.839 929.046 207.989 929.046 202.677C929.046 193.208 922.851 185.125 914.591 182.354C917.803 189.282 919.639 197.596 919.639 206.142C919.639 233.163 901.971 254.872 880.174 254.872C873.75 254.872 868.014 253.024 862.507 249.791C859.983 253.486 858.377 257.874 858.377 262.724C858.377 274.964 868.014 284.664 880.174 284.664C887.975 284.664 894.629 280.507 898.53 274.503C903.807 278.66 910.461 280.969 917.803 280.969C935.47 280.969 949.926 266.419 949.926 248.405C949.926 232.701 938.683 219.537 923.998 216.534Z" fill="black" fill-opacity="0.12"/>
<path opacity="0.1" d="M924.457 216.534C927.669 212.839 929.505 207.989 929.505 202.677C929.505 191.592 921.015 182.354 910.231 181.43C907.248 175.656 901.971 171.268 895.776 168.958V278.198C896.923 277.043 898.071 275.657 898.988 274.271C904.266 278.429 910.92 280.738 918.262 280.738C935.929 280.738 950.384 266.188 950.384 248.405C950.155 232.701 939.141 219.536 924.457 216.534Z" fill="black"/>
<path d="M1003.16 318.383C1007.52 314.919 1010.27 309.607 1010.27 303.602C1010.27 293.209 1001.78 284.664 991.455 284.664C990.996 284.664 990.767 284.664 990.308 284.664C990.767 283.048 990.996 281.2 990.996 279.352C990.996 268.729 982.507 260.184 971.952 260.184C961.398 260.184 952.908 268.729 952.908 279.352C952.908 280.045 952.908 280.738 952.908 281.2C943.96 283.279 937.306 291.131 937.306 300.6C937.306 305.219 938.912 309.376 941.436 312.84C936.847 315.381 933.635 320.23 933.635 325.773C933.635 333.857 940.289 340.554 948.319 340.554C952.679 340.554 956.35 338.707 959.103 335.704C962.315 339.63 967.134 341.94 972.64 341.94C977.918 341.94 982.736 339.63 985.948 335.935C988.243 338.706 991.684 340.554 995.585 340.554C1002.47 340.554 1007.97 335.011 1007.97 328.083C1007.97 324.157 1006.14 320.461 1003.16 318.383Z" fill="#08D57F"/>
<path d="M1003.16 318.383C1007.52 314.918 1010.27 309.607 1010.27 303.602C1010.27 296.904 1006.83 291.131 1001.78 287.897C997.421 310.761 981.818 327.621 963.004 327.621C953.596 327.621 944.877 323.233 937.994 316.073C935.47 318.614 933.864 322.309 933.864 326.004C933.864 334.087 940.518 340.785 948.549 340.785C952.908 340.785 956.579 338.937 959.333 335.935C962.545 339.861 967.363 342.17 972.87 342.17C978.147 342.17 982.965 339.861 986.178 336.166C988.472 338.937 991.914 340.785 995.814 340.785C1002.7 340.785 1008.2 335.242 1008.2 328.313C1007.97 324.156 1006.14 320.461 1003.16 318.383Z" fill="black" fill-opacity="0.12"/>
<path opacity="0.1" d="M1003.16 318.383C1007.52 314.919 1010.27 309.607 1010.27 303.602C1010.27 293.209 1001.78 284.664 991.455 284.664C990.996 284.664 990.767 284.664 990.308 284.664C990.767 283.048 990.996 281.2 990.996 279.352C990.996 269.191 983.195 260.876 973.329 260.184V342.171C978.377 341.94 982.736 339.63 985.719 336.166C988.013 338.937 991.455 340.785 995.356 340.785C1002.24 340.785 1007.75 335.242 1007.75 328.314C1007.98 324.157 1006.14 320.461 1003.16 318.383Z" fill="black"/>
<path d="M1069.92 240.784C1071.99 238.474 1073.14 235.703 1073.14 232.701C1073.14 225.772 1067.17 219.998 1059.37 219.075C1060.75 216.072 1061.67 212.839 1061.67 209.375C1061.67 195.749 1048.82 184.663 1033.21 184.663C1032.75 184.663 1032.07 184.663 1031.61 184.663C1027.71 179.12 1020.59 175.194 1012.33 175.194C999.944 175.194 989.849 183.97 989.849 194.825C989.849 199.213 991.455 203.37 994.437 206.603C988.472 209.837 984.571 215.379 984.571 222.077C984.571 225.772 985.948 229.467 988.243 232.239C983.654 234.779 980.671 239.167 980.671 244.248C980.671 250.946 985.948 256.488 993.061 257.874C991.914 259.491 991.225 261.338 991.225 263.417C991.225 269.883 997.191 275.195 1004.53 275.195C1007.29 275.195 1010.04 274.502 1012.1 273.117C1013.02 278.89 1018.53 283.279 1025.41 283.279C1032.75 283.279 1038.72 277.967 1038.72 271.5C1038.72 271.269 1038.72 271.269 1038.72 271.038C1044.23 270.114 1049.05 267.805 1052.95 264.341C1055.01 265.033 1057.31 265.495 1059.6 265.495C1068.55 265.495 1075.66 259.26 1075.66 251.408C1075.89 247.25 1073.6 243.324 1069.92 240.784Z" fill="#08D57F"/>
<path d="M1070.38 240.784C1072.45 238.475 1073.6 235.703 1073.6 232.701C1073.6 225.772 1067.63 219.999 1059.83 219.075C1061.21 216.073 1062.12 212.839 1062.12 209.375C1062.12 202.908 1059.37 197.135 1054.78 192.747C1055.01 195.056 1055.24 197.366 1055.24 199.906C1055.24 233.163 1032.53 260.184 1004.53 260.184C1000.63 260.184 996.962 259.722 993.291 258.567C992.373 259.953 991.914 261.8 991.914 263.417C991.914 269.884 997.88 275.195 1005.22 275.195C1007.98 275.195 1010.73 274.503 1012.79 273.117C1013.71 278.891 1019.22 283.279 1026.1 283.279C1033.44 283.279 1039.41 277.967 1039.41 271.5C1039.41 271.269 1039.41 271.269 1039.41 271.038C1044.92 270.115 1049.73 267.805 1053.63 264.341C1055.7 265.034 1057.99 265.496 1060.29 265.496C1069.24 265.496 1076.35 259.26 1076.35 251.408C1076.12 247.251 1073.83 243.324 1070.38 240.784Z" fill="black" fill-opacity="0.12"/>
<path opacity="0.1" d="M1070.84 240.784C1072.91 238.474 1074.06 235.703 1074.06 232.701C1074.06 225.772 1068.09 219.999 1060.29 219.075C1061.67 216.072 1062.58 212.839 1062.58 209.375C1062.58 195.749 1049.73 184.663 1034.13 184.663C1033.67 184.663 1032.98 184.663 1032.53 184.663C1030.46 181.661 1027.48 179.352 1024.04 177.504V283.048C1024.72 283.279 1025.64 283.279 1026.56 283.279C1033.9 283.279 1039.87 277.967 1039.87 271.5C1039.87 271.269 1039.87 271.269 1039.87 271.038C1045.37 270.115 1050.19 267.805 1054.09 264.341C1056.16 265.034 1058.45 265.496 1060.75 265.496C1069.7 265.496 1076.81 259.26 1076.81 251.408C1076.58 247.251 1074.51 243.324 1070.84 240.784Z" fill="black"/>
<path d="M1027.25 278.66C1027.25 278.66 1044 261.338 1044.46 247.25C1044.46 247.25 1032.53 268.96 1026.79 271.038L1027.25 278.66Z" fill="#A16324"/>
<path d="M1013.02 259.953C1013.02 259.953 1014.86 271.269 1023.12 274.041L1022.66 277.736C1022.66 277.505 1007.98 271.962 1013.02 259.953Z" fill="#A16324"/>
<path opacity="0.1" d="M1027.25 273.348C1027.25 273.348 1039.18 263.648 1044.46 247.25C1044.46 247.25 1033.9 267.343 1027.25 271.038V273.348Z" fill="black"/>
<path opacity="0.1" d="M1013.02 259.953C1013.02 259.953 1010.73 270.114 1021.97 275.657L1022.2 273.348C1022.2 273.348 1015.55 272.193 1013.02 259.953Z" fill="black"/>
<path d="M1023.85 260.996C1022.52 261.059 1021.46 262.118 1021.39 263.444L1017.83 332.59C1017.71 334.9 1019.57 336.83 1021.89 336.795L1028.68 336.693C1031.01 336.658 1032.81 334.658 1032.61 332.343L1026.55 263.351C1026.43 261.969 1025.23 260.929 1023.85 260.996V260.996Z" fill="#A16324"/>
<path opacity="0.1" d="M1023.58 261.108L1024.72 336.628H1032.98L1026.33 260.877L1023.58 261.108Z" fill="black"/>
<path d="M882.468 192.053C884.762 188.82 884.992 181.199 881.55 179.12C878.108 177.042 872.602 181.199 870.307 184.432C868.013 187.665 868.931 191.822 872.372 193.901C875.585 196.21 880.173 195.287 882.468 192.053Z" fill="white" fill-opacity="0.32"/>
<path d="M882.698 202.446C882.698 204.063 881.321 205.218 879.715 205.218C878.109 205.218 876.732 203.832 876.732 202.446C876.732 200.83 878.109 199.675 879.715 199.675C881.321 199.444 882.698 200.83 882.698 202.446Z" fill="white" fill-opacity="0.32"/>
<path d="M871.914 214.456C874.208 214.225 878.109 211.915 877.879 209.606C877.65 207.527 873.52 206.604 871.226 206.604C868.931 206.834 867.096 208.682 867.325 210.761C867.554 213.07 869.619 214.687 871.914 214.456Z" fill="white" fill-opacity="0.32"/>
<path d="M968.97 286.743C971.264 283.51 971.494 275.888 968.052 273.81C964.61 271.731 959.104 275.888 956.809 279.122C954.515 282.355 955.433 286.512 958.874 288.59C962.316 290.9 966.675 289.976 968.97 286.743Z" fill="white" fill-opacity="0.32"/>
<path d="M969.428 297.136C969.428 298.752 968.052 299.907 966.446 299.907C964.84 299.907 963.463 298.521 963.463 297.136C963.463 295.519 964.84 294.364 966.446 294.364C968.052 294.133 969.428 295.519 969.428 297.136Z" fill="white" fill-opacity="0.32"/>
<path d="M958.644 309.145C960.939 308.914 964.839 306.605 964.61 304.295C964.38 302.217 960.25 301.293 957.956 301.293C955.662 301.524 953.826 303.371 954.055 305.45C954.055 307.759 956.12 309.376 958.644 309.145Z" fill="white" fill-opacity="0.32"/>
<path d="M1014.4 201.291C1016.69 198.058 1016.92 190.437 1013.48 188.358C1010.04 186.28 1004.53 190.437 1002.24 193.67C999.944 196.903 1000.86 201.06 1004.3 203.139C1007.52 205.449 1012.11 204.525 1014.4 201.291Z" fill="white" fill-opacity="0.32"/>
<path d="M1014.63 211.684C1014.63 213.301 1013.25 214.456 1011.65 214.456C1010.04 214.456 1008.66 213.07 1008.66 211.684C1008.66 210.068 1010.04 208.913 1011.65 208.913C1013.25 208.682 1014.63 210.068 1014.63 211.684Z" fill="white" fill-opacity="0.32"/>
<path d="M1003.84 223.694C1006.14 223.463 1010.04 221.153 1009.81 218.844C1009.58 216.765 1005.45 215.842 1003.16 215.842C1000.86 216.073 999.026 217.92 999.256 219.999C999.485 222.308 1001.55 223.925 1003.84 223.694Z" fill="white" fill-opacity="0.32"/>
<path d="M779.06 279.604L775.016 392.078C774.934 394.364 776.782 396.253 779.069 396.222L786.799 396.115C789.079 396.084 790.871 394.156 790.737 391.881L784.138 279.604H779.06Z" fill="#A16324"/>
<path opacity="0.1" d="M781.268 279.604L782.593 396.057H786.741C789.043 396.057 790.869 394.12 790.734 391.823L784.139 279.604H781.268Z" fill="black"/>
<path d="M799.815 328.719C809.309 328.052 819.244 326.497 828.517 323.608C828.517 323.608 811.737 311.385 797.607 290.05C805.555 289.605 813.724 288.272 821.673 285.827C821.673 285.827 791.204 263.826 783.255 227.156C783.255 227.156 768.462 270.493 743.954 284.049C743.954 284.049 751.682 286.272 763.163 288.272C755.215 301.384 744.617 314.718 732.032 321.607C732.032 321.607 742.409 324.719 758.085 326.941C749.033 341.609 737.331 356.054 723.2 363.833C723.2 363.833 783.697 382.056 834.258 366.277C834.479 366.055 815.932 352.499 799.815 328.719Z" fill="#08D57F"/>
<path d="M800.036 328.719C809.53 328.052 819.466 326.497 828.739 323.608C828.739 323.608 811.959 311.384 797.828 290.05C805.777 289.605 813.946 288.272 821.895 285.827C821.895 285.827 801.803 271.159 789.88 246.046C792.75 256.269 794.296 268.048 794.296 280.493C794.296 320.718 777.516 353.165 756.761 353.165C751.904 353.165 747.046 351.387 742.851 348.054C737.111 354.499 730.487 360.055 723.642 364.055C723.642 364.055 784.139 382.279 834.7 366.5C834.7 366.055 815.933 352.499 800.036 328.719Z" fill="black" fill-opacity="0.12"/>
<path opacity="0.1" d="M834.48 366.055C834.48 366.055 815.933 352.499 799.815 328.719C809.309 328.052 819.245 326.497 828.518 323.608C828.518 323.608 811.738 311.385 797.607 290.05C805.556 289.605 813.725 288.272 821.453 285.827C821.453 285.827 790.984 263.826 783.035 227.156C783.035 227.156 782.814 227.601 782.594 228.49V372.5C799.374 372.722 817.479 371.389 834.48 366.055Z" fill="black"/>
<path d="M664.249 290.494L660.868 384.511C660.786 386.801 662.64 388.692 664.932 388.654L670.014 388.57C672.289 388.532 674.074 386.608 673.941 384.337L668.444 290.494H664.249Z" fill="#A16324"/>
<path opacity="0.1" d="M666.016 290.494L667.119 388.501H674.185L668.444 290.494H666.016Z" fill="black"/>
<path d="M681.692 331.83C689.64 331.164 698.03 329.83 705.758 327.386C705.758 327.386 691.627 317.163 679.705 299.161C686.328 298.717 693.173 297.606 699.797 295.606C699.797 295.606 674.185 276.937 667.561 246.269C667.561 246.269 655.197 282.716 634.442 294.272C634.442 294.272 640.845 296.272 650.56 297.828C643.936 308.94 635.105 320.052 624.507 325.83C624.507 325.83 633.338 328.497 646.365 330.497C638.637 342.72 628.923 354.943 617 361.388C617 361.388 667.782 376.723 710.395 363.388C710.836 363.166 695.16 351.832 681.692 331.83Z" fill="#08D57F"/>
<path d="M681.912 331.831C689.861 331.164 698.251 329.83 705.979 327.386C705.979 327.386 691.848 317.163 679.925 299.162C686.549 298.717 693.393 297.606 700.017 295.606C700.017 295.606 683.016 283.383 673.081 262.048C675.509 270.715 676.834 280.494 676.834 290.939C676.834 324.719 662.704 352.054 645.261 352.054C641.066 352.054 637.092 350.499 633.559 347.61C628.702 352.943 623.182 357.832 617.221 360.944C617.221 360.944 668.003 376.278 710.615 362.944C711.057 363.166 695.381 351.832 681.912 331.831Z" fill="black" fill-opacity="0.12"/>
<path opacity="0.1" d="M710.836 363.166C710.836 363.166 695.16 351.832 681.691 331.608C689.64 330.941 698.03 329.608 705.757 327.163C705.757 327.163 691.627 316.94 679.704 298.939C686.328 298.495 693.172 297.383 699.796 295.383C699.796 295.383 674.184 276.715 667.561 246.046C667.561 246.046 667.34 246.491 667.119 247.158V368.5C681.25 368.944 696.484 367.611 710.836 363.166Z" fill="black"/>
<path d="M744.176 320.718L741.671 394.055C741.592 396.35 743.457 398.239 745.752 398.191L747.979 398.144C750.244 398.097 752.017 396.18 751.889 393.918L747.708 320.496L744.176 320.718Z" fill="#A16324"/>
<path opacity="0.1" d="M745.722 320.496L746.605 398.28L748.061 398.221C750.294 398.131 752.02 396.228 751.893 393.997L747.709 320.496H745.722Z" fill="black"/>
<path d="M758.086 353.165C764.489 352.721 770.892 351.61 777.295 349.609C777.295 349.609 766.034 341.609 756.761 327.163C762.06 326.719 767.58 326.052 772.658 324.274C772.658 324.274 752.345 309.607 747.046 285.16C747.046 285.16 737.111 314.051 720.772 323.163C720.772 323.163 725.85 324.719 733.578 325.83C728.279 334.497 721.214 343.387 712.824 348.054C712.824 348.054 719.889 350.054 730.045 351.61C724.084 361.388 716.135 370.944 706.862 376.056C706.862 376.056 747.267 388.279 780.827 377.612C781.269 378.056 768.684 369.166 758.086 353.165Z" fill="#08D57F"/>
<path d="M758.306 353.165C764.709 352.721 771.112 351.61 777.515 349.61C777.515 349.61 766.255 341.609 756.982 327.164C762.281 326.719 767.8 326.052 772.878 324.274C772.878 324.274 759.41 314.496 751.683 297.828C753.67 304.718 754.774 312.496 754.774 320.719C754.774 347.387 743.513 369.167 729.603 369.167C726.292 369.167 723.2 367.833 720.33 365.833C716.356 370.056 712.161 373.834 707.524 376.501C707.524 376.501 747.929 388.724 781.489 378.056C781.269 378.056 768.904 369.167 758.306 353.165Z" fill="black" fill-opacity="0.12"/>
<path opacity="0.1" d="M781.269 378.056C781.269 378.056 768.904 369.166 758.085 353.165C764.488 352.721 770.891 351.61 777.294 349.609C777.294 349.609 766.034 341.609 756.761 327.163C762.06 326.719 767.579 326.052 772.658 324.274C772.658 324.274 752.345 309.607 747.046 285.16C747.046 285.16 746.825 285.383 746.825 286.049V382.056C757.865 382.723 769.787 381.612 781.269 378.056Z" fill="black"/>
<path d="M664.249 290.272C666.457 287.161 666.677 279.827 663.366 277.827C660.054 275.827 654.755 279.827 652.547 282.938C650.339 286.05 651.222 290.05 654.534 292.05C657.625 294.05 662.041 293.383 664.249 290.272Z" fill="white" fill-opacity="0.32"/>
<path d="M664.47 300.05C664.47 301.606 663.145 302.717 661.6 302.717C660.054 302.717 658.729 301.384 658.729 300.05C658.729 298.495 660.054 297.384 661.6 297.384C663.145 297.384 664.47 298.495 664.47 300.05Z" fill="white" fill-opacity="0.32"/>
<path d="M654.093 311.829C656.3 311.607 660.054 309.384 659.833 307.162C659.612 305.162 655.638 304.273 653.43 304.273C651.222 304.495 649.456 306.273 649.677 308.273C649.898 310.273 651.885 311.829 654.093 311.829Z" fill="white" fill-opacity="0.32"/>
<path d="M777.295 279.604C779.503 276.493 779.723 269.159 776.411 267.159C773.1 265.159 767.801 269.159 765.593 272.271C763.385 275.382 764.268 279.382 767.58 281.382C770.892 283.605 775.087 282.716 777.295 279.604Z" fill="white" fill-opacity="0.32"/>
<path d="M777.736 289.605C777.736 291.161 776.411 292.272 774.865 292.272C773.32 292.272 771.995 290.939 771.995 289.605C771.995 288.05 773.32 286.938 774.865 286.938C776.411 286.716 777.736 288.05 777.736 289.605Z" fill="white" fill-opacity="0.32"/>
<path d="M767.358 301.162C769.566 300.939 773.32 298.717 773.099 296.495C772.878 294.494 768.904 293.605 766.696 293.605C764.488 293.828 762.722 295.606 762.942 297.606C762.942 299.828 764.93 301.384 767.358 301.162Z" fill="white" fill-opacity="0.32"/>
<path d="M54.3218 393.534H51.4442C49.2351 393.534 47.4442 395.325 47.4442 397.534V466.874C47.4442 469.084 49.2351 470.874 51.4442 470.874H54.3218C56.5309 470.874 58.3218 469.084 58.3218 466.874V397.534C58.3218 395.325 56.5309 393.534 54.3218 393.534Z" fill="#A16324"/>
<path d="M27.3094 387.011C27.3094 387.011 28.0038 410.306 48.1388 422.653L47.9073 415.664C47.9073 415.664 34.484 402.386 36.104 390.971L27.3094 387.011Z" fill="#A16324"/>
<path d="M79.6143 387.011C79.6143 387.011 77.9942 411.238 57.8592 423.585L56.702 415.665C56.702 415.665 74.2913 403.784 71.514 389.574L79.6143 387.011Z" fill="#A16324"/>
<path opacity="0.1" d="M58.0905 394.466H53.2303V470.642H54.0905C56.2997 470.642 58.0905 468.851 58.0905 466.642V394.466Z" fill="black"/>
<path opacity="0.1" d="M31.244 390.04C31.244 390.04 33.5584 410.772 47.4446 418.693V415.665C47.4446 415.665 35.4099 403.551 35.8728 391.903C35.8728 391.67 33.3269 390.505 31.244 390.04Z" fill="black"/>
<path opacity="0.1" d="M75.217 389.807C75.217 389.807 77.0685 405.415 58.3221 418.926V414.733C58.3221 414.733 73.1341 404.25 71.9769 391.204L75.217 389.807Z" fill="black"/>
<path d="M110.395 347.409C110.395 341.818 106.461 336.926 101.138 335.062C102.295 332.034 102.989 328.773 102.989 325.511C102.989 310.602 90.2603 298.023 73.8283 296.159C74.0597 294.994 74.2911 293.829 74.2911 292.665C74.2911 280.784 63.4136 271 50.2217 271C36.7984 271 26.1523 280.784 26.1523 292.665C26.1523 293.829 26.3837 294.761 26.3837 295.926C11.8032 299.886 1.38851 311.301 1.38851 324.579C1.38851 332.733 5.32298 339.954 11.3403 345.312C4.39724 349.738 -0.00012207 356.494 -0.00012207 364.414C-0.00012207 375.596 9.02593 384.682 21.0606 387.477C21.0606 387.943 21.0606 388.409 21.0606 389.108C21.0606 396.562 27.5409 402.386 35.4098 402.386C41.89 402.386 47.4445 398.426 49.296 392.835C54.8505 396.795 61.7935 398.892 69.4309 398.892C87.7145 398.892 102.295 385.613 102.295 369.307C102.295 366.045 101.601 363.017 100.675 359.988C106.229 358.358 110.395 353.466 110.395 347.409Z" fill="#08D57F"/>
<path d="M110.395 347.875C110.395 342.284 106.461 337.392 101.138 335.528C102.295 332.5 102.989 329.238 102.989 325.977C102.989 319.454 100.444 313.397 96.5091 308.505C95.1205 341.585 70.5881 368.142 40.9642 368.142C27.078 368.142 14.1176 362.318 4.39723 352.767C1.61999 356.494 0.231323 360.687 0.231323 365.346C0.231323 376.528 9.25738 385.613 21.2921 388.408C21.2921 388.874 21.2921 389.34 21.2921 390.039C21.2921 397.494 27.7724 403.318 35.6412 403.318C42.1214 403.318 47.6759 399.357 49.5274 393.766C55.0819 397.727 62.025 399.823 69.6624 399.823C87.9459 399.823 102.526 386.545 102.526 370.238C102.526 366.977 101.832 363.948 100.906 360.92C106.229 358.823 110.395 353.698 110.395 347.875Z" fill="black" fill-opacity="0.12"/>
<path opacity="0.1" d="M111.089 347.875C111.089 342.284 107.155 337.392 101.832 335.528C102.989 332.5 103.683 329.238 103.683 325.977C103.683 311.068 90.9544 298.488 74.5224 296.625C74.7539 295.46 74.9853 294.295 74.9853 293.13C74.9853 281.25 64.1077 271.466 50.9158 271.466H50.6844V393.766C56.0075 397.261 62.7192 399.357 70.1251 399.357C88.4086 399.357 102.989 386.079 102.989 369.772C102.989 366.511 102.295 363.482 101.369 360.454C106.924 359.056 111.089 353.931 111.089 347.875Z" fill="black"/>
<path d="M30.5492 293.829C31.2435 289.403 36.5665 282.88 40.7324 283.346C44.8983 284.045 46.0555 291.5 45.5926 295.926C44.8983 300.352 41.1953 303.38 37.0294 302.682C32.8635 301.983 30.0863 298.022 30.5492 293.829Z" fill="white" fill-opacity="0.32"/>
<path d="M32.1693 329.937C35.6409 329.704 41.4268 325.511 41.1954 322.017C40.9639 318.522 34.7151 317.125 31.0121 317.591C27.5406 317.824 24.7633 321.085 25.2262 324.346C25.4577 327.841 28.4663 330.403 32.1693 329.937Z" fill="white" fill-opacity="0.32"/>
<path d="M31.9383 309.437C31.9383 311.301 30.5497 312.699 28.6982 312.699C26.8467 312.699 25.458 311.301 25.458 309.437C25.458 307.574 26.8467 306.176 28.6982 306.176C30.5497 306.176 31.9383 307.574 31.9383 309.437Z" fill="white" fill-opacity="0.32"/>
<path d="M149.74 449.233C150.897 447.369 151.823 445.273 151.823 442.943C151.823 436.653 146.5 431.528 139.557 430.364C138.168 426.869 135.622 423.841 132.614 421.511C133.308 420.347 133.771 418.716 133.771 417.318C133.771 412.193 128.911 408 122.893 408C116.876 408 112.016 412.193 112.016 417.318C112.016 418.017 112.247 418.716 112.247 419.415C105.304 422.443 100.444 428.966 100.212 436.886C96.0465 438.051 93.0378 441.312 93.0378 445.273C93.0378 447.835 94.4265 450.398 96.5094 452.028C92.3435 455.29 89.7977 459.716 89.7977 464.841C89.7977 474.392 98.8237 482.079 109.933 482.079C116.644 482.079 122.43 479.284 126.133 474.858C129.605 477.886 134.465 479.75 139.788 479.75C150.203 479.75 158.766 472.295 158.766 463.443C158.997 457.153 155.294 452.028 149.74 449.233Z" fill="#08D57F"/>
<path d="M150.203 449.466C151.36 447.602 152.286 445.506 152.286 443.176C152.286 437.818 148.583 433.392 143.26 431.529C143.26 431.529 143.26 431.529 143.26 431.761C143.26 452.727 124.05 469.966 100.444 469.966C97.2038 469.966 94.1951 469.733 91.1864 469.034C93.2693 476.722 101.138 482.313 110.627 482.313C117.339 482.313 123.125 479.517 126.828 475.091C130.299 478.119 135.159 479.983 140.482 479.983C150.897 479.983 159.46 472.528 159.46 463.676C159.46 457.386 155.757 452.261 150.203 449.466Z" fill="black" fill-opacity="0.12"/>
<path opacity="0.1" d="M150.203 449.466C151.36 447.602 152.286 445.506 152.286 443.176C152.286 436.886 146.963 431.761 140.02 430.597C138.631 427.102 136.085 424.074 133.077 421.744C133.771 420.58 134.234 418.949 134.234 417.551C134.234 412.659 129.605 408.466 124.051 408.233V477.653C125.208 476.722 126.134 476.023 126.828 474.858C130.299 477.886 135.16 479.75 140.483 479.75C150.897 479.75 159.461 472.295 159.461 463.443C159.461 457.619 155.758 452.261 150.203 449.466Z" fill="black"/>
<path d="M109.469 430.83C110.627 427.568 115.718 423.375 118.727 424.307C121.736 425.472 121.736 431.296 120.578 434.557C119.421 437.819 116.181 439.449 113.172 438.517C109.932 437.586 108.312 434.091 109.469 430.83Z" fill="white" fill-opacity="0.32"/>
<path d="M105.073 458.551C107.85 458.784 112.71 456.455 112.942 453.892C113.173 451.33 108.776 449.233 105.999 449C103.221 448.767 100.676 450.631 100.444 453.426C100.444 455.989 102.296 458.318 105.073 458.551Z" fill="white" fill-opacity="0.32"/>
<path d="M108.081 442.943C107.85 444.341 106.461 445.273 105.072 445.04C103.684 444.807 102.758 443.409 102.989 442.012C103.221 440.614 104.61 439.682 105.998 439.915C107.387 440.381 108.313 441.546 108.081 442.943Z" fill="white" fill-opacity="0.32"/>
</svg>
