<svg width="652" height="636" viewBox="0 0 652 636" fill="none" xmlns="http://www.w3.org/2000/svg">
<g clip-path="url(#clip0_2_1264)">
<path d="M375.089 406.879C344.311 421.458 311.265 431.178 278.544 438.629C273.036 439.925 267.528 440.897 262.021 442.193C264.289 435.066 264.936 427.29 266.88 420.487C271.416 405.908 279.516 393.272 285.995 379.665C286.643 378.369 286.643 376.426 285.671 375.13C278.22 366.058 269.148 384.201 266.556 388.413C261.697 396.512 257.485 403.964 253.273 412.387C251.329 416.275 249.386 422.106 247.118 426.966C243.878 433.122 241.934 439.925 239.018 446.081C239.018 446.405 238.694 446.405 238.694 446.729C197.225 454.504 155.756 461.308 116.555 478.155C115.583 478.479 114.611 478.155 114.287 477.183C108.131 456.124 110.075 432.474 112.667 411.091C114.611 392.948 125.302 376.102 124.978 357.959C120.442 356.339 115.907 356.015 111.371 357.959C110.399 360.875 109.427 363.79 108.455 366.706C105.539 378.045 103.271 389.385 100.68 400.724C95.82 396.512 91.9323 391.005 87.7205 386.145C82.2129 379.665 75.4094 373.186 71.5216 365.41C69.2538 360.875 65.3661 360.551 62.7742 364.438C59.8584 368.974 68.2819 380.637 70.5497 383.877C72.1696 386.469 73.7895 389.061 75.7334 391.976C81.8889 402.02 89.9884 411.415 96.7919 419.839C94.2001 438.305 93.8761 457.096 88.6925 475.239C83.8328 491.438 76.3813 505.369 64.7181 517.68C50.1391 532.907 28.1086 540.358 9.64185 549.754C-6.23307 557.529 -21.46 565.953 -36.039 575.996C-43.1666 580.856 -49.9701 586.363 -57.0976 591.547C-60.0134 594.787 -60.9854 598.027 -60.9854 601.59C-59.3655 609.042 -57.0976 616.169 -56.7736 617.465C-55.8017 620.381 -54.5058 623.297 -52.8859 625.889C-52.2379 626.861 -51.59 627.509 -50.942 628.156C-45.7584 633.664 -40.2508 635.608 -34.4192 635.284C2.19035 622.001 33.6162 598.35 62.4503 572.108C79.2971 556.557 95.496 540.034 112.343 524.807C125.626 512.82 140.853 503.425 157.376 496.621C177.462 484.958 199.169 478.479 222.171 471.351C250.681 462.604 279.191 454.18 308.026 445.757C322.929 441.545 337.508 436.685 351.763 430.854C359.862 427.614 369.905 421.458 379.301 419.839C380.273 415.951 378.329 410.767 375.089 406.879Z" fill="#A16324"/>
<path d="M101.328 410.767C101.328 407.203 101.004 403.964 100.356 400.724C95.8202 396.512 91.9324 391.328 88.0447 386.793C82.5371 380.313 75.7335 373.834 71.8458 366.058C69.9019 362.17 66.6621 361.198 64.0703 363.79C76.7055 379.341 86.4248 397.16 101.328 410.767Z" fill="black" fill-opacity="0.16"/>
<path d="M112.991 377.721C109.427 390.033 107.159 402.344 106.187 415.303C105.215 427.29 105.863 439.601 106.187 451.588C106.511 462.28 107.159 473.295 110.723 483.338C112.019 481.718 113.315 479.774 114.935 478.155C114.611 477.831 114.287 477.831 114.287 477.183C108.131 456.124 110.075 432.474 112.667 411.091C114.611 392.948 125.302 376.102 124.978 357.959C123.358 357.311 121.414 356.987 119.47 356.663C118.174 363.79 114.935 370.594 112.991 377.721Z" fill="black" fill-opacity="0.16"/>
<path d="M251.978 440.897C251.978 447.377 257.161 445.433 262.021 441.869H261.697C263.965 434.742 264.613 426.966 266.557 420.163C271.092 405.584 279.192 392.948 285.671 379.341C286.319 378.045 286.319 376.102 285.347 374.806C284.051 373.51 283.079 372.538 281.784 372.538C271.416 387.765 262.993 404.288 256.837 421.783C255.217 427.614 252.302 434.742 251.978 440.897Z" fill="black" fill-opacity="0.16"/>
<path d="M371.85 414.007C350.791 423.078 329.732 433.122 307.702 439.925C285.024 447.053 262.021 452.236 239.019 457.42C228.327 460.012 216.988 461.956 206.621 465.519C200.789 467.463 195.282 470.055 189.45 471.351C134.698 486.254 91.2847 523.187 50.7875 561.417C21.9534 588.307 -12.0643 621.677 -53.8574 623.297C-53.2095 624.593 -52.5615 625.565 -51.9136 626.536C-51.2656 627.184 -50.6176 628.156 -49.9697 628.804C-44.786 634.312 -39.2784 636.256 -33.4468 635.932C3.1627 622.649 34.5886 598.998 63.4226 572.756C80.2695 557.205 96.4683 540.682 113.315 525.455C126.598 513.468 141.825 504.073 158.348 497.269C178.435 485.606 200.141 479.126 223.144 471.999C251.654 463.252 280.164 454.828 308.998 446.405C323.901 442.193 338.48 437.333 352.735 431.502C360.834 428.262 370.878 422.106 380.273 420.486C380.597 417.247 379.949 414.007 378.329 410.767C376.061 412.063 373.793 413.035 371.85 414.007Z" fill="black" fill-opacity="0.16"/>
<path opacity="0.6" d="M79.2971 393.596C74.1135 385.497 68.2819 378.045 63.7462 369.622C66.662 377.398 71.5217 384.201 76.0574 391.005C81.889 400.076 88.3685 409.471 95.82 416.923C96.144 417.247 96.144 416.599 96.144 416.599C90.3124 409.471 84.4808 401.696 79.2971 393.596Z" fill="white" fill-opacity="0.16"/>
<path opacity="0.6" d="M113.315 358.931C108.455 373.186 102.624 388.089 101.976 403.316C101.976 403.64 102.3 403.64 102.3 403.316C104.567 388.413 109.751 373.834 113.315 358.931C113.639 358.931 113.315 358.931 113.315 358.931Z" fill="white" fill-opacity="0.16"/>
<path opacity="0.6" d="M87.7205 487.55C84.4807 495.973 82.8608 504.073 77.0292 511.524C71.1976 518.652 63.4221 525.779 55.3227 530.639C41.7156 538.739 28.7565 546.838 14.5015 553.966C0.570423 561.093 -13.3606 567.897 -26.6437 575.996C-37.011 582.152 -50.2941 589.603 -56.4497 599.646C-56.4497 599.322 -56.4497 599.322 -56.7737 599.322L-57.0977 599.646C-57.0977 599.97 -57.0977 600.294 -56.7737 599.97C-31.1794 579.56 -2.34538 565.305 26.8126 550.402C40.4197 543.274 54.0268 535.175 65.69 525.455C70.8736 521.244 76.7052 515.736 79.945 510.229C84.1567 503.101 85.7766 495.002 88.3685 487.226C88.0445 487.226 87.7205 487.226 87.7205 487.55Z" fill="white" fill-opacity="0.16"/>
<path opacity="0.6" d="M235.131 451.264C215.368 452.236 194.957 456.448 175.843 461.308C165.799 463.9 155.756 465.843 145.713 469.083C135.021 472.647 125.626 478.479 115.259 483.014C124.654 479.774 133.726 475.239 143.445 471.999C154.136 468.435 164.827 465.519 175.843 462.928C195.605 458.068 215.368 454.18 235.131 451.588C235.455 451.912 235.455 451.264 235.131 451.264Z" fill="white" fill-opacity="0.16"/>
<path opacity="0.6" d="M271.74 383.877C266.232 392.624 260.724 401.372 255.865 410.767C250.681 421.134 244.849 432.798 241.934 444.137C241.934 444.461 242.258 444.785 242.582 444.461C251.005 423.402 260.4 403.316 271.74 383.877Z" fill="white" fill-opacity="0.16"/>
<path opacity="0.6" d="M353.383 418.543C338.804 423.402 324.225 428.586 309.646 432.798C297.658 436.038 285.347 440.897 273.036 442.517C286.319 441.545 299.602 436.685 312.237 433.122C326.169 429.234 340.1 424.698 353.383 419.191C353.707 419.191 353.707 418.543 353.383 418.543Z" fill="white" fill-opacity="0.16"/>
</g>
<path fill-rule="evenodd" clip-rule="evenodd" d="M351.451 503.975C410.282 505.083 459.33 469.082 506.08 432.881C563.412 388.485 631.655 347.96 645.563 276.223C661.521 193.917 642.971 99.3625 581.674 42.9789C521.859 -12.0417 431.965 -1.08987 351.451 5.68362C279.679 11.7216 208.918 28.6779 156.531 78.7455C102.607 130.281 58.5618 201.781 68.3767 276.223C77.5727 345.972 148.076 383.399 202.468 427.161C247.83 463.658 293.534 502.884 351.451 503.975Z" fill="#08D57F"/>
<path opacity="0.16" fill-rule="evenodd" clip-rule="evenodd" d="M351.472 503.975C410.304 505.083 459.351 469.082 506.101 432.881C563.433 388.485 631.676 347.96 645.584 276.223C661.542 193.917 642.992 99.3625 581.695 42.9789C521.88 -12.0417 562.455 138.477 481.941 145.251C410.169 151.289 339.409 168.245 287.021 218.312C233.098 269.848 58.5831 201.781 68.3979 276.223C77.594 345.972 148.097 383.399 202.489 427.161C247.852 463.658 293.555 502.884 351.472 503.975Z" fill="#005D2D"/>
<defs>
<clipPath id="clip0_2_1264">
<rect width="441.674" height="280" fill="white" transform="translate(-61 356)"/>
</clipPath>
</defs>
</svg>
