<svg width="621" height="600" viewBox="0 0 621 600" fill="none" xmlns="http://www.w3.org/2000/svg">
<path d="M424.666 351.202C427.29 355.037 428.502 360.891 429.713 364.727C436.172 384.307 443.439 404.09 453.129 422.257C469.883 453.546 496.529 479.586 525.799 499.772C527.616 480.797 525.597 461.015 523.377 442.241C521.762 428.919 518.128 415.394 514.697 402.475C513.082 396.015 511.265 389.556 508.641 383.5C508.439 383.096 508.439 382.894 508.237 382.49C511.265 381.885 514.495 382.49 517.523 383.5C518.532 384.509 519.339 385.518 520.147 386.73C527.616 397.428 531.653 410.751 535.085 423.266C538.112 434.369 539.929 445.471 540.939 456.977C541.948 468.282 542.957 481.201 545.783 493.312C548.811 507.443 554.665 520.766 565.566 530.051C583.935 545.595 607.553 552.054 631.171 552.458C637.227 552.458 643.282 551.852 649.136 551.247C652.164 554.678 653.577 560.331 654.183 564.57C655.192 570.222 655.798 576.076 655.394 581.93C654.99 587.986 653.174 593.84 648.733 597.877C641.062 599.088 633.391 599.895 625.519 599.895C617.646 598.684 609.773 596.666 601.901 594.647C582.724 589.6 566.373 580.517 550.224 569.414C531.855 556.899 514.495 541.759 499.355 525.005C499.153 525.207 499.153 525.207 498.951 525.005C492.895 518.747 487.445 511.682 482.399 504.415C450.706 458.189 425.07 407.319 416.794 351.807C419.418 351 422.042 350.798 424.666 351.202Z" fill="#A16324"/>
<path d="M511.669 382.087C512.275 384.105 513.082 386.124 513.688 387.941C515.706 392.785 518.129 397.63 519.744 402.677C523.983 417.211 527.212 432.35 529.635 447.288C531.653 460.409 532.259 473.732 532.865 487.055C533.268 497.552 534.076 508.25 537.911 517.94C532.259 513.902 528.222 508.25 525.598 501.791C525.396 500.983 525.194 499.974 525.194 499.166C525.396 499.368 525.598 499.368 525.598 499.57C527.414 480.595 525.396 460.813 523.175 442.04C521.56 428.717 517.927 415.192 514.495 402.273C512.88 395.813 511.064 389.354 508.439 383.298C508.237 382.894 508.237 382.692 508.036 382.289C509.449 382.087 510.66 382.087 511.669 382.087Z" fill="black" fill-opacity="0.16"/>
<path d="M420.024 351.202C425.676 380.674 437.788 408.732 450.909 435.378C461.607 456.977 474.93 476.962 490.07 495.533C505.613 514.71 521.964 533.685 541.343 548.824C559.308 562.955 580.706 574.865 603.516 578.902C614.82 580.92 626.326 581.324 637.832 580.113C643.888 579.507 649.944 578.498 656 577.691C656 579.104 656 580.517 655.798 581.93C655.394 587.986 653.578 593.84 649.137 597.877C641.466 599.088 633.795 599.895 625.923 599.895C618.05 598.684 610.177 596.666 602.305 594.647C583.128 589.6 566.777 580.517 550.628 569.414C532.259 556.899 514.899 541.759 499.759 525.005C499.557 525.207 499.557 525.207 499.355 525.005C493.3 518.747 487.849 511.682 482.803 504.415C451.11 458.189 425.474 407.319 417.198 351.807C418.005 351.606 419.014 351.404 420.024 351.202Z" fill="black" fill-opacity="0.16"/>
<path opacity="0.6" d="M518.533 387.739C529.837 407.521 535.085 427.909 539.122 450.114C543.362 473.934 539.526 498.763 552.849 520.16C553.051 520.362 552.849 520.967 552.647 520.564C540.334 503.809 539.526 481.604 538.315 461.62C536.7 436.589 528.827 410.347 518.129 387.941C517.927 387.739 518.331 387.537 518.533 387.739Z" fill="black" fill-opacity="0.16"/>
<path opacity="0.6" d="M558.905 528.033C576.063 543.374 594.634 551.449 617.041 555.284C625.519 556.697 634.401 556.091 642.677 554.678C645.503 554.275 648.33 553.871 651.357 553.669C651.963 554.678 652.367 555.688 652.771 556.697C639.65 558.514 626.528 559.321 613.206 557.504C592.616 554.88 572.43 543.778 558.703 528.436C558.299 528.436 558.501 527.831 558.905 528.033Z" fill="black" fill-opacity="0.16"/>
<path opacity="0.6" d="M433.549 383.298C437.788 393.391 440.614 404.09 445.862 413.981C451.716 425.083 458.781 435.378 465.846 445.673C473.113 456.17 482.803 466.667 492.492 475.145C496.933 478.98 501.172 482.614 505.613 486.449C510.66 490.89 515.504 496.542 521.358 499.57C521.56 499.57 521.56 499.974 521.358 499.974C511.063 496.34 501.576 486.247 493.501 479.182C483.408 470.502 473.719 460.611 466.048 449.508C459.387 439.819 452.725 430.332 447.073 420.037C440.816 408.531 436.778 396.217 433.145 383.702C432.741 383.096 433.347 382.692 433.549 383.298Z" fill="black" fill-opacity="0.16"/>
<path fill-rule="evenodd" clip-rule="evenodd" d="M287.333 503.973C362.874 504.956 436.079 478.671 490.831 428.356C547.003 376.737 580.864 306.529 583.659 231.662C586.559 153.979 571.835 64.9814 506.065 20.2445C444.013 -21.9637 360.893 12.1139 287.333 30.1007C236.263 42.5881 199.413 75.5158 156.924 105.615C100.499 145.588 16.9264 165.435 2.80865 231.662C-12.3051 302.562 36.0208 372.198 89.2386 423.132C142.185 473.806 212.828 503.004 287.333 503.973Z" fill="#08D57F"/>
<path opacity="0.16" fill-rule="evenodd" clip-rule="evenodd" d="M287.333 503.973C362.874 504.956 436.079 478.671 490.831 428.356C547.003 376.737 580.864 306.529 583.659 231.662C586.559 153.979 571.835 64.9814 506.065 20.2445C444.013 -21.9637 434.969 155.499 361.408 173.485C310.339 185.973 273.488 218.901 231 249C174.575 288.973 16.9264 165.435 2.80865 231.662C-12.3051 302.562 36.0208 372.198 89.2386 423.132C142.185 473.806 212.828 503.004 287.333 503.973Z" fill="#005D2D"/>
</svg>
