<svg width="33" height="32" viewBox="0 0 33 32" fill="none" xmlns="http://www.w3.org/2000/svg">
<path d="M22.0006 28V25.3333C22.0006 23.9188 21.4387 22.5623 20.4385 21.5621C19.4383 20.5619 18.0818 20 16.6673 20H7.33394C5.91946 20 4.5629 20.5619 3.56271 21.5621C2.56251 22.5623 2.00061 23.9188 2.00061 25.3333V28" stroke="#FFFFDD" stroke-width="2" stroke-linecap="round" stroke-linejoin="round"/>
<path d="M12 14.6667C14.9455 14.6667 17.3333 12.2789 17.3333 9.33333C17.3333 6.38781 14.9455 4 12 4C9.05444 4 6.66663 6.38781 6.66663 9.33333C6.66663 12.2789 9.05444 14.6667 12 14.6667Z" stroke="#FFFFDD" stroke-width="2" stroke-linecap="round" stroke-linejoin="round"/>
<path d="M24.6666 10.6667L31.3333 17.3334" stroke="#FFFFDD" stroke-width="2" stroke-linecap="round" stroke-linejoin="round"/>
<path d="M31.3333 10.6667L24.6666 17.3334" stroke="#FFFFDD" stroke-width="2" stroke-linecap="round" stroke-linejoin="round"/>
</svg>
