<svg width="38" height="39" viewBox="0 0 38 39" fill="none" xmlns="http://www.w3.org/2000/svg">
<g filter="url(#filter0_d_33_1680)">
<path d="M18.9993 29.3334C26.3631 29.3334 32.3327 23.3638 32.3327 16C32.3327 8.63622 26.3631 2.66669 18.9993 2.66669C11.6355 2.66669 5.666 8.63622 5.666 16C5.666 23.3638 11.6355 29.3334 18.9993 29.3334Z" stroke="#FFFFDD" stroke-width="2" stroke-linecap="round" stroke-linejoin="round"/>
<path d="M19 24C23.4183 24 27 20.4183 27 16C27 11.5817 23.4183 8 19 8C14.5817 8 11 11.5817 11 16C11 20.4183 14.5817 24 19 24Z" stroke="#FFFFDD" stroke-width="2" stroke-linecap="round" stroke-linejoin="round"/>
<path d="M19.0006 18.6666C20.4734 18.6666 21.6673 17.4727 21.6673 16C21.6673 14.5272 20.4734 13.3333 19.0006 13.3333C17.5279 13.3333 16.334 14.5272 16.334 16C16.334 17.4727 17.5279 18.6666 19.0006 18.6666Z" stroke="#FFFFDD" stroke-width="2" stroke-linecap="round" stroke-linejoin="round"/>
</g>
<defs>
<filter id="filter0_d_33_1680" x="-1.00002" y="0" width="40" height="40" filterUnits="userSpaceOnUse" color-interpolation-filters="sRGB">
<feFlood flood-opacity="0" result="BackgroundImageFix"/>
<feColorMatrix in="SourceAlpha" type="matrix" values="0 0 0 0 0 0 0 0 0 0 0 0 0 0 0 0 0 0 127 0" result="hardAlpha"/>
<feOffset dy="4"/>
<feGaussianBlur stdDeviation="2"/>
<feComposite in2="hardAlpha" operator="out"/>
<feColorMatrix type="matrix" values="0 0 0 0 0 0 0 0 0 0 0 0 0 0 0 0 0 0 0.25 0"/>
<feBlend mode="normal" in2="BackgroundImageFix" result="effect1_dropShadow_33_1680"/>
<feBlend mode="normal" in="SourceGraphic" in2="effect1_dropShadow_33_1680" result="shape"/>
</filter>
</defs>
</svg>
